<?xml version="1.0" encoding="utf-8"?>
<!-- Generator: Adobe Illustrator 15.1.0, SVG Export Plug-In . SVG Version: 6.00 Build 0)  -->
<!DOCTYPE svg PUBLIC "-//W3C//DTD SVG 1.1//EN" "http://www.w3.org/Graphics/SVG/1.1/DTD/svg11.dtd">
<svg version="1.1" id="Layer_1" xmlns="http://www.w3.org/2000/svg" xmlns:xlink="http://www.w3.org/1999/xlink" x="0px" y="0px"
	 width="320.43px" height="51.418px" viewBox="0 0 320.43 51.418" enable-background="new 0 0 320.43 51.418" xml:space="preserve">
<g>
	<path fill="#FFFFFF" d="M0.723,7.546c0-0.264,0.065-0.657,0.065-1.051V1.767C0.723,0.059,1.445,0.321,3.021,0.452
		c0.394,0.066,4.071,0.46,4.071,0.854c7.487,1.444,8.078,9.457,8.078,12.872c0,1.707-0.263,2.758-0.591,3.809l-0.985,3.152
		c-0.328,0.788-0.985,1.576-1.642,2.364l-0.591,0.723c-0.722,0.854-1.117,0.854-1.905,1.708c4.006,2.823,4.926,6.436,4.926,11.099
		c0,5.91-1.379,10.113-6.896,12.412c-1.445,0.591-2.496,0.854-3.94,0.854c-0.395,0-1.445,0.263-2.89-0.328
		c-0.329-1.904-0.329-4.071-0.329-5.647c0-2.891,0.263-5.779,0.263-7.881l0.066-7.355c-0.066-0.657-0.066-1.511-0.066-2.299
		c0-0.525,0-1.117,0.066-1.643l0.263-5.254c0-3.414-0.197-7.289-0.197-10.77V7.546z M4.466,45.899
		c2.759-0.525,4.203-1.84,5.386-4.072l0.065-0.197c0.394-2.692,0.394-1.839,0.394-3.283c0-2.693-0.263-4.466-0.985-6.633
		L9.26,31.517c-0.985-1.313-2.693-3.087-4.729-3.547c0,2.168,0.131,3.48,0.131,6.107c0,2.168-0.131,4.795-0.131,6.634
		c0,0.919,0.066,1.444,0.066,2.232c0,0.723,0,1.511-0.066,2.102L4.466,45.899z M4.991,19.761c0,1.182-0.065,2.496-0.131,3.743
		l0.919-0.196c2.693-0.92,3.612-2.627,4.532-5.386l0.066-0.132c0.459-1.247,0.591-2.298,0.591-3.283
		c0-1.445-0.131-3.218-0.394-4.663v0.065l-0.525-1.247c-0.919-2.102-2.824-2.89-5.254-3.94L4.991,19.761z"/>
	<path fill="#FFFFFF" d="M32.509,1.963c0.656-1.642,1.444-1.642,2.298-1.444c0.722,0.197,1.708,0.723,1.51,2.232
		c-0.197,0.788-0.394,1.445-0.459,2.168c-0.131,0.854-0.197,1.707-0.722,3.152l-1.313,4.99c-0.197,0.92-0.525,1.773-0.788,2.562
		c-0.329,0.854-0.525,1.576-0.525,1.773c-2.627,9.72-2.299,7.881-2.299,7.815l-1.182,4.466c-0.197,0.591-0.263,1.313-0.329,2.036
		c0,0.459-0.065,0.854-0.263,1.642l-0.197,0.788v-0.066l-0.525,2.431c-0.263,0.788-0.722,2.43-1.117,4.269
		c-0.197,0.656-0.394,1.379-0.722,2.232c-0.197,0.657-0.459,1.183-0.525,1.643l-0.525,2.364l-0.525,1.642
		c-0.459,1.313-1.182,1.971-2.627,1.576s-1.839-1.445-1.182-3.283l-0.065,0.131l0.394-1.576c0.197-0.656,0.197-0.92,0.197-1.051
		c0.394-1.642,0.591-2.232,0.919-2.824c0.197-0.591,0.394-1.182,0.788-2.43l0.329-1.445c0.065-0.394,0.197-0.722,0.197-0.722
		c0.131-0.46,0.197-0.92,0.263-1.248c0.394-1.642,0.591-2.562,1.117-4.335c0-0.262-0.066-0.656,0.065-1.576l-1.445-6.107v0.066
		c-0.591-2.168-0.985-4.007-1.248-5.846l-0.329-1.839l-1.051-5.779L20.03,7.282V6.823l-0.263-1.117
		c-0.328-0.787-0.459-1.379-0.525-2.627c0-0.131,0-0.262-0.065-0.459c-0.263-1.248,0.919-1.904,1.839-1.971
		c0.985-0.065,1.839-0.197,2.233,1.643c0.066,0.656,0.197,1.312,0.197,1.312l0.46,2.168c0.065,0.591,0.263,1.116,0.394,1.839
		l0.459,2.036l0.132,1.312c0.197,1.183,0.263,2.365,0.788,4.203l0.985,5.583l0.329,1.576c0.065-0.329,0.131-0.591,0.263-0.92
		c1.248-5.385,1.707-6.896,2.364-8.603l0.854-2.365v0.066l0.131-0.854v0.196c0-0.394,0-0.788,0.263-1.444l0.591-2.824l1.051-3.415
		V1.963z"/>
	<path fill="#FFFFFF" d="M58.451,0.716l1.248,0.525c3.481,1.51,6.567,4.137,8.078,7.158c0.263,0.788,1.248,1.773,1.773,3.218
		c1.576,4.729,1.97,9.063,2.036,13.988c0,0.788,0.197,1.511,0.197,2.824c0,5.977-0.788,13.463-5.32,17.535l-0.328,0.46l-0.919,0.787
		c-1.379,1.314-2.824,1.84-4.203,2.496l-1.117,0.525l-0.788,0.197l-1.51,0.197c-0.722,0.065-1.379,0.131-1.576-0.132
		c-0.329-0.46-0.263-2.167-0.263-2.167l-0.131-2.036c0-1.773,0.065-3.743,0.065-5.451c0-0.788,0-1.642-0.065-2.43v0.065
		c0-2.167-0.197-4.137-0.197-6.436c0-0.395,0.066-0.723,0.066-1.051c0-2.102-0.263-4.466-0.263-6.567
		c0-0.329,0.066-0.657,0.066-1.051c0-0.263-0.066-0.525-0.066-0.788c0-1.511,0.066-2.824,0.066-4.466v-3.152
		c0-2.496,0.131-5.123,0.131-7.553c0-1.051-0.131-2.036-0.131-3.415c0-0.723-0.395-2.496,0.197-3.283
		c0.263-0.395,0.919-0.197,1.708-0.197L58.451,0.716z M59.37,27.313c0,3.94-0.065,8.604,0.263,12.609l0.197,3.283
		c0,0.854-0.131,1.511-0.131,2.562l1.182-0.591h-0.065l0.919-0.525c1.511-0.854,0.92-0.263,4.006-4.86v0.065
		c0.591-1.182,0.919-3.152,1.313-5.319l0.197-1.051v-0.328c0-2.43,0.263-4.663,0.263-7.158v-1.313
		c0.066-0.395,0.066-0.854,0.066-1.248c0-1.511-0.263-2.89-0.459-4.663l-0.132-1.182v0.196c-0.065-1.247-0.459-2.232-0.788-3.283
		l-0.131-0.788l-0.329-0.985c-0.722-1.576-1.642-3.218-3.021-4.466l-0.394-0.394c-0.591-0.46-1.248-0.854-1.839-1.313l-0.985-0.723
		c0,1.773-0.132,5.386-0.329,7.881c0,1.773,0,3.546,0.131,5.254c-0.065,0.328-0.065,0.723-0.065,1.051
		c0,1.116,0.131,2.167,0.131,3.218V27.313z"/>
	<path fill="#FFFFFF" d="M88.333,14.638c0.065,0.854,0.197,1.773,0.328,2.956v-0.065l0.788,3.874l0.591,4.729v-0.065
		c0.329,1.642,0.722,3.35,1.051,5.057l0.263,1.904l0.788,3.678l0.657,3.941c0.591,3.021,0.985,5.319,1.116,6.83
		c0.066,0.131,0.066,0.459,0.066,0.656c0.066,0.92,0.066,0.985-0.525,1.511c-0.263,0.328-0.854,0.46-1.379,0.46
		c-0.394,0-1.379,0.591-1.97-1.248l-0.92-4.27l-0.656-4.794l-0.329-1.772c-0.197-0.329-0.197-0.525-0.197-0.789l-0.854-4.662
		l-0.263-1.511c-1.117,0.065-2.167,0.132-3.218,0.132c-0.525,0-0.985,0.065-1.576,0.065c-0.656,0.065-0.197,0.065-1.051,0.065
		l-0.197,1.313l-0.591,2.759l-0.197,1.379c-0.131,0.788-0.197,1.576-0.394,2.232c0,0.263-0.065,0.657-0.065,0.854l-0.197,0.985
		l-0.46,2.692c-0.131,1.051-0.263,1.905-0.263,1.971l-0.197,1.313v0.328c-0.329,2.496-0.263,3.021-2.167,3.087
		c-1.51,0.065-1.904-0.723-1.904-2.036c0-0.263,0-0.788,0.065-1.247c0.329-3.284,0.723-5.977,1.576-9.457l-0.065,0.131l0.263-2.824
		l0.723-3.218l-0.066,0.065l0.197-2.167c0.132-1.051,0.263-2.299,0.46-3.415c0.263-1.642,0.591-3.35,0.854-4.991l0.723-4.4
		c0.46-2.102,0.723-2.232,0.723-3.48l0.263-1.97v0.065c0.065-0.395,0.263-0.92,0.328-1.313l0.394-2.233
		c0.131-0.656,0.197-1.379,0.525-2.692c0.066-1.511,0.394-4.072,2.167-4.663c0.788-0.196,2.43,0,2.758,2.627
		c0.132,0.854,0.263,1.511,0.263,1.511l1.248,6.896C88.005,12.536,88.202,13.653,88.333,14.638z M85.443,22.65l-0.131-0.985
		c-0.263-1.248-0.197-2.561-0.394-3.809c-0.131-1.511-1.051-6.371-1.051-6.305l-1.116,7.749V19.17
		c-0.132,1.642-0.395,3.218-0.723,4.991l-0.46,3.152h0.788c0.723,0,1.445-0.066,2.299-0.132c0.525,0,1.051-0.065,1.576-0.131
		L85.443,22.65z"/>
	<path fill="#FFFFFF" d="M110.597,1.963c0.656-1.642,1.444-1.642,2.298-1.444c0.722,0.197,1.708,0.723,1.51,2.232
		c-0.197,0.788-0.394,1.445-0.459,2.168c-0.131,0.854-0.197,1.707-0.722,3.152l-1.313,4.99c-0.197,0.92-0.525,1.773-0.788,2.562
		c-0.329,0.854-0.525,1.576-0.525,1.773c-2.627,9.72-2.299,7.881-2.299,7.815l-1.182,4.466c-0.197,0.591-0.263,1.313-0.329,2.036
		c0,0.459-0.065,0.854-0.263,1.642l-0.197,0.788v-0.066l-0.525,2.431c-0.263,0.788-0.722,2.43-1.117,4.269
		c-0.197,0.656-0.394,1.379-0.722,2.232c-0.197,0.657-0.459,1.183-0.525,1.643l-0.525,2.364l-0.525,1.642
		c-0.459,1.313-1.182,1.971-2.627,1.576s-1.839-1.445-1.182-3.283l-0.065,0.131l0.394-1.576c0.197-0.656,0.197-0.92,0.197-1.051
		c0.394-1.642,0.591-2.232,0.919-2.824c0.197-0.591,0.394-1.182,0.788-2.43l0.329-1.445c0.065-0.394,0.197-0.722,0.197-0.722
		c0.131-0.46,0.197-0.92,0.263-1.248c0.394-1.642,0.591-2.562,1.117-4.335c0-0.262-0.066-0.656,0.065-1.576l-1.445-6.107v0.066
		c-0.591-2.168-0.985-4.007-1.248-5.846l-0.329-1.839l-1.051-5.779l-0.591-3.087V6.823l-0.263-1.117
		c-0.328-0.787-0.459-1.379-0.525-2.627c0-0.131,0-0.262-0.065-0.459c-0.263-1.248,0.919-1.904,1.839-1.971
		c0.985-0.065,1.839-0.197,2.233,1.643c0.066,0.656,0.197,1.312,0.197,1.312l0.46,2.168c0.065,0.591,0.263,1.116,0.394,1.839
		l0.459,2.036l0.132,1.312c0.197,1.183,0.263,2.365,0.788,4.203l0.985,5.583l0.329,1.576c0.065-0.329,0.131-0.591,0.263-0.92
		c1.248-5.385,1.707-6.896,2.364-8.603l0.854-2.365v0.066l0.131-0.854v0.196c0-0.394,0-0.788,0.263-1.444l0.591-2.824l1.051-3.415
		V1.963z"/>
	<path fill="none" stroke="#FFFFFF" stroke-width="0.657" stroke-miterlimit="10" d="M4.533,45.045
		c0.065-0.591,0.065-1.379,0.065-2.102c0-0.788-0.065-1.313-0.065-2.233c0-1.839,0.131-4.466,0.131-6.633
		c0-2.627-0.131-3.94-0.131-6.108c2.035,0.46,3.743,2.233,4.728,3.547l0.066,0.197c0.722,2.167,0.985,3.94,0.985,6.634
		c0,1.444,0,0.59-0.394,3.283l-0.066,0.197c-1.182,2.232-2.627,3.546-5.385,4.071L4.533,45.045z M4.795,4.719
		c2.43,1.052,4.335,1.84,5.254,3.941l0.526,1.247V9.842c0.262,1.445,0.394,3.219,0.394,4.663c0,0.985-0.132,2.036-0.591,3.284
		l-0.066,0.131c-0.92,2.759-1.839,4.467-4.532,5.387l-0.919,0.196c0.066-1.248,0.131-2.562,0.131-3.744L4.795,4.719z M0.723,9.119
		c0,3.481,0.197,7.356,0.197,10.771l-0.262,5.254c-0.066,0.525-0.066,1.117-0.066,1.643c0,0.788,0,1.642,0.066,2.298l-0.066,7.356
		c0,2.102-0.263,4.991-0.263,7.881c0,1.576,0,3.744,0.329,5.649c1.444,0.59,2.495,0.327,2.889,0.327
		c1.445,0,2.496-0.263,3.941-0.854c5.517-2.299,6.896-6.502,6.896-12.413c0-4.663-0.919-8.275-4.926-11.1
		c0.788-0.854,1.182-0.854,1.905-1.707l0.591-0.723c0.657-0.788,1.313-1.576,1.642-2.363l0.985-3.153
		c0.329-1.051,0.591-2.102,0.591-3.81c0-3.415-0.591-11.428-8.078-12.873c0-0.394-3.678-0.788-4.072-0.854
		C1.446,0.319,0.723,0.057,0.789,1.765v4.728c0,0.395-0.066,0.788-0.066,1.051V9.119z"/>
	<path fill="none" stroke="#FFFFFF" stroke-width="0.657" stroke-miterlimit="10" d="M32.51,2.158l-1.051,3.415l-0.591,2.824
		c-0.263,0.656-0.263,1.051-0.263,1.444V9.645l-0.131,0.854v-0.065l-0.854,2.364c-0.656,1.707-1.116,3.218-2.364,8.604
		c-0.131,0.328-0.197,0.591-0.263,0.919l-0.328-1.576l-0.986-5.582c-0.525-1.839-0.59-3.021-0.788-4.203L24.76,9.645l-0.459-2.035
		c-0.132-0.723-0.329-1.248-0.395-1.839l-0.459-2.168c0,0-0.132-0.656-0.197-1.313c-0.394-1.839-1.248-1.707-2.234-1.642
		c-0.919,0.065-2.101,0.723-1.839,1.97c0.066,0.197,0.066,0.329,0.066,0.46c0.066,1.248,0.197,1.839,0.526,2.627l0.262,1.117V7.28
		l0.591,3.087l1.051,5.78l0.329,1.839c0.262,1.839,0.656,3.678,1.248,5.845v-0.065l1.445,6.107c-0.132,0.92-0.066,1.314-0.066,1.577
		c-0.526,1.772-0.723,2.692-1.117,4.334c-0.065,0.329-0.131,0.788-0.262,1.248c0,0-0.132,0.328-0.198,0.723l-0.328,1.444
		c-0.394,1.248-0.591,1.84-0.788,2.431c-0.328,0.592-0.526,1.182-0.92,2.824c0,0.131,0,0.394-0.196,1.051l-0.394,1.576l0.065-0.132
		c-0.657,1.839-0.263,2.89,1.182,3.284c1.445,0.395,2.168-0.262,2.628-1.576l0.525-1.642l0.525-2.365
		c0.066-0.459,0.328-0.984,0.526-1.642c0.328-0.854,0.525-1.576,0.722-2.232c0.394-1.84,0.854-3.481,1.117-4.27l0.525-2.43v0.065
		l0.197-0.788c0.197-0.788,0.263-1.183,0.263-1.642c0.065-0.723,0.131-1.445,0.328-2.036l1.182-4.466
		c0,0.065-0.328,1.904,2.299-7.816c0-0.196,0.197-0.919,0.525-1.772c0.263-0.789,0.592-1.643,0.788-2.562l1.314-4.992
		c0.525-1.444,0.591-2.298,0.723-3.152c0.065-0.723,0.262-1.379,0.459-2.167c0.197-1.511-0.788-2.036-1.51-2.233
		c-0.854-0.196-1.642-0.196-2.299,1.445V2.158z"/>
	<path fill="none" stroke="#FFFFFF" stroke-width="0.657" stroke-miterlimit="10" d="M59.436,23.24c0-1.051-0.131-2.102-0.131-3.219
		c0-0.328,0-0.722,0.066-1.051c-0.131-1.707-0.131-3.48-0.131-5.254c0.196-2.495,0.328-6.107,0.328-7.881l0.985,0.723
		c0.591,0.459,1.248,0.853,1.839,1.313l0.394,0.394c1.379,1.248,2.299,2.89,3.021,4.466l0.329,0.985l0.131,0.788
		c0.328,1.051,0.722,2.036,0.788,3.284v-0.197l0.131,1.183c0.198,1.773,0.46,3.152,0.46,4.663c0,0.394,0,0.854-0.065,1.247v1.314
		c0,2.495-0.263,4.729-0.263,7.158v0.328l-0.197,1.051c-0.394,2.167-0.723,4.138-1.314,5.32v-0.065
		c-3.086,4.597-2.496,4.006-4.006,4.859l-0.92,0.526h0.066l-1.182,0.591c0-1.051,0.131-1.708,0.131-2.562l-0.197-3.284
		c-0.328-4.006-0.263-8.669-0.263-12.609V23.24z M57.269,0.516c-0.788,0-1.445-0.196-1.708,0.197
		c-0.59,0.788-0.196,2.562-0.196,3.284c0,1.379,0.131,2.364,0.131,3.414c0,2.431-0.131,5.058-0.131,7.554v3.152
		c0,1.642-0.066,2.956-0.066,4.466c0,0.263,0.066,0.525,0.066,0.787c0,0.396-0.066,0.724-0.066,1.052
		c0,2.103,0.262,4.467,0.262,6.568c0,0.328-0.065,0.656-0.065,1.051c0,2.299,0.197,4.269,0.197,6.437v-0.066
		c0.066,0.788,0.066,1.643,0.066,2.431c0,1.707-0.066,3.678-0.066,5.451l0.131,2.035c0,0-0.065,1.708,0.263,2.167
		c0.197,0.264,0.854,0.198,1.577,0.133l1.51-0.197l0.788-0.197l1.117-0.525c1.379-0.657,2.824-1.183,4.203-2.496l0.919-0.788
		l0.329-0.459c4.531-4.072,5.32-11.56,5.32-17.536c0-1.313-0.198-2.036-0.198-2.824c-0.065-4.926-0.459-9.261-2.035-13.989
		c-0.526-1.444-1.511-2.43-1.774-3.218c-1.511-3.021-4.597-5.648-8.078-7.159l-1.248-0.525L57.269,0.516z"/>
	<path fill="none" stroke="#FFFFFF" stroke-width="0.657" stroke-miterlimit="10" d="M86.363,27.05
		c-0.525,0.065-1.05,0.131-1.576,0.131c-0.854,0.065-1.576,0.133-2.299,0.133H81.7l0.46-3.154c0.328-1.772,0.591-3.349,0.722-4.991
		V19.3l1.117-7.75c0-0.065,0.92,4.794,1.051,6.306c0.197,1.247,0.131,2.561,0.394,3.809l0.131,0.985L86.363,27.05z M87.94,11.418
		l-1.248-6.896c0,0-0.131-0.657-0.263-1.511c-0.328-2.627-1.97-2.823-2.758-2.627c-1.773,0.591-2.102,3.152-2.168,4.663
		c-0.328,1.313-0.394,2.036-0.525,2.692l-0.394,2.233c-0.066,0.394-0.263,0.919-0.329,1.313v-0.065l-0.262,1.97
		c0,1.248-0.263,1.379-0.722,3.481l-0.723,4.4c-0.263,1.642-0.591,3.349-0.854,4.991c-0.197,1.116-0.328,2.364-0.46,3.416
		l-0.197,2.167l0.066-0.066l-0.723,3.218l-0.262,2.824l0.066-0.131c-0.854,3.48-1.248,6.174-1.577,9.457
		c-0.065,0.46-0.065,0.985-0.065,1.248c0,1.313,0.394,2.102,1.904,2.036c1.905-0.065,1.839-0.591,2.168-3.086v-0.329l0.197-1.313
		c0-0.065,0.131-0.92,0.262-1.971l0.46-2.692l0.197-0.985c0-0.197,0.066-0.591,0.066-0.854c0.197-0.657,0.263-1.445,0.394-2.233
		l0.197-1.379l0.591-2.759l0.197-1.313c0.854,0,0.394,0,1.051-0.065c0.591,0,1.051-0.064,1.576-0.064
		c1.051,0,2.102-0.067,3.218-0.133l0.263,1.511l0.854,4.664c0,0.262,0,0.459,0.197,0.787l0.328,1.773l0.657,4.794l0.919,4.271
		c0.592,1.838,1.577,1.247,1.971,1.247c0.525,0,1.116-0.132,1.379-0.46c0.591-0.525,0.591-0.592,0.525-1.511
		c0-0.197,0-0.525-0.065-0.657c-0.131-1.51-0.525-3.809-1.117-6.83l-0.657-3.94l-0.788-3.678l-0.262-1.905
		c-0.329-1.707-0.723-3.415-1.051-5.057v0.065l-0.591-4.729l-0.788-3.875v0.065c-0.132-1.182-0.263-2.102-0.329-2.955
		C88.334,13.651,88.137,12.535,87.94,11.418z"/>
	<path fill="none" stroke="#FFFFFF" stroke-width="0.657" stroke-miterlimit="10" d="M110.729,2.158l-1.051,3.415l-0.591,2.824
		c-0.263,0.656-0.263,1.051-0.263,1.444V9.645l-0.131,0.854v-0.065l-0.854,2.364c-0.656,1.707-1.116,3.218-2.364,8.604
		c-0.131,0.328-0.197,0.591-0.263,0.919l-0.328-1.576l-0.986-5.582c-0.525-1.839-0.59-3.021-0.788-4.203l-0.131-1.314l-0.459-2.035
		c-0.132-0.723-0.329-1.248-0.395-1.839l-0.459-2.168c0,0-0.132-0.656-0.197-1.313c-0.394-1.839-1.248-1.707-2.234-1.642
		c-0.919,0.065-2.101,0.723-1.839,1.97c0.066,0.197,0.066,0.329,0.066,0.46c0.066,1.248,0.197,1.839,0.526,2.627l0.262,1.117V7.28
		l0.591,3.087l1.051,5.78l0.329,1.839c0.262,1.839,0.656,3.678,1.248,5.845v-0.065l1.445,6.107c-0.132,0.92-0.066,1.314-0.066,1.577
		c-0.526,1.772-0.723,2.692-1.117,4.334c-0.065,0.329-0.131,0.788-0.262,1.248c0,0-0.132,0.328-0.198,0.723l-0.328,1.444
		c-0.394,1.248-0.591,1.84-0.788,2.431c-0.328,0.592-0.526,1.182-0.92,2.824c0,0.131,0,0.394-0.196,1.051l-0.394,1.576l0.065-0.132
		c-0.657,1.839-0.263,2.89,1.182,3.284c1.445,0.395,2.168-0.262,2.628-1.576l0.525-1.642l0.525-2.365
		c0.066-0.459,0.328-0.984,0.526-1.642c0.328-0.854,0.525-1.576,0.722-2.232c0.394-1.84,0.854-3.481,1.117-4.27l0.525-2.43v0.065
		l0.197-0.788c0.197-0.788,0.263-1.183,0.263-1.642c0.065-0.723,0.131-1.445,0.328-2.036l1.182-4.466
		c0,0.065-0.328,1.904,2.299-7.816c0-0.196,0.197-0.919,0.525-1.772c0.263-0.789,0.592-1.643,0.788-2.562l1.314-4.992
		c0.525-1.444,0.591-2.298,0.723-3.152c0.065-0.723,0.262-1.379,0.459-2.167c0.197-1.511-0.788-2.036-1.51-2.233
		c-0.854-0.196-1.642-0.196-2.299,1.445V2.158z"/>
	<path fill="#9CBBC9" d="M150.33,29.546c0.591-1.839,1.576-1.576,2.562-1.313c0.919,0.263,1.642,1.116,1.313,2.431v-0.066
		c-0.525,2.168-1.576,6.239-3.415,9.852c0.131,0.525,0.197,0.854,0.394,1.379c0.591,0.985,2.824,6.765,2.824,7.355
		c0.131,0.985-0.657,1.445-1.248,1.707c-0.919,0.395-1.904,0.329-2.495-1.379c-0.197-0.328-0.329-0.788-0.525-1.248
		c0.263,0.723-0.395-0.656-0.657-1.182c-0.263-0.591-0.525-1.116-0.722-1.576l-0.329,0.46c-0.919,1.576-2.561,3.678-5.779,4.334
		c-0.722,0.132-3.283,0.132-4.531-0.788c-1.313-1.116-2.562-2.627-3.152-4.466c-0.394-1.313-0.985-4.531-0.854-6.239
		c0.065-3.021,0.328-4.399,0.788-5.845c0.656-2.232,1.97-4.466,3.415-6.305c0.328-0.46,0.656-1.116,0.854-1.576l-0.591-0.985
		c-0.132-0.131-0.197-0.394-0.263-0.525c-0.066-0.328-0.132-0.722-0.525-1.51c-1.051-1.708-2.562-4.991-2.693-7.158
		c-0.066-0.723-0.131-1.971-0.131-2.627c0-2.562,0.591-5.386,1.313-7.355c1.248-2.299,1.576-2.824,4.269-4.138
		c0.854-0.395,3.218-0.395,4.269,0c1.708,0.854,2.824,1.839,3.612,3.809c1.051,2.233,0.985,5.911,0.92,6.896
		c-0.46,4.467-1.313,7.027-3.284,10.18c-0.525,1.117-1.313,2.693-2.036,3.744c0.985,1.772,1.708,3.283,1.839,3.678l1.248,2.627
		c0.197,0.459,0.591,0.919,1.117,1.97l0.788,1.773c0.919-2.431,1.445-4.729,1.642-5.714L150.33,29.546z M144.748,43.338
		c0.591-0.788,1.313-2.496,1.642-2.89l-0.591-1.379c-0.263-0.657-0.657-1.511-0.92-2.168c-0.394-1.051-0.591-1.642-1.51-3.283
		c-0.263-0.657-1.182-2.824-2.298-4.598l-0.263,0.263c-1.183,1.576-1.642,2.562-2.693,5.319v-0.065
		c-0.197,0.525-0.525,2.036-0.525,3.875c0,0.525,0.066,1.183,0.197,1.904c0.395,2.167,0.854,4.991,1.773,5.583
		c0.263,0.196,1.313,0.591,1.511,0.525c1.248-0.329,1.773-0.592,2.364-1.117C143.894,44.914,144.485,43.863,144.748,43.338z
		 M144.748,14.244c0.197-0.985,0.394-3.678,0.394-5.319c-0.197-2.036-1.182-3.875-1.97-4.531c-0.197,0-0.854,0-0.92,0.065
		c-0.919,0.065-1.51,0.328-2.102,1.051c-1.051,1.642-1.182,3.087-1.313,4.006c-0.065,0.394,0,0.591-0.197,1.248
		c-0.131,0.722-0.197,1.444-0.197,1.97c0,0.854,0.131,1.773,0.197,2.496v-0.066c0.657,2.102,2.036,4.795,2.693,5.911l0.985-1.313
		l1.051-2.232C143.763,16.543,144.223,15.36,144.748,14.244z"/>
	<path fill="none" stroke="#9CBBC9" stroke-width="0.657" stroke-miterlimit="10" d="M143.369,17.526l-1.051,2.232l-0.985,1.314
		c-0.656-1.117-2.036-3.81-2.693-5.911v0.065c-0.065-0.723-0.197-1.642-0.197-2.496c0-0.525,0.066-1.247,0.197-1.97
		c0.197-0.657,0.132-0.854,0.197-1.248c0.132-0.92,0.263-2.364,1.314-4.006c0.591-0.723,1.182-0.985,2.102-1.052
		c0.065-0.065,0.722-0.065,0.919-0.065c0.788,0.657,1.773,2.496,1.97,4.532c0,1.642-0.197,4.334-0.394,5.319
		C144.223,15.359,143.763,16.541,143.369,17.526z M143.435,45.308c-0.591,0.525-1.117,0.789-2.364,1.116
		c-0.198,0.066-1.248-0.327-1.511-0.525c-0.92-0.591-1.379-3.415-1.774-5.582c-0.131-0.723-0.196-1.38-0.196-1.905
		c0-1.839,0.328-3.349,0.525-3.875v0.066c1.051-2.759,1.51-3.744,2.693-5.32l0.263-0.263c1.116,1.773,2.035,3.94,2.298,4.598
		c0.919,1.642,1.117,2.233,1.511,3.284c0.262,0.656,0.656,1.51,0.919,2.167l0.591,1.379c-0.328,0.395-1.051,2.102-1.642,2.89
		C144.486,43.862,143.894,44.913,143.435,45.308z M150.265,29.742c-0.197,0.985-0.723,3.284-1.642,5.714l-0.788-1.773
		c-0.525-1.051-0.919-1.511-1.116-1.97l-1.248-2.628c-0.132-0.394-0.854-1.904-1.839-3.678c0.722-1.051,1.51-2.627,2.036-3.743
		c1.97-3.152,2.824-5.714,3.284-10.18c0.065-0.985,0.131-4.663-0.92-6.896c-0.788-1.971-1.904-2.955-3.612-3.81
		c-1.051-0.394-3.415-0.394-4.269,0c-2.693,1.313-3.021,1.839-4.269,4.138c-0.722,1.971-1.314,4.795-1.314,7.356
		c0,0.656,0.066,1.904,0.132,2.627c0.131,2.167,1.642,5.451,2.692,7.158c0.394,0.789,0.46,1.183,0.526,1.511
		c0.066,0.132,0.131,0.395,0.263,0.525l0.591,0.985c-0.197,0.46-0.526,1.116-0.854,1.576c-1.445,1.839-2.758,4.072-3.415,6.305
		c-0.46,1.445-0.723,2.824-0.788,5.846c-0.132,1.708,0.459,4.926,0.853,6.239c0.592,1.839,1.84,3.35,3.153,4.466
		c1.248,0.92,3.809,0.92,4.532,0.788c3.218-0.656,4.86-2.758,5.779-4.334l0.329-0.46c0.197,0.46,0.46,0.985,0.722,1.576
		c0.263,0.525,0.919,1.904,0.657,1.183c0.197,0.459,0.328,0.919,0.525,1.247c0.592,1.708,1.576,1.773,2.496,1.38
		c0.591-0.263,1.379-0.723,1.248-1.708c0-0.591-2.233-6.371-2.824-7.355c-0.197-0.525-0.263-0.854-0.395-1.38
		c1.839-3.612,2.89-7.684,3.415-9.851v0.065c0.33-1.314-0.393-2.168-1.313-2.431c-0.984-0.263-1.97-0.525-2.562,1.313
		L150.265,29.742z"/>
	<path fill="#E2DD27" d="M176.01,7.546c0-0.264,0.066-0.657,0.066-1.051V1.767c-0.066-1.708,0.656-1.445,2.232-1.314
		c0.395,0.066,4.072,0.46,4.072,0.854c7.486,1.444,8.078,9.457,8.078,12.872c0,1.707-0.264,2.758-0.592,3.809l-0.984,3.152
		c-0.329,0.788-0.985,1.576-1.643,2.364l-0.591,0.723c-0.723,0.854-1.116,0.854-1.904,1.708c4.006,2.823,4.925,6.436,4.925,11.099
		c0,5.91-1.379,10.113-6.896,12.412c-1.444,0.591-2.495,0.854-3.94,0.854c-0.394,0-1.444,0.263-2.89-0.328
		c-0.328-1.904-0.328-4.071-0.328-5.647c0-2.891,0.263-5.779,0.263-7.881l0.065-7.355c-0.065-0.657-0.065-1.511-0.065-2.299
		c0-0.525,0-1.117,0.065-1.643l0.263-5.254c0-3.414-0.197-7.289-0.197-10.77V7.546z M179.754,45.899
		c2.758-0.525,4.203-1.84,5.385-4.072l0.066-0.197c0.394-2.692,0.394-1.839,0.394-3.283c0-2.693-0.263-4.466-0.985-6.633
		l-0.065-0.197c-0.985-1.313-2.692-3.087-4.729-3.547c0,2.168,0.132,3.48,0.132,6.107c0,2.168-0.132,4.795-0.132,6.634
		c0,0.919,0.065,1.444,0.065,2.232c0,0.723,0,1.511-0.065,2.102L179.754,45.899z M180.279,19.761c0,1.182-0.066,2.496-0.132,3.743
		l0.92-0.196c2.692-0.92,3.612-2.627,4.531-5.386l0.065-0.132c0.46-1.247,0.592-2.298,0.592-3.283c0-1.445-0.132-3.218-0.395-4.663
		v0.065l-0.525-1.247c-0.92-2.102-2.824-2.89-5.254-3.94L180.279,19.761z"/>
	<path fill="#E2DD27" d="M207.797,1.963c0.656-1.642,1.444-1.642,2.299-1.444c0.722,0.197,1.707,0.723,1.51,2.232
		c-0.197,0.788-0.394,1.445-0.459,2.168c-0.132,0.854-0.197,1.707-0.723,3.152l-1.313,4.99c-0.197,0.92-0.525,1.773-0.788,2.562
		c-0.328,0.854-0.525,1.576-0.525,1.773c-2.627,9.72-2.299,7.881-2.299,7.815l-1.182,4.466c-0.197,0.591-0.264,1.313-0.329,2.036
		c0,0.459-0.065,0.854-0.263,1.642l-0.197,0.788v-0.066l-0.525,2.431c-0.262,0.788-0.722,2.43-1.116,4.269
		c-0.196,0.656-0.394,1.379-0.722,2.232c-0.197,0.657-0.46,1.183-0.525,1.643l-0.525,2.364l-0.525,1.642
		c-0.46,1.313-1.183,1.971-2.627,1.576c-1.445-0.395-1.84-1.445-1.183-3.283l-0.065,0.131l0.394-1.576
		c0.197-0.656,0.197-0.92,0.197-1.051c0.394-1.642,0.591-2.232,0.919-2.824c0.197-0.591,0.395-1.182,0.789-2.43l0.328-1.445
		c0.065-0.394,0.197-0.722,0.197-0.722c0.131-0.46,0.196-0.92,0.262-1.248c0.395-1.642,0.592-2.562,1.117-4.335
		c0-0.262-0.066-0.656,0.065-1.576l-1.444-6.107v0.066c-0.592-2.168-0.985-4.007-1.248-5.846l-0.328-1.839l-1.051-5.779
		l-0.592-3.087V6.823l-0.263-1.117c-0.328-0.787-0.46-1.379-0.525-2.627c0-0.131,0-0.262-0.065-0.459
		c-0.263-1.248,0.92-1.904,1.839-1.971c0.985-0.065,1.839-0.197,2.233,1.643c0.065,0.656,0.196,1.312,0.196,1.312l0.46,2.168
		c0.065,0.591,0.263,1.116,0.395,1.839l0.459,2.036l0.132,1.312c0.196,1.183,0.263,2.365,0.788,4.203l0.984,5.583l0.329,1.576
		c0.065-0.329,0.131-0.591,0.263-0.92c1.248-5.385,1.707-6.896,2.364-8.603l0.854-2.365v0.066l0.132-0.854v0.196
		c0-0.394,0-0.788,0.262-1.444l0.592-2.824l1.051-3.415V1.963z"/>
	<path fill="#E2DD27" d="M235.381,48.657c-0.066,1.379-1.051,1.511-1.971,1.511c-0.985,0-1.904-0.065-1.904-1.839v-4.335
		l-0.066-3.152v0.065c-0.065-0.984,0-2.035,0.066-3.021c0-0.788,0.065-1.511,0.065-2.102s-0.065-1.116-0.065-1.642v-1.708
		c0-2.102,0-4.925,0-6.633c0-1.183-0.066-2.692-0.132-4.203c-0.065-1.313-0.065-2.955-0.065-3.81
		c-0.065-0.525-0.131-1.182-0.131-1.838v-0.657c-0.132-0.854-0.329-1.839-0.197-2.43l0.197-7.618V3.934
		c0-0.263,0.065-0.788,0.065-1.051c0.065-1.116,1.247-1.971,1.707-2.036c1.839-0.328,2.233,1.707,2.233,1.707
		c0.131,0.723,0.263,1.38,0.656,2.496l0.46,2.102V7.021c0.525,1.312,0.723,2.167,0.919,3.021l0.197,0.985l-0.065-0.132
		c0.46,1.38,0.985,2.89,1.444,4.269l1.905,6.83l1.182,4.795l1.445,4.597l0.722,2.102l1.314,5.058
		c-0.066-3.152-0.525-8.932-0.525-12.019v-1.248c0-0.46-0.066-0.919-0.066-1.444l-0.131-2.627v0.065
		c-0.066-1.116,0-2.364,0.065-3.612c0.065-0.92,0.065-1.839,0.065-2.758v-1.314c0-0.459-0.065-1.051-0.131-1.642
		c-0.066-0.788-0.197-1.772-0.197-2.692c-0.065-1.248,0-2.43,0.065-3.743c0.065-0.985,0.197-1.905,0.132-2.89
		c-0.066-1.773,0.919-2.233,1.904-2.102c0.723,0.065,1.707,0.131,1.839,1.773l0.132,4.399c0,0.657,0.065,1.38,0.065,2.036
		c0.065,1.313,0.131,2.955,0.131,4.269v2.299l0.065,4.335l0.132,9.457l0.132,6.501c0,0.46-0.066,0.854-0.066,1.38v4.269
		c0,0.722,0.066,1.511,0.066,2.167v1.313c0,1.313,0.065,2.89-0.132,4.071c-0.065,0.592-0.46,1.445-2.167,1.445
		c-1.248,0-1.511-1.051-1.773-1.904c0,0-0.065-0.132-0.065-0.197l-0.395-0.854l-0.854-2.168l-0.394-1.444l-0.264-1.444
		c-0.131-0.329-0.394-0.723-0.459-0.985c-0.066-0.132-0.263-0.395-0.395-0.788c-0.131-0.395-0.394-1.117-0.656-1.904l-0.395-1.511
		v0.065l-2.758-7.684l-0.197-0.92l-0.46-1.773v0.066c-0.328-0.985-0.46-1.839-0.591-2.562l-0.395-1.904
		c-0.262-0.92-0.525-1.642-0.854-2.562l-0.263-1.379l-0.525-2.102c0,0.394,0.065,1.248,0.065,1.707
		c0.066,0.723,0.197,2.43,0.197,3.152c0,0.46,0.066,1.051,0.132,1.643c0,0.328,0.065,0.656,0.065,0.919
		c0.065,1.051,0,2.495-0.065,3.48v9.852c0,0.394-0.065,0.854-0.065,1.247v1.314l0.065,2.561c0,0.46-0.065,0.788-0.065,1.248v1.773
		c0.065,1.051,0.065,2.167,0.065,3.218L235.381,48.657z"/>
	<path fill="#E2DD27" d="M259.089,48.329c-0.065,2.035-0.722,2.232-1.904,2.167c-0.919-0.065-2.167-0.394-2.167-1.708V38.28
		c0-0.787,0.065-1.576,0.065-2.363v-2.036c0-1.313,0.065-2.562,0-3.81l-0.132-2.364c-0.131-2.167-0.196-4.729-0.196-6.896
		c0-2.955,0-5.91,0.065-8.932s0.131-6.37,0.131-9.326c0.066-1.772,1.117-1.838,1.971-1.838c0.92,0,1.839,0,1.904,1.904
		c0.066,0.263,0.066,0.723,0.066,0.919v8.078l-0.066,5.386v2.823c0,0.92,0,1.905,0.066,2.824v0.328
		c0.065,1.511,0.131,2.824,0.131,4.138c0.065,0.92,0.065,2.299,0.065,3.218v10.377c0,0.656,0.065,1.313,0.065,2.102
		c0,0.591,0.066,1.182,0.066,1.839c0,0.854-0.066,1.904-0.132,2.758V48.329z"/>
	<path fill="#E2DD27" d="M267.691,33.552c0.132,1.248,0.329,2.496,0.525,3.481c0.395,2.89,1.183,6.961,2.693,8.603
		c0.263,0.197,0.525,0.46,1.182,0.46c0.328-0.196,0.985-0.788,1.248-1.511c0,0,1.051-2.43,1.379-4.662
		c0-0.723,0.066-2.496,0.132-3.744c0.065-2.298,0.196-5.254,0.131-6.37v0.065v-0.065h-0.656h-2.364
		c-0.92-0.065-1.313-0.591-1.379-2.102c-0.066-1.707,0.459-1.904,1.247-2.036c0.46-0.065,0.854,0,1.38-0.065h0.591
		c1.051-0.065,1.97-0.131,3.349,0.065c0.723,0.46,0.92,0.723,1.183,1.051c0.525,1.314,0.591,4.138,0.591,6.896
		c0,1.576,0,3.283,0,4.334c-0.065,3.152-0.591,4.926-1.707,8.013c-0.854,2.43-2.759,4.203-4.991,4.203h-0.263
		c-0.592,0.131-1.313,0.196-2.364-0.395c-1.248-0.722-1.839-1.642-2.496-2.627l-0.394-0.525l0.065,0.132
		c-0.591-0.92-0.985-2.168-1.379-3.744v0.066l-0.525-2.955l-0.263-0.92c-0.066-0.46-0.328-1.248-0.395-1.773
		c-0.328-2.102-0.656-5.779-0.656-7.881c0-0.723-0.066-1.379-0.066-2.102c0-0.656-0.065-1.182-0.065-1.839
		c0-0.722,0.065-1.839,0.132-2.562v-0.262c0-0.525,0-1.248,0-1.84v-1.051c0.065-2.692,0.328-5.779,0.788-8.472
		c0.131-1.379,0.263-2.562,0.656-3.874l0.263-0.92c0.132-0.395,0.657-1.248,1.051-1.839c0.525-1.051,1.051-1.97,1.643-2.692
		c1.182-1.313,2.758-1.708,4.334-1.511c4.729,0.525,5.582,3.612,6.042,7.224l0.065,1.38c0.066,0.394,0.066,1.051,0.066,1.576
		c0,1.116-0.395,1.707-1.905,1.772c-1.313,0.066-1.97-0.459-2.036-1.707l-0.131-1.576l0.065-0.723l-0.131-0.656l-0.395-1.248h0.065
		l-0.262-0.788c-0.132-0.132-0.395-0.394-0.46-0.46c-0.329-0.591-1.051-0.854-1.839-0.723c-0.328,0.197-0.592,0.395-0.854,0.723
		c-1.84,2.364-2.168,5.779-2.627,9.654l-0.329,2.43c-0.131,1.248-0.131,2.364-0.131,3.547v6.042
		C267.495,28.955,267.561,30.663,267.691,33.552z"/>
	<path fill="#E2DD27" d="M299.019,3.014c-0.065,2.692-0.131,5.319-0.263,7.946v3.219c0.066,0.656,0.132,1.248,0.132,2.035
		c0,0.723-0.065,1.445-0.065,2.102c-0.066,0.985-0.066,2.102,0,3.152v-0.065c0.065,0.854,0.065,1.905,0.065,2.759
		c-0.065,3.35-0.065,4.203-0.065,4.991l0.196,3.874c0,0.264,0.065,0.854,0.132,1.445c0.065,1.379,0.197,3.087,0.197,3.94
		c0,1.576,0,3.35-0.066,4.926v1.904c0,1.183,0,2.364-0.131,3.415c-0.066,1.248-1.248,1.379-2.036,1.445
		c-1.183,0.065-2.036-0.657-2.036-1.84l0.066-3.743c0-0.919,0.065-1.904,0.065-2.758v-1.971c0-1.576-0.132-3.94-0.197-6.042v0.066
		c-0.132-1.708-0.197-3.35-0.197-3.678c0-0.46,0-0.92-0.065-1.511l0.065-2.299h-0.722c-0.854,0.065-2.102,0.132-3.021,0.132
		c-0.591,0-1.051,0.065-1.576,0.065s-1.051,0-1.445-0.065h-0.065c-0.065,4.794-0.263,9.785-0.328,14.514v1.51l-0.065,4.729
		l-0.066,0.985c0,1.38-0.394,2.102-1.904,2.102c-1.642,0-1.773-0.591-2.035-1.772c0-3.416,0-6.502,0.262-9.852
		c0-1.576-0.065-3.547-0.065-5.451v-5.779c0.065-0.919,0.065-1.904,0.065-3.021v-7.159c0-1.51,0-3.021,0.066-4.729
		c0.065-1.904,0.131-4.729,0.131-6.566c0-0.657,0.066-1.117,0.066-1.445V4.262l-0.066-1.313c0-1.839,0.854-2.036,1.708-2.102
		c0.854-0.065,2.102,0,2.298,1.511l-0.196,14.842c0,0.657,0.065,1.708,0.131,2.167c0.065,0.723,0.132,1.38,0.065,2.693v0.328h1.445
		c1.445,0,2.824,0,4.269-0.065h1.116v-0.197c-0.131-1.839-0.131-4.006-0.131-5.779c0-3.021,0.131-6.042,0.263-9.129V6.035
		c0-0.985,0.065-2.364,0-3.743c0.263-0.592,0.132-1.773,2.102-1.511c1.051,0.065,1.839,0.263,1.904,2.167V3.014z"/>
	<path fill="#E2DD27" d="M313.862,4.984v1.642l-0.065,3.875c0,0.723-0.066,1.379-0.066,2.035v1.971c0,1.839,0,3.612,0.066,5.451
		v1.707c0,0.46,0.065,0.985,0.131,1.511c0.066,0.657,0.197,0.788,0.197,2.299c0,0.328,0.065,0.788,0.065,1.116v1.904
		c0,1.379,0.065,2.759,0.065,4.006c0,0.329-0.065,0.723-0.065,0.985c-0.065,0.657-0.131,1.248-0.131,1.642
		c0,1.117,0,2.562,0.065,3.612c0.065,0.854,0.065,2.102,0.065,3.021l-0.065,4.269v0.395c0,1.116,0.131,1.97-0.263,2.955
		c-0.328,0.854-0.985,0.788-2.167,0.854c-0.395,0-0.854-0.065-1.248-0.328c-0.591-0.395-0.395-0.985-0.525-1.511v-1.051v-1.379
		c0.065-0.197,0.065-0.263,0.065-0.329c0-0.196,0.065-0.591,0.065-0.787c0.066-0.329,0-0.854-0.065-1.445
		c-0.065-0.46-0.065-0.92-0.065-1.511c0-0.46,0.065-0.985,0.065-1.444v-2.036c-0.065-1.379,0-3.415,0.065-4.926
		c0-0.394-0.065-1.116-0.065-1.576c-0.065-0.591-0.065-1.444-0.065-2.036v-2.298c0.065-0.657,0-1.313,0-2.036
		c-0.065-0.525-0.065-1.182-0.065-1.904l-0.197-2.627v-1.643c0-0.591-0.065-1.312-0.065-1.904V6.626V4.984l-2.168,0.065
		l-1.642-0.065c-1.576,0-2.364-0.723-2.298-2.167c0.065-1.511,0.591-1.576,1.642-1.905h0.525c0.46,0,1.247,0,1.772-0.065
		c0.723-0.065,2.431-0.065,2.891-0.065c0.787,0.065,1.904,0.065,2.758,0.065c1.182,0,3.48,0.065,4.203,0.131h-0.131
		c0.065,0.066,0.131,0.066,0.328,0.066c1.642,0,2.43,0.459,2.43,2.299c0,1.642-0.788,1.642-1.904,1.642
		C316.621,4.984,315.241,5.05,313.862,4.984z"/>
	<path fill="none" stroke="#E2DD27" stroke-width="0.657" stroke-miterlimit="10" d="M179.819,45.045
		c0.066-0.591,0.066-1.379,0.066-2.102c0-0.788-0.066-1.313-0.066-2.233c0-1.839,0.131-4.466,0.131-6.633
		c0-2.627-0.131-3.94-0.131-6.108c2.036,0.46,3.744,2.233,4.729,3.547l0.066,0.197c0.722,2.167,0.985,3.94,0.985,6.634
		c0,1.444,0,0.59-0.396,3.283l-0.064,0.197c-1.184,2.232-2.627,3.546-5.387,4.071L179.819,45.045z M180.081,4.719
		c2.432,1.052,4.335,1.84,5.255,3.941l0.526,1.247V9.842c0.262,1.445,0.393,3.219,0.393,4.663c0,0.985-0.131,2.036-0.591,3.284
		L185.6,17.92c-0.92,2.759-1.839,4.467-4.532,5.387l-0.919,0.196c0.064-1.248,0.131-2.562,0.131-3.744L180.081,4.719z
		 M176.011,9.119c0,3.481,0.195,7.356,0.195,10.771l-0.262,5.254c-0.066,0.525-0.066,1.117-0.066,1.643c0,0.788,0,1.642,0.066,2.298
		l-0.066,7.356c0,2.102-0.263,4.991-0.263,7.881c0,1.576,0,3.744,0.329,5.649c1.445,0.59,2.496,0.327,2.89,0.327
		c1.445,0,2.495-0.263,3.941-0.854c5.516-2.299,6.895-6.502,6.895-12.413c0-4.663-0.919-8.275-4.926-11.1
		c0.788-0.854,1.184-0.854,1.906-1.707l0.59-0.723c0.658-0.788,1.314-1.576,1.642-2.363l0.985-3.153
		c0.329-1.051,0.591-2.102,0.591-3.81c0-3.415-0.591-11.428-8.078-12.873c0-0.394-3.678-0.788-4.07-0.854
		c-1.577-0.131-2.299-0.394-2.234,1.314v4.728c0,0.395-0.064,0.788-0.064,1.051V9.119z"/>
	<path fill="none" stroke="#E2DD27" stroke-width="0.657" stroke-miterlimit="10" d="M207.798,2.158l-1.053,3.415l-0.591,2.824
		c-0.262,0.656-0.262,1.051-0.262,1.444V9.645l-0.131,0.854v-0.065l-0.855,2.364c-0.656,1.707-1.116,3.218-2.364,8.604
		c-0.131,0.328-0.195,0.591-0.263,0.919l-0.328-1.576l-0.984-5.582c-0.525-1.839-0.592-3.021-0.788-4.203l-0.131-1.314l-0.46-2.035
		c-0.133-0.723-0.328-1.248-0.395-1.839l-0.459-2.168c0,0-0.132-0.656-0.198-1.313c-0.394-1.839-1.248-1.707-2.232-1.642
		c-0.919,0.065-2.103,0.723-1.839,1.97c0.064,0.197,0.064,0.329,0.064,0.46c0.067,1.248,0.198,1.839,0.526,2.627l0.263,1.117V7.28
		l0.591,3.087l1.051,5.78l0.328,1.839c0.264,1.839,0.657,3.678,1.248,5.845v-0.065l1.445,6.107c-0.131,0.92-0.066,1.314-0.066,1.577
		c-0.524,1.772-0.722,2.692-1.115,4.334c-0.065,0.329-0.133,0.788-0.264,1.248c0,0-0.132,0.328-0.196,0.723l-0.328,1.444
		c-0.396,1.248-0.592,1.84-0.788,2.431c-0.329,0.592-0.526,1.182-0.92,2.824c0,0.131,0,0.394-0.197,1.051l-0.394,1.576l0.064-0.132
		c-0.656,1.839-0.262,2.89,1.183,3.284s2.167-0.262,2.628-1.576l0.524-1.642l0.526-2.365c0.064-0.459,0.328-0.984,0.524-1.642
		c0.328-0.854,0.526-1.576,0.724-2.232c0.393-1.84,0.853-3.481,1.115-4.27l0.525-2.43v0.065l0.198-0.788
		c0.197-0.788,0.262-1.183,0.262-1.642c0.066-0.723,0.131-1.445,0.329-2.036l1.182-4.466c0,0.065-0.329,1.904,2.3-7.816
		c0-0.196,0.195-0.919,0.524-1.772c0.263-0.789,0.591-1.643,0.788-2.562l1.314-4.992c0.524-1.444,0.591-2.298,0.722-3.152
		c0.066-0.723,0.262-1.379,0.46-2.167c0.197-1.511-0.788-2.036-1.511-2.233c-0.854-0.196-1.643-0.196-2.298,1.445V2.158z"/>
	<path fill="none" stroke="#E2DD27" stroke-width="0.657" stroke-miterlimit="10" d="M235.512,48.395c0-1.051,0-2.167-0.065-3.218
		v-1.773c0-0.46,0.065-0.788,0.065-1.248l-0.065-2.562V38.28c0-0.395,0.065-0.854,0.065-1.248v-9.852
		c0.064-0.985,0.132-2.43,0.064-3.48c0-0.263-0.064-0.592-0.064-0.92c-0.065-0.591-0.132-1.182-0.132-1.642
		c0-0.724-0.132-2.432-0.196-3.152c0-0.46-0.066-1.313-0.066-1.708l0.526,2.102l0.263,1.379c0.328,0.92,0.59,1.643,0.853,2.562
		l0.395,1.905c0.131,0.722,0.262,1.576,0.591,2.562v-0.066l0.46,1.773l0.197,0.92l2.758,7.684v-0.065l0.394,1.511
		c0.264,0.788,0.525,1.511,0.657,1.904c0.131,0.395,0.328,0.657,0.395,0.788c0.065,0.263,0.329,0.657,0.46,0.985l0.262,1.444
		l0.395,1.445l0.854,2.168l0.395,0.854c0,0.065,0.065,0.197,0.065,0.197c0.263,0.854,0.526,1.904,1.774,1.904
		c1.707,0,2.101-0.854,2.167-1.445c0.196-1.182,0.132-2.758,0.132-4.071v-1.313c0-0.657-0.067-1.446-0.067-2.168v-4.269
		c0-0.525,0.067-0.92,0.067-1.379l-0.132-6.503l-0.132-9.457l-0.065-4.335v-2.299c0-1.313-0.066-2.955-0.131-4.269
		c0-0.657-0.066-1.379-0.066-2.036l-0.132-4.4c-0.13-1.642-1.116-1.708-1.838-1.773c-0.986-0.131-1.971,0.329-1.905,2.102
		c0.066,0.985-0.065,1.905-0.132,2.891c-0.065,1.313-0.13,2.495-0.065,3.743c0,0.92,0.132,1.904,0.197,2.692
		c0.066,0.592,0.131,1.183,0.131,1.643v1.313c0,0.919,0,1.839-0.064,2.758c-0.066,1.248-0.132,2.496-0.066,3.612v-0.065l0.131,2.627
		c0,0.525,0.066,0.985,0.066,1.445v1.248c0,3.086,0.46,8.866,0.524,12.019l-1.312-5.058l-0.722-2.102l-1.445-4.597l-1.183-4.795
		l-1.904-6.83c-0.46-1.38-0.986-2.89-1.446-4.27l0.067,0.132l-0.198-0.985c-0.197-0.854-0.394-1.708-0.919-3.021v0.132l-0.459-2.102
		c-0.395-1.117-0.526-1.773-0.658-2.496c0,0-0.393-2.036-2.231-1.707c-0.46,0.065-1.644,0.919-1.708,2.035
		c0,0.263-0.066,0.788-0.066,1.051v1.314l-0.197,7.618c-0.132,0.591,0.066,1.576,0.197,2.43v0.657c0,0.656,0.066,1.313,0.131,1.839
		c0,0.854,0,2.496,0.066,3.81c0.065,1.51,0.132,3.021,0.132,4.203v6.633v1.708c0,0.525,0.065,1.051,0.065,1.642
		c0,0.592-0.065,1.313-0.065,2.102c-0.066,0.985-0.132,2.036-0.066,3.021v-0.065l0.066,3.152v4.335c0,1.773,0.919,1.839,1.904,1.839
		c0.92,0,1.904-0.132,1.971-1.511L235.512,48.395z"/>
	<path fill="none" stroke="#E2DD27" stroke-width="0.657" stroke-miterlimit="10" d="M259.221,47.409
		c0.065-0.854,0.132-1.904,0.132-2.759c0-0.656-0.066-1.247-0.066-1.839c0-0.788-0.065-1.444-0.065-2.102V30.333
		c0-0.919,0-2.299-0.065-3.218c0-1.313-0.066-2.627-0.131-4.138v-0.328c-0.066-0.92-0.066-1.905-0.066-2.824v-2.824l0.066-5.386
		V3.537c0-0.197,0-0.657-0.066-0.92c-0.065-1.904-0.985-1.904-1.905-1.904c-0.853,0-1.903,0.065-1.97,1.839
		c0,2.956-0.065,6.305-0.132,9.326c-0.065,3.021-0.065,5.977-0.065,8.933c0,2.167,0.065,4.729,0.197,6.896l0.131,2.364
		c0.066,1.248,0,2.496,0,3.81v2.036c0,0.788-0.064,1.576-0.064,2.364v10.508c0,1.314,1.248,1.643,2.167,1.708
		c1.182,0.065,1.839-0.131,1.904-2.167V47.409z"/>
	<path fill="none" stroke="#E2DD27" stroke-width="0.657" stroke-miterlimit="10" d="M267.627,27.05v-6.043
		c0-1.182,0-2.299,0.132-3.546l0.328-2.431c0.46-3.875,0.788-7.29,2.627-9.654c0.263-0.328,0.524-0.525,0.853-0.723
		c0.789-0.131,1.511,0.132,1.839,0.723c0.067,0.065,0.329,0.328,0.46,0.46l0.264,0.788h-0.065l0.393,1.248l0.133,0.656l-0.066,0.723
		l0.131,1.576c0.066,1.248,0.724,1.773,2.036,1.708c1.511-0.066,1.905-0.657,1.905-1.773c0-0.525,0-1.183-0.066-1.576l-0.064-1.38
		c-0.46-3.612-1.314-6.698-6.042-7.224c-1.576-0.197-3.153,0.196-4.335,1.51c-0.592,0.723-1.116,1.643-1.643,2.693
		c-0.394,0.591-0.92,1.444-1.051,1.839l-0.263,0.919c-0.395,1.313-0.525,2.496-0.656,3.875c-0.46,2.693-0.723,5.78-0.788,8.473
		v1.051v1.839v0.263c-0.066,0.723-0.132,1.839-0.132,2.562c0,0.657,0.065,1.183,0.065,1.839c0,0.723,0.066,1.379,0.066,2.102
		c0,2.102,0.328,5.78,0.656,7.882c0.065,0.525,0.329,1.313,0.394,1.772l0.264,0.92l0.524,2.955v-0.065
		c0.396,1.576,0.789,2.824,1.379,3.744l-0.064-0.132l0.394,0.525c0.657,0.985,1.248,1.904,2.496,2.627
		c1.05,0.592,1.773,0.525,2.364,0.395h0.263c2.233,0,4.137-1.773,4.992-4.203c1.116-3.087,1.641-4.86,1.707-8.013v-4.335
		c0-2.759-0.066-5.583-0.591-6.896c-0.264-0.328-0.46-0.591-1.184-1.051c-1.379-0.196-2.299-0.131-3.349-0.065h-0.591
		c-0.526,0.065-0.919,0-1.379,0.065c-0.788,0.132-1.314,0.329-1.248,2.036c0.064,1.511,0.46,2.036,1.379,2.102h2.363h0.657v0.065
		v-0.065c0.066,1.117-0.064,4.072-0.132,6.371c-0.065,1.248-0.13,3.021-0.13,3.743c-0.329,2.233-1.379,4.663-1.379,4.663
		c-0.264,0.723-0.92,1.313-1.248,1.511c-0.658,0-0.92-0.263-1.184-0.46c-1.511-1.642-2.299-5.714-2.691-8.604
		c-0.198-0.985-0.396-2.233-0.526-3.48C267.691,30.662,267.627,28.954,267.627,27.05z"/>
	<path fill="none" stroke="#E2DD27" stroke-width="0.657" stroke-miterlimit="10" d="M299.15,2.946
		c-0.064-1.905-0.854-2.102-1.903-2.168c-1.972-0.263-1.839,0.92-2.103,1.511c0.066,1.379,0,2.759,0,3.744v1.182
		c-0.132,3.087-0.263,6.108-0.263,9.129c0,1.773,0,3.941,0.131,5.78v0.196h-1.116c-1.444,0.066-2.823,0.066-4.269,0.066h-1.445
		v-0.329c0.066-1.313,0-1.97-0.064-2.692c-0.067-0.46-0.132-1.511-0.132-2.167l0.196-14.844c-0.196-1.51-1.444-1.576-2.299-1.51
		c-0.853,0.065-1.708,0.263-1.708,2.102l0.067,1.313v0.263c0,0.328-0.067,0.788-0.067,1.445c0,1.838-0.064,4.662-0.13,6.567
		c-0.066,1.707-0.066,3.218-0.066,4.729v7.158c0,1.117,0,2.103-0.065,3.021v5.779c0,1.905,0.065,3.875,0.065,5.451
		c-0.263,3.35-0.263,6.437-0.263,9.852c0.263,1.183,0.395,1.773,2.037,1.773c1.509,0,1.904-0.723,1.904-2.102l0.064-0.985
		l0.066-4.729v-1.511c0.065-4.729,0.262-9.72,0.329-14.515h0.064c0.395,0.066,0.919,0.066,1.445,0.066
		c0.524,0,0.985-0.066,1.577-0.066c0.919,0,2.167-0.065,3.02-0.131h0.724l-0.066,2.299c0.066,0.592,0.066,1.051,0.066,1.511
		c0,0.328,0.064,1.97,0.196,3.678v-0.066c0.066,2.103,0.196,4.467,0.196,6.043v1.97c0,0.854-0.065,1.839-0.065,2.759l-0.064,3.743
		c0,1.183,0.853,1.905,2.036,1.84c0.788-0.066,1.969-0.197,2.036-1.445c0.131-1.051,0.131-2.233,0.131-3.415v-1.905
		c0.064-1.576,0.064-3.35,0.064-4.926c0-0.854-0.131-2.561-0.195-3.94c-0.067-0.591-0.133-1.182-0.133-1.444l-0.196-3.875
		c0-0.788,0-1.643,0.065-4.992c0-0.854,0-1.904-0.065-2.758v0.066c-0.066-1.052-0.066-2.168,0-3.153
		c0-0.657,0.065-1.379,0.065-2.102c0-0.788-0.065-1.38-0.132-2.036v-3.218c0.132-2.628,0.198-5.255,0.263-7.947V2.946z"/>
	<path fill="none" stroke="#E2DD27" stroke-width="0.657" stroke-miterlimit="10" d="M318.198,4.981c1.115,0,1.903,0,1.903-1.642
		c0-1.838-0.788-2.298-2.429-2.298c-0.198,0-0.263,0-0.329-0.066h0.131c-0.722-0.065-3.021-0.131-4.203-0.131
		c-0.854,0-1.97,0-2.759-0.066c-0.46,0-2.167,0-2.889,0.066c-0.526,0.065-1.314,0.065-1.774,0.065h-0.524
		c-1.052,0.328-1.576,0.394-1.643,1.904c-0.065,1.445,0.722,2.167,2.298,2.167l1.644,0.066l2.167-0.066v1.643v10.837
		c0,0.591,0.064,1.313,0.064,1.904v1.642l0.197,2.627c0,0.723,0,1.38,0.066,1.905c0,0.723,0.065,1.38,0,2.036v2.298
		c0,0.592,0,1.445,0.065,2.036c0,0.46,0.066,1.183,0.066,1.576c-0.066,1.511-0.132,3.547-0.066,4.926v2.036
		c0,0.46-0.065,0.985-0.065,1.445c0,0.591,0,1.051,0.065,1.511c0.066,0.591,0.131,1.116,0.066,1.444
		c0,0.197-0.066,0.592-0.066,0.788c0,0.066,0,0.132-0.065,0.329v1.379v1.051c0.132,0.525-0.066,1.116,0.524,1.511
		c0.396,0.264,0.855,0.328,1.248,0.328c1.184-0.064,1.839,0,2.168-0.854c0.395-0.985,0.264-1.839,0.264-2.956V46.03l0.064-4.27
		c0-0.919,0-2.167-0.064-3.021c-0.066-1.051-0.066-2.496-0.066-3.612c0-0.395,0.066-0.985,0.131-1.643
		c0-0.263,0.066-0.656,0.066-0.983c0-1.249-0.066-2.629-0.066-4.008V26.59c0-0.328-0.064-0.788-0.064-1.116
		c0-1.511-0.133-1.643-0.197-2.299c-0.066-0.525-0.132-1.051-0.132-1.511v-1.708c-0.066-1.839-0.066-3.612-0.066-5.451v-1.97
		c0-0.657,0.066-1.313,0.066-2.036l0.065-3.875V4.981C315.438,5.048,316.817,4.981,318.198,4.981z"/>
</g>
</svg>
