<?xml version="1.0" encoding="utf-8"?>
<!-- Generator: Adobe Illustrator 15.1.0, SVG Export Plug-In . SVG Version: 6.00 Build 0)  -->
<!DOCTYPE svg PUBLIC "-//W3C//DTD SVG 1.1//EN" "http://www.w3.org/Graphics/SVG/1.1/DTD/svg11.dtd">
<svg version="1.1" id="Layer_1" xmlns="http://www.w3.org/2000/svg" xmlns:xlink="http://www.w3.org/1999/xlink" x="0px" y="0px"
	 width="494.876px" height="57.477px" viewBox="0 0 494.876 57.477" enable-background="new 0 0 494.876 57.477"
	 xml:space="preserve">
<g>
	<path fill="#E2DD27" d="M3.073,0.364c0.75,0,1.35,0,2.1,0.225c0.675,0.076,1.649,0.45,2.249,0.75c0.3,0.3,3.523,1.199,4.423,2.774
		l-0.075-0.15c1.125,0.975,1.649,1.574,2.399,2.624c1.124,1.874,2.173,4.723,2.623,6.822c0.375,1.499,0.525,3.298,0.525,4.647
		c0,1.575-0.15,3.224-0.3,4.423c-0.3,3.298-1.949,5.847-2.474,6.671c-1.424,2.024-3.073,4.798-7.571,6.222
		c0.075,0.076,0.149,0.226,0.3,0.375c0.374,0.675,0.899,1.2,1.424,1.799c0.449,0.525,0.974,1.125,1.349,1.8l1.274,2.099
		c0.375,0.675,0.674,1.35,1.724,2.849c1.574,2.699,2.399,4.048,2.923,5.247l0.3,0.675c0.524,1.051,1.274,2.699,1.649,4.048
		c0.375,1.35,0.15,1.8-0.974,2.623c-1.575,1.126-2.099,0.076-2.999-0.823c-0.674-1.574-1.499-3.299-1.499-3.299
		c-0.6-1.498-1.799-3.748-2.699-5.397c-0.525-0.899-1.124-1.725-1.574-2.249l-0.899-1.349c-0.525-1.05-0.75-1.425-1.125-1.874
		c-0.075,0-0.299-0.225-0.299-0.3l-0.9-0.975v10.944c0,0.524,0.075,0.824,0.075,1.424c-0.3,2.85-0.15,4.123-2.323,4.123
		c-1.799,0-1.949-0.675-2.249-2.099l0.075-2.474v-1.05c0-0.449-0.075-0.825-0.075-1.424c-0.075-3.373-0.075-9.221-0.075-12.068
		c0-0.899-0.076-1.725-0.076-2.625c0-0.449-0.075-0.899-0.075-1.273C0.15,33.122,0.15,31.774,0.15,30.874
		c0-0.3-0.075-0.524-0.075-0.825v-0.599C0,28.475,0,27.35,0,26.525c0-1.124,0-2.548,0.15-4.048v-1.35
		c0-1.124,0.075-2.249,0.15-3.373c0-1.649,0.076-3.599,0.076-5.322v-0.825c0-0.3,0.075-0.6,0.075-0.9v-1.35L0.3,7.41
		c0-0.75,0-1.874,0-2.699V2.613C0.3,0.963,2.024,0.364,3.073,0.364z M4.723,5.086l0.225,6.896l-0.225,10.87c0,0.299,0,0.6,0,0.824
		c0,0.375-0.075,0.675-0.075,0.975v3.373c0,0.225,0.075,1.274,0.075,2.399c0,0.225,0.075,0.523,0.075,0.674
		c2.774-0.524,4.348-2.324,5.922-4.422c0.825-1.274,1.199-2.249,1.35-3.224c0.075-0.375,0.149-0.975,0.3-1.649
		c0-0.599,0.075-1.049,0.149-1.574l0.226-2.398c-0.075-4.499-1.799-7.647-1.799-7.647l-0.899-1.199
		C8.846,7.186,6.897,5.836,4.723,5.086z"/>
	<path fill="#E2DD27" d="M31.86,56.96c-1.049-0.076-2.023,0-2.923,0.074c-1.424,0.075-2.474,0.226-3.748-0.074h-0.375
		c-1.574-0.3-1.649-0.825-1.874-2.25c-0.15-1.048-0.225-2.772-0.075-3.747v-0.301l-0.15-6.071c-0.075-1.649-0.075-3.674,0-4.724
		c0-0.448,0.075-1.273,0.075-2.023c0-0.374-0.075-0.898-0.075-1.499c-0.075-1.049-0.075-2.773,0-3.598
		c0-2.174-0.075-4.723-0.075-7.046v-5.847c-0.15-2.548-0.15-5.322-0.15-7.722c0-1.199-0.075-2.473-0.075-3.822
		c0-2.099,0-4.123,0.6-6.522c0.599-0.825,0.899-1.2,1.874-1.274c0.825-0.075,2.024-0.15,2.924-0.15c1.424,0,2.998,0.075,4.497,0.15
		c1.349,0.075,2.624,0.075,3.898,0.15c1.724,0.15,2.624,0.449,2.624,2.548c0,1.874-0.674,1.799-2.174,2.099l-6.972-0.3l-2.249,0.149
		c0,1.275-0.15,2.324-0.225,3.523c-0.075,0.9-0.15,1.649-0.15,2.624c0,0.224-0.075,0.45-0.075,0.674v0.45
		c0.225,4.048,0.375,9.145,0.45,13.193c1.274,0,2.624,0,3.898-0.075c1.349,0,2.548-0.075,3.073-0.075
		c1.274,0,1.874,0.975,1.874,2.099c0,2.024-0.45,2.099-1.499,2.249c-0.975,0-3.598,0.224-4.647,0.15l-2.624,0.299v1.65
		c0,1.723,0,3.598-0.075,4.723v0.749c0,1.274-0.075,2.1-0.075,2.624c-0.075,0.6-0.075,1.049-0.075,2.174v0.3
		c0.15,2.474,0.15,5.098,0.15,6.896c0,0.824,0,2.024-0.075,2.773v0.075c2.474,0,5.097,0.075,7.646,0.075l1.649-0.075h0.225
		c1.2,0,2.249,0.3,2.324,1.874c0.075,1.274,0.15,2.398-1.574,2.474C36.507,56.811,33.059,57.035,31.86,56.96z"/>
	<path fill="#E2DD27" d="M49.327,53.212c0.075,0.074,0.075,0.225,0.075,0.225c0.15,0.525,0.15,0.975,0.15,1.499
		c-0.075,1.199-0.75,1.35-1.574,2.024c0,0-0.899,0.074-1.274,0.074h-0.6c-0.974-0.449-1.574-0.824-2.099-2.248
		c0,0,0.825-3.074,2.474-3.224C48.202,51.337,49.252,52.012,49.327,53.212z M46.029,37.169c-0.6,0-1.125-0.299-1.35-0.898
		c-0.3-0.226-0.449-0.6-0.6-1.05c0,0,0-2.623,1.575-3.298l-0.075,0.074c1.124-0.675,2.698,0.076,3.373,0.899l0.375,0.376
		c0.6,0.898,0.299,1.048,0.225,1.648c-0.075,1.05-0.524,1.424-1.424,1.949c-1.049,0.6-1.049,0.299-1.499,0.299h-0.525H46.029z"/>
	<path fill="#E2DD27" d="M59.072,54.787c-0.075,2.323-0.824,2.549-2.174,2.474c-1.049-0.074-2.474-0.449-2.474-1.949V43.317
		c0-0.899,0.076-1.799,0.076-2.698v-2.323c0-1.5,0.075-2.925,0-4.349l-0.15-2.698c-0.15-2.474-0.225-5.398-0.225-7.871
		c0-3.374,0-6.747,0.075-10.195c0.075-3.449,0.15-7.271,0.15-10.645c0.075-2.024,1.274-2.099,2.249-2.099
		c1.049,0,2.099,0,2.174,2.174c0.075,0.3,0.075,0.825,0.075,1.049v9.22l-0.075,6.147v3.223c0,1.05,0,2.174,0.075,3.224v0.375
		c0.075,1.725,0.149,3.224,0.149,4.723c0.075,1.049,0.075,2.624,0.075,3.674V46.09c0,0.75,0.075,1.5,0.075,2.398
		c0,0.675,0.075,1.351,0.075,2.1c0,0.975-0.075,2.174-0.15,3.148V54.787z"/>
	<path fill="#E2DD27" d="M81.486,41.443c0,0-0.375,2.249-2.324,2.249c-2.024,0-2.399-0.899-2.999-3.299l-0.225-1.123l-0.149-0.751
		l-0.226-0.975c0,0-0.299-0.674-0.6-1.273c-0.225-0.9-0.599-1.499-0.675-2.625l-0.524-1.948L72.49,28.1l-1.424-5.848l-0.3-1.274
		l-0.75-3.748l-0.3,10.719l-0.226,6.521c0,1.2-0.075,2.399-0.075,3.373c0,1.426,0,2.774,0,3.448c0,1.351-0.075,2.699-0.075,3.974
		c0,1.425,0,2.924-0.075,4.272c0,1.35-0.15,3.374-0.15,4.798c0,1.349-0.45,2.773-2.174,2.698c-1.2-0.074-2.474,0-2.474-2.324v-0.823
		c0-0.075,0.075-0.225,0.075-0.376v-3.747c-0.075-1.425-0.15-3.522,0-4.947l0.225-2.774c0.225-2.248,0.3-4.422,0.3-6.521
		c0-1.35,0-2.698,0-4.122v-6.448c0-0.45,0-1.124,0-1.648c0.075-0.45,0.149-0.975,0.149-1.125v-2.699c0-0.824,0-2.024,0.075-2.773
		c0-0.225,0.151-1.649,0.226-2.324c0.15-0.975,0.225-1.874,0.225-2.699c0-1.125,0-2.249,0.075-3.598
		c0.075-0.975,0.225-2.399,0.225-3.223c0-0.9,0.075-1.2,0.075-1.575c0.075-0.299,0.15-0.599,0.15-0.674
		c0.15-0.45,0.449-1.125,0.675-1.274c1.124-1.649,3.148-1.574,3.748,0.599l0.45,0.9l0.899,3.448c0.45,0.974,0.674,2.398,0.975,3.448
		l0.225,0.975l2.249,10.419l0.225,0.75l0.225,1.049l0.075,0.375l1.05,4.198l1.574,4.573l0.6-2.399l1.349-5.323
		c0.075-0.675,0.375-1.799,0.449-2.549l0.375-1.874l2.774-11.469v-0.6l0.375-1.199c0.225-1.125,0.3-2.099,1.274-4.198
		c0-0.375,0.075-0.824,0.075-0.975l0.975-0.975c2.174-0.899,2.849,0.45,3.374,2.773c0.375,3.374,0.6,5.698,0.6,8.921l0.075,3.598
		c0.075,2.024,0.3,4.048,0.45,5.997c0.15,2.174,0.3,5.248,0.375,7.421v3.073c0.075,0.301,0.149,0.9,0.225,1.05l0.225,3.147
		l0.075,1.425l0.15,2.474l0.6,9.146c0.225,1.124,0.375,2.399,0.3,3.674v0.75c0,0.374,0.075,0.974,0.075,1.124
		c-0.224,1.648-1.199,1.874-2.173,1.874c-1.274,0-2.324,0-2.549-2.174l-0.15-3.148c0-0.45-0.075-0.899-0.075-1.2
		c0-0.449,0-0.899-0.075-1.424c-0.15-1.274-0.225-2.772-0.3-3.973v0.15c-0.225-2.25-0.3-4.573-0.375-6.973l-0.075-3.148
		l-0.075-0.374v-0.449c-0.225-2.024-0.375-4.273-0.525-6.298c-0.075-1.349-0.15-3.448-0.225-4.873
		c-0.149-1.274-0.3-2.699-0.375-4.272c-0.225,0.974-0.449,1.949-0.6,2.848l-2.024,8.771l-0.3,1.424l-1.274,6.671
		c-0.15,0.751-0.674,2.324-0.825,3.149L81.486,41.443z"/>
	<path fill="#E2DD27" d="M113.721,16.331c0.075,0.975,0.225,2.024,0.375,3.374v-0.075l0.899,4.422l0.675,5.397v-0.075
		c0.375,1.874,0.824,3.823,1.2,5.771l0.299,2.175l0.899,4.197l0.75,4.498c0.675,3.447,1.125,6.071,1.274,7.796
		c0.075,0.15,0.075,0.524,0.075,0.749c0.076,1.05,0.076,1.124-0.599,1.725c-0.3,0.375-0.975,0.525-1.575,0.525
		c-0.449,0-1.574,0.675-2.249-1.425l-1.05-4.873l-0.749-5.472l-0.375-2.023c-0.225-0.375-0.225-0.601-0.225-0.9l-0.975-5.322
		l-0.299-1.725c-1.274,0.075-2.474,0.15-3.673,0.15c-0.6,0-1.124,0.075-1.799,0.075c-0.75,0.074-0.226,0.074-1.2,0.074l-0.225,1.5
		l-0.675,3.148l-0.225,1.574c-0.15,0.899-0.225,1.799-0.449,2.548c0,0.3-0.076,0.75-0.076,0.975l-0.225,1.126l-0.525,3.072
		c-0.15,1.199-0.3,2.174-0.3,2.249l-0.224,1.499v0.375c-0.375,2.849-0.301,3.447-2.475,3.523c-1.724,0.074-2.173-0.825-2.173-2.323
		c0-0.301,0-0.9,0.075-1.425c0.375-3.749,0.825-6.821,1.799-10.795l-0.075,0.149l0.3-3.223l0.825-3.673l-0.075,0.074l0.224-2.473
		c0.15-1.199,0.3-2.624,0.525-3.898c0.3-1.874,0.675-3.823,0.975-5.698l0.825-5.022c0.524-2.399,0.825-2.549,0.825-3.973l0.3-2.249
		v0.075c0.075-0.45,0.3-1.05,0.375-1.499l0.45-2.549c0.15-0.749,0.225-1.574,0.599-3.073c0.075-1.724,0.45-4.647,2.474-5.322
		c0.899-0.225,2.773,0,3.148,2.999c0.15,0.975,0.3,1.724,0.3,1.724l1.424,7.871C113.346,13.932,113.571,15.207,113.721,16.331z
		 M110.423,25.476l-0.149-1.125c-0.3-1.424-0.225-2.923-0.45-4.348c-0.15-1.724-1.199-7.271-1.199-7.196l-1.274,8.845v-0.149
		c-0.15,1.874-0.45,3.673-0.825,5.697L106,30.798h0.899c0.825,0,1.649-0.075,2.624-0.149c0.6,0,1.2-0.075,1.799-0.15L110.423,25.476
		z"/>
	<path fill="#E2DD27" d="M129.165,37.919c0.149,1.425,0.375,2.849,0.599,3.974c0.45,3.299,1.349,7.946,3.074,9.819
		c0.299,0.226,0.6,0.525,1.349,0.525c0.375-0.226,1.125-0.9,1.424-1.725c0,0,1.199-2.773,1.574-5.321c0-0.825,0.075-2.85,0.15-4.274
		c0.075-2.622,0.225-5.996,0.15-7.271v0.076v-0.076h-0.75h-2.699c-1.05-0.074-1.5-0.674-1.575-2.397
		c-0.075-1.949,0.525-2.174,1.424-2.324c0.525-0.075,0.975,0,1.575-0.075h0.675c1.199-0.075,2.249-0.15,3.823,0.075
		c0.825,0.525,1.05,0.825,1.349,1.199c0.6,1.499,0.675,4.723,0.675,7.872c0,1.799,0,3.747,0,4.946
		c-0.075,3.599-0.675,5.623-1.949,9.146c-0.975,2.773-3.148,4.797-5.697,4.797h-0.3c-0.674,0.15-1.5,0.226-2.698-0.449
		c-1.424-0.824-2.099-1.874-2.849-2.998l-0.45-0.601l0.075,0.15c-0.675-1.049-1.125-2.474-1.574-4.272v0.074l-0.6-3.373l-0.3-1.049
		c-0.075-0.524-0.375-1.425-0.45-2.024c-0.375-2.398-0.749-6.597-0.749-8.995c0-0.825-0.076-1.573-0.076-2.399
		c0-0.749-0.075-1.349-0.075-2.098c0-0.825,0.075-2.099,0.151-2.924v-0.299c0-0.6,0-1.424,0-2.1v-1.199
		c0.075-3.073,0.374-6.597,0.899-9.67c0.15-1.574,0.3-2.924,0.75-4.422l0.3-1.05c0.15-0.45,0.75-1.424,1.199-2.099
		c0.6-1.199,1.2-2.249,1.875-3.073c1.349-1.5,3.148-1.949,4.947-1.724c5.397,0.6,6.372,4.123,6.896,8.246l0.075,1.574
		c0.076,0.45,0.076,1.2,0.076,1.799c0,1.274-0.45,1.949-2.174,2.023c-1.499,0.075-2.249-0.524-2.323-1.949l-0.15-1.799l0.075-0.825
		l-0.15-0.749l-0.45-1.424h0.075l-0.3-0.899c-0.15-0.15-0.45-0.45-0.524-0.525c-0.375-0.675-1.2-0.975-2.099-0.825
		c-0.375,0.225-0.674,0.45-0.975,0.825c-2.099,2.698-2.473,6.597-2.998,11.019l-0.375,2.774c-0.15,1.424-0.15,2.698-0.15,4.048
		v6.896C128.939,32.672,129.015,34.623,129.165,37.919z"/>
	<path fill="#E2DD27" d="M152.554,54.787c-0.075,2.323-0.825,2.549-2.174,2.474c-1.049-0.074-2.473-0.449-2.473-1.949V43.317
		c0-0.899,0.075-1.799,0.075-2.698v-2.323c0-1.5,0.075-2.925,0-4.349l-0.149-2.698c-0.15-2.474-0.226-5.398-0.226-7.871
		c0-3.374,0-6.747,0.075-10.195c0.075-3.449,0.15-7.271,0.15-10.645c0.075-2.024,1.274-2.099,2.249-2.099
		c1.049,0,2.099,0,2.173,2.174c0.075,0.3,0.075,0.825,0.075,1.049v9.22l-0.075,6.147v3.223c0,1.05,0,2.174,0.075,3.224v0.375
		c0.075,1.725,0.15,3.224,0.15,4.723c0.075,1.049,0.075,2.624,0.075,3.674V46.09c0,0.75,0.075,1.5,0.075,2.398
		c0,0.675,0.075,1.351,0.075,2.1c0,0.975-0.075,2.174-0.15,3.148V54.787z"/>
	<path fill="#E2DD27" d="M163.272,55.162c-0.075,1.573-1.199,1.723-2.249,1.723c-1.125,0-2.173-0.073-2.173-2.098v-4.947
		l-0.075-3.598v0.073c-0.075-1.123,0-2.323,0.075-3.447c0-0.899,0.075-1.725,0.075-2.398c0-0.675-0.075-1.275-0.075-1.875v-1.948
		c0-2.398,0-5.622,0-7.572c0-1.35-0.075-3.073-0.15-4.797c-0.075-1.499-0.075-3.374-0.075-4.348c-0.075-0.6-0.15-1.349-0.15-2.098
		v-0.75c-0.149-0.975-0.375-2.099-0.225-2.773l0.225-8.696V4.112c0-0.3,0.075-0.9,0.075-1.2c0.075-1.274,1.425-2.249,1.949-2.324
		c2.099-0.374,2.549,1.949,2.549,1.949c0.149,0.824,0.299,1.575,0.75,2.849l0.525,2.399v-0.15c0.6,1.499,0.824,2.474,1.049,3.448
		l0.225,1.125l-0.075-0.15c0.524,1.575,1.125,3.298,1.649,4.873l2.173,7.796l1.35,5.472l1.649,5.248l0.825,2.397l1.499,5.772
		c-0.075-3.598-0.6-10.194-0.6-13.717v-1.425c0-0.525-0.075-1.049-0.075-1.649l-0.15-2.999v0.075c-0.075-1.274,0-2.698,0.075-4.123
		c0.075-1.049,0.075-2.099,0.075-3.148v-1.5c0-0.524-0.075-1.2-0.15-1.874c-0.075-0.899-0.225-2.024-0.225-3.074
		c-0.075-1.424,0-2.773,0.075-4.272c0.075-1.125,0.225-2.174,0.15-3.298c-0.075-2.024,1.049-2.549,2.174-2.398
		c0.825,0.075,1.949,0.149,2.099,2.024l0.149,5.022c0,0.75,0.075,1.574,0.075,2.324c0.075,1.499,0.15,3.373,0.15,4.873v2.624
		l0.075,4.948l0.15,10.794l0.149,7.421c0,0.524-0.075,0.975-0.075,1.574v4.873c0,0.824,0.075,1.725,0.075,2.473v1.499
		c0,1.5,0.075,3.3-0.149,4.648c-0.075,0.675-0.525,1.649-2.474,1.649c-1.424,0-1.724-1.199-2.024-2.174c0,0-0.075-0.149-0.075-0.226
		l-0.45-0.974l-0.975-2.474l-0.45-1.65l-0.299-1.648c-0.15-0.375-0.45-0.824-0.525-1.124c-0.075-0.15-0.3-0.449-0.45-0.9
		c-0.15-0.449-0.45-1.274-0.75-2.174l-0.45-1.724v0.075l-3.148-8.771l-0.225-1.051l-0.525-2.023v0.075
		c-0.375-1.125-0.524-2.099-0.674-2.924l-0.45-2.174c-0.3-1.049-0.6-1.874-0.975-2.923l-0.3-1.574l-0.6-2.399
		c0,0.45,0.075,1.425,0.075,1.949c0.075,0.825,0.224,2.773,0.224,3.598c0,0.525,0.075,1.199,0.15,1.875
		c0,0.375,0.076,0.749,0.076,1.049c0.075,1.199,0,2.848-0.076,3.973v11.244c0,0.449-0.075,0.975-0.075,1.424v1.5l0.075,2.923
		c0,0.525-0.075,0.899-0.075,1.424v2.024c0.075,1.199,0.075,2.475,0.075,3.673L163.272,55.162z"/>
	<path fill="#E2DD27" d="M193.709,56.96c-1.049-0.076-2.023,0-2.923,0.074c-1.424,0.075-2.474,0.226-3.748-0.074h-0.375
		c-1.574-0.3-1.649-0.825-1.874-2.25c-0.15-1.048-0.226-2.772-0.075-3.747v-0.301l-0.15-6.071c-0.075-1.649-0.075-3.674,0-4.724
		c0-0.448,0.076-1.273,0.076-2.023c0-0.374-0.076-0.898-0.076-1.499c-0.075-1.049-0.075-2.773,0-3.598
		c0-2.174-0.075-4.723-0.075-7.046v-5.847c-0.15-2.548-0.15-5.322-0.15-7.722c0-1.199-0.075-2.473-0.075-3.822
		c0-2.099,0-4.123,0.6-6.522c0.6-0.825,0.899-1.2,1.874-1.274c0.825-0.075,2.024-0.15,2.923-0.15c1.424,0,2.999,0.075,4.498,0.15
		c1.349,0.075,2.624,0.075,3.898,0.15c1.724,0.15,2.624,0.449,2.624,2.548c0,1.874-0.674,1.799-2.174,2.099l-6.971-0.3l-2.249,0.149
		c0,1.275-0.15,2.324-0.225,3.523c-0.075,0.9-0.15,1.649-0.15,2.624c0,0.224-0.075,0.45-0.075,0.674v0.45
		c0.225,4.048,0.375,9.145,0.45,13.193c1.274,0,2.623,0,3.898-0.075c1.349,0,2.549-0.075,3.073-0.075
		c1.274,0,1.874,0.975,1.874,2.099c0,2.024-0.449,2.099-1.499,2.249c-0.975,0-3.598,0.224-4.648,0.15l-2.624,0.299v1.65
		c0,1.723,0,3.598-0.075,4.723v0.749c0,1.274-0.075,2.1-0.075,2.624c-0.075,0.6-0.075,1.049-0.075,2.174v0.3
		c0.15,2.474,0.15,5.098,0.15,6.896c0,0.824,0,2.024-0.075,2.773v0.075c2.474,0,5.098,0.075,7.646,0.075l1.649-0.075h0.225
		c1.2,0,2.249,0.3,2.324,1.874c0.075,1.274,0.15,2.398-1.574,2.474C198.357,56.811,194.909,57.035,193.709,56.96z"/>
	<path fill="#E2DD27" d="M227.894,37.919c0.149,1.425,0.375,2.849,0.6,3.974c0.449,3.299,1.349,7.946,3.073,9.819
		c0.3,0.226,0.6,0.525,1.349,0.525c0.375-0.226,1.125-0.9,1.424-1.725c0,0,1.2-2.773,1.574-5.321c0-0.825,0.075-2.85,0.15-4.274
		c0.075-2.622,0.225-5.996,0.149-7.271v0.076v-0.076h-0.749h-2.699c-1.05-0.074-1.5-0.674-1.575-2.397
		c-0.075-1.949,0.525-2.174,1.425-2.324c0.525-0.075,0.975,0,1.574-0.075h0.675c1.2-0.075,2.249-0.15,3.823,0.075
		c0.825,0.525,1.05,0.825,1.349,1.199c0.6,1.499,0.675,4.723,0.675,7.872c0,1.799,0,3.747,0,4.946
		c-0.075,3.599-0.675,5.623-1.949,9.146c-0.975,2.773-3.148,4.797-5.697,4.797h-0.299c-0.675,0.15-1.5,0.226-2.699-0.449
		c-1.424-0.824-2.099-1.874-2.849-2.998l-0.45-0.601l0.075,0.15c-0.675-1.049-1.125-2.474-1.574-4.272v0.074l-0.6-3.373l-0.3-1.049
		c-0.075-0.524-0.375-1.425-0.449-2.024c-0.375-2.398-0.75-6.597-0.75-8.995c0-0.825-0.075-1.573-0.075-2.399
		c0-0.749-0.076-1.349-0.076-2.098c0-0.825,0.076-2.099,0.15-2.924v-0.299c0-0.6,0-1.424,0-2.1v-1.199
		c0.075-3.073,0.375-6.597,0.899-9.67c0.149-1.574,0.299-2.924,0.75-4.422l0.3-1.05c0.15-0.45,0.75-1.424,1.199-2.099
		c0.6-1.199,1.199-2.249,1.874-3.073c1.35-1.5,3.149-1.949,4.948-1.724c5.397,0.6,6.372,4.123,6.896,8.246l0.075,1.574
		c0.075,0.45,0.075,1.2,0.075,1.799c0,1.274-0.45,1.949-2.174,2.023c-1.499,0.075-2.249-0.524-2.323-1.949l-0.15-1.799l0.075-0.825
		l-0.149-0.749l-0.45-1.424h0.075l-0.3-0.899c-0.15-0.15-0.45-0.45-0.524-0.525c-0.375-0.675-1.2-0.975-2.099-0.825
		c-0.375,0.225-0.674,0.45-0.975,0.825c-2.098,2.698-2.473,6.597-2.998,11.019l-0.375,2.774c-0.15,1.424-0.15,2.698-0.15,4.048
		v6.896C227.669,32.672,227.744,34.623,227.894,37.919z"/>
	<path fill="#E2DD27" d="M259.904,16.331c0.074,0.975,0.225,2.024,0.374,3.374v-0.075l0.9,4.422l0.674,5.397v-0.075
		c0.375,1.874,0.824,3.823,1.199,5.771l0.301,2.175l0.899,4.197L265,46.016c0.675,3.447,1.125,6.071,1.274,7.796
		c0.075,0.15,0.075,0.524,0.075,0.749c0.075,1.05,0.075,1.124-0.6,1.725c-0.3,0.375-0.974,0.525-1.574,0.525
		c-0.449,0-1.574,0.675-2.248-1.425l-1.05-4.873l-0.75-5.472l-0.374-2.023c-0.226-0.375-0.226-0.601-0.226-0.9l-0.975-5.322
		l-0.301-1.725c-1.273,0.075-2.473,0.15-3.672,0.15c-0.6,0-1.125,0.075-1.799,0.075c-0.751,0.074-0.226,0.074-1.2,0.074l-0.225,1.5
		l-0.676,3.148l-0.224,1.574c-0.149,0.899-0.226,1.799-0.45,2.548c0,0.3-0.074,0.75-0.074,0.975l-0.226,1.126l-0.524,3.072
		c-0.15,1.199-0.3,2.174-0.3,2.249l-0.226,1.499v0.375c-0.375,2.849-0.299,3.447-2.473,3.523c-1.724,0.074-2.174-0.825-2.174-2.323
		c0-0.301,0-0.9,0.075-1.425c0.375-3.749,0.824-6.821,1.799-10.795l-0.075,0.149l0.3-3.223l0.825-3.673l-0.075,0.074l0.225-2.473
		c0.15-1.199,0.3-2.624,0.525-3.898c0.3-1.874,0.674-3.823,0.975-5.698l0.824-5.022c0.525-2.399,0.824-2.549,0.824-3.973l0.3-2.249
		v0.075c0.075-0.45,0.301-1.05,0.375-1.499l0.45-2.549c0.15-0.749,0.225-1.574,0.6-3.073c0.074-1.724,0.45-4.647,2.474-5.322
		c0.899-0.225,2.774,0,3.148,2.999c0.15,0.975,0.3,1.724,0.3,1.724l1.424,7.871C259.529,13.932,259.754,15.207,259.904,16.331z
		 M256.605,25.476l-0.15-1.125c-0.299-1.424-0.224-2.923-0.448-4.348c-0.15-1.724-1.2-7.271-1.2-7.196l-1.274,8.845v-0.149
		c-0.15,1.874-0.45,3.673-0.825,5.697l-0.523,3.598h0.898c0.824,0,1.649-0.075,2.624-0.149c0.6,0,1.199-0.075,1.799-0.15
		L256.605,25.476z"/>
	<path fill="#E2DD27" d="M273.323,0.364c0.75,0,1.35,0,2.1,0.225c0.674,0.076,1.649,0.45,2.248,0.75
		c0.3,0.3,3.523,1.199,4.423,2.774l-0.075-0.15c1.125,0.975,1.65,1.574,2.399,2.624c1.123,1.874,2.174,4.723,2.623,6.822
		c0.375,1.499,0.524,3.298,0.524,4.647c0,1.575-0.149,3.224-0.299,4.423c-0.301,3.298-1.949,5.847-2.474,6.671
		c-1.425,2.024-3.074,4.798-7.571,6.222c0.074,0.076,0.149,0.226,0.299,0.375c0.376,0.675,0.9,1.2,1.425,1.799
		c0.45,0.525,0.975,1.125,1.351,1.8l1.273,2.099c0.375,0.675,0.675,1.35,1.724,2.849c1.574,2.699,2.399,4.048,2.924,5.247l0.3,0.675
		c0.524,1.051,1.274,2.699,1.649,4.048c0.375,1.35,0.149,1.8-0.975,2.623c-1.574,1.126-2.099,0.076-2.999-0.823
		c-0.675-1.574-1.499-3.299-1.499-3.299c-0.6-1.498-1.799-3.748-2.699-5.397c-0.524-0.899-1.123-1.725-1.573-2.249l-0.9-1.349
		c-0.524-1.05-0.75-1.425-1.123-1.874c-0.076,0-0.301-0.225-0.301-0.3l-0.899-0.975v10.944c0,0.524,0.075,0.824,0.075,1.424
		c-0.301,2.85-0.15,4.123-2.324,4.123c-1.799,0-1.948-0.675-2.248-2.099l0.074-2.474v-1.05c0-0.449-0.074-0.825-0.074-1.424
		c-0.075-3.373-0.075-9.221-0.075-12.068c0-0.899-0.076-1.725-0.076-2.625c0-0.449-0.074-0.899-0.074-1.273
		c-0.075-0.976-0.075-2.323-0.075-3.224c0-0.3-0.075-0.524-0.075-0.825v-0.599c-0.074-0.975-0.074-2.099-0.074-2.924
		c0-1.124,0-2.548,0.149-4.048v-1.35c0-1.124,0.075-2.249,0.149-3.373c0-1.649,0.076-3.599,0.076-5.322v-0.825
		c0-0.3,0.075-0.6,0.075-0.9v-1.35l-0.151-1.949c0-0.75,0-1.874,0-2.699V2.613C270.548,0.963,272.273,0.364,273.323,0.364z
		 M274.971,5.086l0.226,6.896l-0.226,10.87c0,0.299,0,0.6,0,0.824c0,0.375-0.074,0.675-0.074,0.975v3.373
		c0,0.225,0.074,1.274,0.074,2.399c0,0.225,0.076,0.523,0.076,0.674c2.773-0.524,4.348-2.324,5.922-4.422
		c0.824-1.274,1.198-2.249,1.35-3.224c0.074-0.375,0.149-0.975,0.3-1.649c0-0.599,0.074-1.049,0.149-1.574l0.226-2.398
		c-0.076-4.499-1.8-7.647-1.8-7.647l-0.898-1.199C279.095,7.186,277.145,5.836,274.971,5.086z"/>
	<path fill="#E2DD27" d="M296.712,0.439l1.425,0.6c3.972,1.724,7.495,4.723,9.22,8.171c0.3,0.899,1.424,2.024,2.024,3.673
		c1.799,5.397,2.247,10.345,2.323,15.967c0,0.899,0.226,1.724,0.226,3.224c0,6.82-0.9,15.366-6.072,20.014l-0.375,0.525l-1.05,0.898
		c-1.574,1.5-3.224,2.1-4.798,2.849l-1.274,0.601l-0.899,0.226l-1.724,0.224c-0.824,0.076-1.574,0.149-1.8-0.149
		c-0.374-0.525-0.3-2.474-0.3-2.474l-0.149-2.323c0-2.025,0.075-4.273,0.075-6.222c0-0.9,0-1.875-0.075-2.775v0.076
		c0-2.475-0.225-4.723-0.225-7.347c0-0.45,0.074-0.825,0.074-1.2c0-2.397-0.299-5.096-0.299-7.495c0-0.375,0.074-0.75,0.074-1.2
		c0-0.3-0.074-0.6-0.074-0.899c0-1.725,0.074-3.224,0.074-5.098v-3.598c0-2.849,0.15-5.847,0.15-8.621
		c0-1.199-0.15-2.324-0.15-3.898c0-0.825-0.45-2.849,0.225-3.748c0.3-0.45,1.05-0.225,1.949-0.225L296.712,0.439z M297.762,30.798
		c0,4.498-0.076,9.82,0.299,14.394l0.226,3.748c0,0.974-0.149,1.723-0.149,2.922l1.349-0.674h-0.075l1.05-0.6
		c1.724-0.974,1.05-0.299,4.573-5.547v0.074c0.674-1.349,1.048-3.598,1.499-6.071l0.224-1.2V37.47c0-2.773,0.301-5.323,0.301-8.171
		v-1.5c0.074-0.45,0.074-0.974,0.074-1.424c0-1.724-0.3-3.298-0.524-5.322l-0.15-1.349v0.225c-0.073-1.424-0.524-2.548-0.899-3.748
		l-0.149-0.899l-0.374-1.125c-0.824-1.799-1.874-3.673-3.449-5.097l-0.449-0.45c-0.675-0.525-1.425-0.975-2.099-1.5l-1.125-0.824
		c0,2.024-0.149,6.147-0.375,8.995c0,2.024,0,4.048,0.149,5.997c-0.074,0.375-0.074,0.825-0.074,1.199
		c0,1.274,0.15,2.474,0.15,3.673V30.798z"/>
	<path fill="#E2DD27" d="M325.574,56.96c-1.05-0.076-2.024,0-2.924,0.074c-1.425,0.075-2.474,0.226-3.749-0.074h-0.374
		c-1.574-0.3-1.649-0.825-1.874-2.25c-0.15-1.048-0.225-2.772-0.075-3.747v-0.301l-0.149-6.071c-0.075-1.649-0.075-3.674,0-4.724
		c0-0.448,0.074-1.273,0.074-2.023c0-0.374-0.074-0.898-0.074-1.499c-0.075-1.049-0.075-2.773,0-3.598
		c0-2.174-0.075-4.723-0.075-7.046v-5.847c-0.15-2.548-0.15-5.322-0.15-7.722c0-1.199-0.074-2.473-0.074-3.822
		c0-2.099,0-4.123,0.6-6.522c0.6-0.825,0.899-1.2,1.874-1.274c0.824-0.075,2.023-0.15,2.924-0.15c1.424,0,2.998,0.075,4.497,0.15
		c1.35,0.075,2.623,0.075,3.898,0.15c1.724,0.15,2.623,0.449,2.623,2.548c0,1.874-0.675,1.799-2.174,2.099l-6.972-0.3l-2.248,0.149
		c0,1.275-0.149,2.324-0.226,3.523c-0.074,0.9-0.149,1.649-0.149,2.624c0,0.224-0.075,0.45-0.075,0.674v0.45
		c0.225,4.048,0.374,9.145,0.45,13.193c1.274,0,2.623,0,3.897-0.075c1.35,0,2.55-0.075,3.073-0.075c1.275,0,1.874,0.975,1.874,2.099
		c0,2.024-0.449,2.099-1.499,2.249c-0.975,0-3.598,0.224-4.647,0.15l-2.624,0.299v1.65c0,1.723,0,3.598-0.074,4.723v0.749
		c0,1.274-0.076,2.1-0.076,2.624c-0.073,0.6-0.073,1.049-0.073,2.174v0.3c0.149,2.474,0.149,5.098,0.149,6.896
		c0,0.824,0,2.024-0.076,2.773v0.075c2.475,0,5.099,0.075,7.647,0.075l1.648-0.075h0.226c1.199,0,2.248,0.3,2.323,1.874
		c0.075,1.274,0.149,2.398-1.574,2.474C330.22,56.811,326.772,57.035,325.574,56.96z"/>
	<path fill="#E2DD27" d="M342.965,55.162c-0.075,1.573-1.2,1.723-2.249,1.723c-1.125,0-2.174-0.073-2.174-2.098v-4.947l-0.075-3.598
		v0.073c-0.075-1.123,0-2.323,0.075-3.447c0-0.899,0.075-1.725,0.075-2.398c0-0.675-0.075-1.275-0.075-1.875v-1.948
		c0-2.398,0-5.622,0-7.572c0-1.35-0.075-3.073-0.15-4.797c-0.074-1.499-0.074-3.374-0.074-4.348c-0.076-0.6-0.15-1.349-0.15-2.098
		v-0.75c-0.149-0.975-0.374-2.099-0.225-2.773l0.225-8.696V4.112c0-0.3,0.074-0.9,0.074-1.2c0.076-1.274,1.425-2.249,1.95-2.324
		c2.099-0.374,2.549,1.949,2.549,1.949c0.149,0.824,0.299,1.575,0.749,2.849l0.524,2.399v-0.15c0.6,1.499,0.824,2.474,1.05,3.448
		l0.225,1.125l-0.075-0.15c0.525,1.575,1.125,3.298,1.649,4.873l2.174,7.796l1.35,5.472l1.648,5.248l0.825,2.397l1.5,5.772
		c-0.075-3.598-0.601-10.194-0.601-13.717v-1.425c0-0.525-0.074-1.049-0.074-1.649l-0.149-2.999v0.075
		c-0.076-1.274,0-2.698,0.073-4.123c0.076-1.049,0.076-2.099,0.076-3.148v-1.5c0-0.524-0.076-1.2-0.149-1.874
		c-0.076-0.899-0.226-2.024-0.226-3.074c-0.075-1.424,0-2.773,0.074-4.272c0.075-1.125,0.225-2.174,0.151-3.298
		c-0.076-2.024,1.049-2.549,2.174-2.398c0.824,0.075,1.948,0.149,2.099,2.024l0.149,5.022c0,0.75,0.075,1.574,0.075,2.324
		c0.074,1.499,0.15,3.373,0.15,4.873v2.624l0.073,4.948l0.151,10.794l0.15,7.421c0,0.524-0.076,0.975-0.076,1.574v4.873
		c0,0.824,0.076,1.725,0.076,2.473v1.499c0,1.5,0.073,3.3-0.15,4.648c-0.075,0.675-0.525,1.649-2.475,1.649
		c-1.424,0-1.724-1.199-2.023-2.174c0,0-0.075-0.149-0.075-0.226l-0.45-0.974l-0.975-2.474l-0.449-1.65l-0.3-1.648
		c-0.149-0.375-0.45-0.824-0.524-1.124c-0.075-0.15-0.3-0.449-0.45-0.9c-0.15-0.449-0.45-1.274-0.749-2.174l-0.45-1.724v0.075
		l-3.148-8.771l-0.225-1.051l-0.524-2.023v0.075c-0.376-1.125-0.525-2.099-0.675-2.924l-0.451-2.174
		c-0.299-1.049-0.599-1.874-0.974-2.923l-0.3-1.574l-0.6-2.399c0,0.45,0.074,1.425,0.074,1.949c0.076,0.825,0.226,2.773,0.226,3.598
		c0,0.525,0.075,1.199,0.149,1.875c0,0.375,0.075,0.749,0.075,1.049c0.075,1.199,0,2.848-0.075,3.973v11.244
		c0,0.449-0.074,0.975-0.074,1.424v1.5l0.074,2.923c0,0.525-0.074,0.899-0.074,1.424v2.024c0.074,1.199,0.074,2.475,0.074,3.673
		L342.965,55.162z"/>
	<path fill="#E2DD27" d="M386.595,37.919c0.149,1.425,0.375,2.849,0.601,3.974c0.449,3.299,1.35,7.946,3.073,9.819
		c0.3,0.226,0.6,0.525,1.349,0.525c0.375-0.226,1.125-0.9,1.425-1.725c0,0,1.199-2.773,1.573-5.321c0-0.825,0.076-2.85,0.151-4.274
		c0.074-2.622,0.224-5.996,0.15-7.271v0.076v-0.076h-0.751h-2.698c-1.05-0.074-1.5-0.674-1.573-2.397
		c-0.076-1.949,0.523-2.174,1.424-2.324c0.524-0.075,0.974,0,1.574-0.075h0.674c1.2-0.075,2.249-0.15,3.823,0.075
		c0.824,0.525,1.05,0.825,1.35,1.199c0.6,1.499,0.675,4.723,0.675,7.872c0,1.799,0,3.747,0,4.946
		c-0.075,3.599-0.675,5.623-1.949,9.146c-0.975,2.773-3.148,4.797-5.698,4.797h-0.299c-0.675,0.15-1.5,0.226-2.699-0.449
		c-1.423-0.824-2.098-1.874-2.848-2.998l-0.45-0.601l0.074,0.15c-0.674-1.049-1.124-2.474-1.573-4.272v0.074l-0.601-3.373
		l-0.299-1.049c-0.076-0.524-0.375-1.425-0.45-2.024c-0.375-2.398-0.749-6.597-0.749-8.995c0-0.825-0.075-1.573-0.075-2.399
		c0-0.749-0.075-1.349-0.075-2.098c0-0.825,0.075-2.099,0.15-2.924v-0.299c0-0.6,0-1.424,0-2.1v-1.199
		c0.074-3.073,0.374-6.597,0.899-9.67c0.15-1.574,0.3-2.924,0.749-4.422l0.301-1.05c0.149-0.45,0.749-1.424,1.198-2.099
		c0.601-1.199,1.199-2.249,1.874-3.073c1.35-1.5,3.149-1.949,4.948-1.724c5.397,0.6,6.371,4.123,6.896,8.246l0.075,1.574
		c0.074,0.45,0.074,1.2,0.074,1.799c0,1.274-0.449,1.949-2.173,2.023c-1.5,0.075-2.25-0.524-2.324-1.949l-0.15-1.799l0.075-0.825
		l-0.15-0.749l-0.449-1.424h0.074l-0.299-0.899c-0.15-0.15-0.45-0.45-0.525-0.525c-0.375-0.675-1.2-0.975-2.099-0.825
		c-0.375,0.225-0.675,0.45-0.974,0.825c-2.1,2.698-2.475,6.597-3,11.019l-0.374,2.774c-0.15,1.424-0.15,2.698-0.15,4.048v6.896
		C386.371,32.672,386.446,34.623,386.595,37.919z"/>
	<path fill="#E2DD27" d="M406.911,0.364c0.751,0,1.351,0,2.101,0.225c0.675,0.076,1.648,0.45,2.249,0.75
		c0.299,0.3,3.522,1.199,4.422,2.774l-0.074-0.15c1.123,0.975,1.648,1.574,2.398,2.624c1.124,1.874,2.174,4.723,2.624,6.822
		c0.375,1.499,0.524,3.298,0.524,4.647c0,1.575-0.149,3.224-0.3,4.423c-0.301,3.298-1.95,5.847-2.475,6.671
		c-1.424,2.024-3.073,4.798-7.571,6.222c0.076,0.076,0.15,0.226,0.301,0.375c0.374,0.675,0.899,1.2,1.424,1.799
		c0.449,0.525,0.975,1.125,1.349,1.8l1.274,2.099c0.375,0.675,0.675,1.35,1.725,2.849c1.575,2.699,2.399,4.048,2.924,5.247
		l0.3,0.675c0.525,1.051,1.274,2.699,1.648,4.048c0.375,1.35,0.15,1.8-0.974,2.623c-1.574,1.126-2.099,0.076-2.998-0.823
		c-0.676-1.574-1.5-3.299-1.5-3.299c-0.6-1.498-1.799-3.748-2.698-5.397c-0.524-0.899-1.125-1.725-1.574-2.249l-0.899-1.349
		c-0.524-1.05-0.75-1.425-1.125-1.874c-0.074,0-0.299-0.225-0.299-0.3l-0.9-0.975v10.944c0,0.524,0.075,0.824,0.075,1.424
		c-0.3,2.85-0.15,4.123-2.324,4.123c-1.799,0-1.949-0.675-2.249-2.099l0.076-2.474v-1.05c0-0.449-0.076-0.825-0.076-1.424
		c-0.075-3.373-0.075-9.221-0.075-12.068c0-0.899-0.074-1.725-0.074-2.625c0-0.449-0.075-0.899-0.075-1.273
		c-0.074-0.976-0.074-2.323-0.074-3.224c0-0.3-0.076-0.524-0.076-0.825v-0.599c-0.074-0.975-0.074-2.099-0.074-2.924
		c0-1.124,0-2.548,0.15-4.048v-1.35c0-1.124,0.074-2.249,0.149-3.373c0-1.649,0.074-3.599,0.074-5.322v-0.825
		c0-0.3,0.075-0.6,0.075-0.9v-1.35l-0.149-1.949c0-0.75,0-1.874,0-2.699V2.613C404.138,0.963,405.863,0.364,406.911,0.364z
		 M408.561,5.086l0.225,6.896l-0.225,10.87c0,0.299,0,0.6,0,0.824c0,0.375-0.075,0.675-0.075,0.975v3.373
		c0,0.225,0.075,1.274,0.075,2.399c0,0.225,0.075,0.523,0.075,0.674c2.773-0.524,4.347-2.324,5.922-4.422
		c0.824-1.274,1.199-2.249,1.349-3.224c0.076-0.375,0.15-0.975,0.3-1.649c0-0.599,0.075-1.049,0.15-1.574l0.225-2.398
		c-0.075-4.499-1.799-7.647-1.799-7.647l-0.9-1.199C412.683,7.186,410.735,5.836,408.561,5.086z"/>
	<path fill="#E2DD27" d="M433.6,56.435c-3.898-1.798-5.548-6.146-6.372-9.744l-0.225-1.125l-0.226-1.799v0.075
		c-0.3-2.024-0.524-5.473-0.524-7.646c-0.075-1.2-0.075-2.923-0.075-4.198c0-0.375,0-1.05,0.075-1.424
		c0.074-0.6,0.225-1.649,0.225-2.474v-4.198c0-0.075,0.075-0.225,0.075-0.375l-0.075-2.023l0.3-7.572
		c0.075-1.949,0.45-3.823,1.049-5.547c1.575-3.448,3.898-7.496,8.172-8.246c3.072-0.45,5.097,1.649,6.671,3.673
		c1.5,2.549,2.399,5.397,3.074,8.396c0.6,2.698,0.749,5.472,0.749,7.946v1.274c0,0.299-0.074,0.525-0.074,0.824v3.673l-0.3,5.474
		c0,0.824-0.076,1.799-0.076,2.548l0.076,8.471c-0.375,2.849-0.826,6.071-2.25,9.07c-0.974,1.874-2.773,3.674-4.798,4.872
		l-0.898,0.15c-0.75,0.075-1.425,0.301-2.249,0.374c-0.075,0-0.749-0.073-0.9-0.073L433.6,56.435z M431.576,45.492
		c0.3,1.798,1.725,5.396,3.224,6.446l-0.075-0.149c0.374,0.299,0.824,0.374,1.274,0.374c1.049,0,2.099-0.524,2.773-1.5
		c0.149-0.373,0.375-1.048,0.674-1.349l0.525-0.825l-0.074,0.15c0.3-0.6,0.599-1.274,0.898-2.099c0-0.375,0.225-0.675,0.375-1.199
		v-0.149c0.15-0.451,0.15-0.825,0.15-1.2v-0.75l0.149-3.897l0.075-5.473c0-2.623,0-5.247,0.075-7.496
		c0-1.424,0.075-4.123,0.075-5.472c0-3.073-0.15-6.072-0.525-8.771c-0.524-1.874-1.124-3.973-2.323-5.771l-1.425-1.125l-0.225-0.15
		c-0.15,0-0.524-0.075-0.6-0.15c-0.3-0.075-0.525-0.075-0.75-0.075c-0.6,0.45-1.8,0.674-2.398,1.499V6.286l-0.524,0.75L433,6.96
		c-0.824,1.424-0.675,3.074-1.198,4.348l-0.601,4.872v4.798l-0.3,6.522c0,2.924-0.075,5.697-0.075,8.545
		c0.075,0.449,0.075,1.124,0.075,1.799v1.5c0,1.199,0.074,2.474,0.449,4.498L431.576,45.492z"/>
	<path fill="#E2DD27" d="M459.388,53.437c-0.45-2.624-0.899-5.397-1.199-7.571l-0.149-1.648c-0.15-0.375-0.301-1.05-0.451-1.275
		l-1.723-11.244l-1.126-7.346l-0.374-2.699l-0.6-3.673c-0.3-0.975-0.449-2.099-0.6-3.298c-0.149-0.825-0.226-1.649-0.226-2.549
		l-0.674-3.522l-0.149-0.975c-0.301-1.274-0.602-3.298-0.675-5.322c-0.076-1.725,1.123-2.099,2.249-2.174
		c1.573-0.149,2.098,0.825,2.098,1.724c0.15,0.15,0.375,0.226,0.45,1.575l0.375,2.099c0.225,1.049,0.45,2.249,0.524,3.374
		l0.975,5.922c0.225,1.125,0.225,1.949,0.3,2.249l0.45,2.624l1.649,11.169l0.599,3.598l0.075,0.825l0.149,1.724
		c0.076,0.75,0.15,1.725,0.15,1.725l0.824,3.373c0.075-1.574,0.301-3.224,0.525-4.573c0.226-1.199,0.524-2.549,0.75-3.898
		c0.3-1.273,0.525-2.397,0.749-3.747c0.15-1.425,0.375-3.224,0.524-4.648c0.375-2.399,0.825-5.022,1.35-7.421l0.824-4.648
		l0.226-1.874l0.3-1.724c0-0.226,0.075-0.525,0.075-0.6c0.075-0.675,0.225-1.125,0.374-1.949l0.226-1.199l0.225-1.2
		c0-0.225,0.074-0.675,0.15-0.9c0.524-2.698,1.424-3.973,2.998-3.522c1.275,0.374,1.724,0.6,1.724,2.624
		c0,0.974-0.074,2.024-0.225,2.474l-0.224,1.274l-0.301,1.2l-0.15,0.674c-0.149,1.5-0.449,3.224-0.599,4.723
		c-0.15,0.525-0.226,1.199-0.301,1.874c-0.3,2.024-0.6,4.272-1.049,6.222l0.074-0.075c-0.449,2.773-0.975,5.472-1.424,8.246v-0.075
		l-0.225,1.499l-0.225,1.424l-0.525,2.698c-0.3,1.499-0.6,3.374-0.6,3.824c0,1.199-0.225,2.473-0.6,4.198l-0.226,1.799l-0.674,3.672
		c-0.075,0.75-0.375,2.399-0.6,3.149l-0.375,2.024c-0.6,1.873-0.974,2.772-1.95,2.998c-2.772,0.825-3.297-0.976-3.522-2.399
		l0.075,0.15L459.388,53.437z M455.79,1.863l-0.074-0.075L455.79,1.863z"/>
	<path fill="#E2DD27" d="M487.5,56.96c-1.05-0.076-2.024,0-2.925,0.074c-1.423,0.075-2.473,0.226-3.748-0.074h-0.374
		c-1.574-0.3-1.65-0.825-1.874-2.25c-0.15-1.048-0.225-2.772-0.075-3.747v-0.301l-0.149-6.071c-0.075-1.649-0.075-3.674,0-4.724
		c0-0.448,0.074-1.273,0.074-2.023c0-0.374-0.074-0.898-0.074-1.499c-0.075-1.049-0.075-2.773,0-3.598
		c0-2.174-0.075-4.723-0.075-7.046v-5.847c-0.15-2.548-0.15-5.322-0.15-7.722c0-1.199-0.074-2.473-0.074-3.822
		c0-2.099,0-4.123,0.599-6.522c0.601-0.825,0.9-1.2,1.875-1.274c0.823-0.075,2.023-0.15,2.923-0.15c1.424,0,2.999,0.075,4.498,0.15
		c1.35,0.075,2.623,0.075,3.898,0.15c1.724,0.15,2.623,0.449,2.623,2.548c0,1.874-0.675,1.799-2.174,2.099l-6.971-0.3l-2.249,0.149
		c0,1.275-0.15,2.324-0.226,3.523c-0.075,0.9-0.149,1.649-0.149,2.624c0,0.224-0.075,0.45-0.075,0.674v0.45
		c0.225,4.048,0.374,9.145,0.45,13.193c1.273,0,2.623,0,3.897-0.075c1.35,0,2.549-0.075,3.074-0.075
		c1.273,0,1.873,0.975,1.873,2.099c0,2.024-0.449,2.099-1.499,2.249c-0.975,0-3.598,0.224-4.647,0.15l-2.623,0.299v1.65
		c0,1.723,0,3.598-0.075,4.723v0.749c0,1.274-0.076,2.1-0.076,2.624c-0.074,0.6-0.074,1.049-0.074,2.174v0.3
		c0.15,2.474,0.15,5.098,0.15,6.896c0,0.824,0,2.024-0.076,2.773v0.075c2.475,0,5.098,0.075,7.646,0.075l1.649-0.075h0.226
		c1.199,0,2.248,0.3,2.323,1.874c0.075,1.274,0.149,2.398-1.574,2.474C492.147,56.811,488.7,57.035,487.5,56.96z"/>
</g>
</svg>
