<?xml version="1.0" encoding="utf-8"?>
<!-- Generator: Adobe Illustrator 15.1.0, SVG Export Plug-In . SVG Version: 6.00 Build 0)  -->
<!DOCTYPE svg PUBLIC "-//W3C//DTD SVG 1.1//EN" "http://www.w3.org/Graphics/SVG/1.1/DTD/svg11.dtd">
<svg version="1.1" id="Layer_1" xmlns="http://www.w3.org/2000/svg" xmlns:xlink="http://www.w3.org/1999/xlink" x="0px" y="0px"
	 width="1453px" height="752.462px" viewBox="0 0 1453 752.462" enable-background="new 0 0 1453 752.462" xml:space="preserve">
<path fill="#E1DD26" d="M97.743,708.216c0.003-0.271-0.094-0.476-0.228-0.644c-0.089-0.622-0.74-1.204-1.488-0.848
	c-2.421,1.153-4.946,1.649-7.624,1.513c-0.464-0.023-0.77,0.22-0.927,0.539c-0.465,0.028-0.906,0.317-0.934,0.918
	c-0.087,1.918,0.433,3.594,1.074,5.387c0.731,2.048,1.303,4.138,1.762,6.257c-0.12-0.005-0.238-0.019-0.362-0.003
	c-0.566-0.244-1.335-0.007-1.437,0.743c-0.057,0.053-0.112,0.105-0.173,0.154c-0.129,0.11-0.254,0.216-0.373,0.337
	c-0.282,0.287-0.472,0.651-0.558,1.041c-0.197,0.896,0.122,1.869,0.872,2.419c1.582,1.161,3.851,0.197,4.251-1.688
	c0.034-0.16,0.039-0.315,0.045-0.47c0.153-0.202,0.232-0.468,0.175-0.786c-0.39-2.155-0.891-4.266-1.511-6.365
	c-0.236-0.8-0.527-1.584-0.802-2.368c2.219-0.544,4.438-1.088,6.657-1.632c0.496,2.691,1.348,5.377,2.264,7.955
	c-1.031-0.238-2.025,0.071-2.496,1.502c-0.924,2.806,2.897,2.833,4.422,2.226c0.095-0.038,0.161-0.105,0.23-0.17
	c0.548-0.158,0.983-0.864,0.749-1.507C99.703,718.258,97.695,713.03,97.743,708.216 M88.903,712.388
	c-0.17-0.686-0.291-1.383-0.304-2.104c2.472,0.084,4.851-0.346,7.132-1.234c0.02,0.544,0.066,1.088,0.125,1.634
	C93.538,711.252,91.221,711.819,88.903,712.388"/>
<path fill="#E1DD26" d="M120.549,693.681c-2.679-0.128-5.138-0.885-7.434-2.27c-0.398-0.24-0.782-0.171-1.072,0.037
	c-0.423-0.195-0.949-0.148-1.257,0.369c-0.983,1.647-1.315,3.37-1.598,5.253c-0.323,2.151-0.807,4.263-1.403,6.348
	c-0.104-0.061-0.202-0.128-0.318-0.174c-0.384-0.481-1.174-0.637-1.618-0.024c-0.074,0.021-0.149,0.04-0.225,0.056
	c-0.166,0.035-0.326,0.069-0.489,0.121c-0.383,0.119-0.723,0.35-0.983,0.652c-0.596,0.697-0.776,1.705-0.374,2.544
	c0.845,1.771,3.301,1.993,4.544,0.522c0.105-0.126,0.183-0.26,0.261-0.394c0.231-0.106,0.426-0.303,0.526-0.61
	c0.674-2.084,1.23-4.18,1.676-6.324c0.16-0.769,0.268-1.548,0.388-2.323c-0.032-0.117-0.043-0.25-0.022-0.395
	c0.077-0.527,0.493-0.969,0.532-1.482c0.008-0.095,0.042-0.165,0.07-0.24c-0.053-0.015-0.106-0.027-0.158-0.041
	c0.174-0.686,0.397-1.356,0.726-1.998c2.139,1.241,4.438,1.987,6.868,2.282c-0.239,0.488-0.456,0.99-0.661,1.499l-0.192-0.05
	c-0.056,0.27-0.201,0.458-0.265,0.743c-0.088,0.394-0.177,0.773-0.391,1.119c-0.02,0.032-0.051,0.04-0.073,0.068l0.228,0.06
	c-0.834,2.605-1.352,5.376-1.763,8.08c-0.796-0.697-1.818-0.895-2.91,0.145c-2.14,2.036,1.215,3.865,2.846,4.052
	c0.102,0.011,0.192-0.019,0.283-0.042c0.558,0.118,1.275-0.298,1.372-0.974c0.676-4.708,1.376-10.264,3.694-14.484
	c0.13-0.236,0.142-0.464,0.103-0.675C121.676,694.539,121.376,693.719,120.549,693.681"/>
<path fill="#E6EEF1" d="M1060.605,709.036c-0.516-0.03-1.03-0.398-1.569-0.464c-0.645-0.077-1.245,0.008-1.865,0.187
	c-0.898,0.258-2.003,0.647-2.238,1.646c-0.47,1.989,1.067,3.119,2.916,3.113c1.678-0.006,3.501,0.04,4.062-1.907
	c0.282-0.979-0.905-1.429-1.601-1.69c-1.034-0.39-2.094,0.398-3.112,0.457c-1.248,0.073-1.255,2.021,0,1.948
	c0.641-0.037,1.235-0.217,1.847-0.397c0.419-0.124,0.91-0.268,1.238,0.112l-0.25-0.947c-0.205,0.711-2.384,0.635-2.953,0.392
	c-0.28-0.12-0.291-0.153-0.285-0.391c0.003-0.116,0.021-0.229,0.055-0.339c-0.048,0.096-0.096,0.191-0.145,0.288
	c0.222-0.105,0.445-0.205,0.674-0.298c0.572-0.232,1.116-0.325,1.724-0.184c0.547,0.128,0.929,0.387,1.503,0.422
	C1061.86,711.061,1061.854,709.111,1060.605,709.036"/>
<path fill="#E6EEF1" d="M1061.946,711.353c0.617-4.963,0.037-10.242-0.045-15.238c-0.021-1.255-1.969-1.257-1.948,0
	c0.082,4.996,0.662,10.275,0.045,15.238C1059.844,712.597,1061.793,712.582,1061.946,711.353"/>
<path fill="#E6EEF1" d="M1061.48,699.81c1.354,0.711,2.778,1.226,4,2.173c0.489,0.38,0.937,0.72,1.221,1.274
	c0.394,0.769,0.057,1.997-0.034,2.812c0.638-0.086,1.276-0.172,1.913-0.259c-0.219-1.495-1.133-2.817-2.078-3.963
	c-0.412-0.5-0.885-0.968-1.498-1.206c-0.189-0.073-1.989-0.551-1.993-0.312l-0.284,0.688c0.053-0.068,0.106-0.137,0.159-0.206
	c0.352-0.451,0.427-1.231-0.196-1.529l-0.4-0.189c-1.128-0.536-2.118,1.143-0.983,1.682l0.4,0.19
	c-0.066-0.51-0.132-1.021-0.198-1.53c-1.105,1.426,0.115,2.502,1.576,2.761c1.11,0.197,1.669,0.519,2.361,1.428
	c0.605,0.795,1.111,1.716,1.257,2.705c0.172,1.176,1.803,0.736,1.913-0.26c0.218-1.963,0.344-3.658-1.252-5.052
	c-1.482-1.295-3.182-1.988-4.9-2.89C1061.352,697.545,1060.368,699.226,1061.48,699.81"/>
<path display="none" fill="#FFFFFF" d="M173.673,494.439c-3.46-1.289-8.231-0.17-9.61,3.714c-1.843,5.191,0.76,10.399,4.05,14.41
	c0.015,0.202,0.067,0.407,0.212,0.603c0.258,0.345,0.554,0.609,0.88,0.835c-0.892,0.665-1.744,1.38-2.491,2.357
	c-0.483,0.633,0.063,1.714,0.862,1.691c1.285-0.036,2.57-0.072,3.856-0.108c1.006-0.027,1.462-1.047,0.87-1.838
	c-0.294-0.393-0.588-0.785-0.881-1.177c1.408-1.022,2.893-1.962,4.073-3.271c1.425-1.582,1.812-3.819,2.18-5.834
	C178.42,501.729,178.391,496.197,173.673,494.439"/>
<path display="none" fill="#E1DD26" d="M193.188,500.997c-4.24-1.097-10.044,1.98-11.254,6.144
	c-1.544,5.312,0.521,11.277,4.861,14.764c0.042,0.033,0.085,0.041,0.128,0.065c-0.128,0.102-0.262,0.205-0.387,0.305
	c-0.66,0.521-0.414,1.566,0.418,1.726c1.24,0.238,2.14,0.08,3.349-0.255c0.594-0.164,0.783-1.02,0.421-1.469
	c-0.13-0.162-0.261-0.324-0.391-0.486c3.457-2.637,7.081-5.639,8.007-9.932C199.254,507.618,197.706,502.166,193.188,500.997"/>
<path display="none" fill="#E1DD26" d="M153.878,504.891c-4.671-1.122-7.69,3.119-8.319,6.588c-0.806,4.445,1.699,8.862,5.18,11.798
	c-0.269,0.206-0.534,0.41-0.756,0.586c-0.73,0.58-0.511,1.873,0.663,1.756c1.178-0.115,2.357-0.232,3.535-0.35
	c0.852-0.084,1.446-1.169,0.644-1.689c-0.212-0.177-0.425-0.354-0.637-0.529c3.08-2.554,5.814-5.406,5.983-9.328
	C160.38,508.846,159.475,506.234,153.878,504.891"/>
<path display="none" fill="#FFFFFF" d="M190.106,526.213c0.171,9.95-2.113,17.73-6.767,23.112c-2.898,3.34-6.109,5.81-9.521,7.352
	c-0.414,0.186-0.914,0.371-1.456,0.558c0.87,0.171,1.713,0.528,2.155,1.47c0.229,0.485,0.243,0.985,0.043,1.442
	c-0.243,0.527-0.728,0.941-1.37,1.127c-1,0.313-2.527-0.171-3.669-0.628c-1.428,3.154-1.599,5.339,1.427,7.023
	c0.471,0.271,0.686,0.771,0.557,1.285c-0.143,0.542-0.614,0.928-1.142,0.928c-0.186,0-0.385-0.058-0.571-0.156
	c-2.741-1.528-4.14-4.283-3.526-6.995c0.214-0.972,0.542-1.942,1.056-3.056c-0.271-0.156-0.499-0.328-0.685-0.5
	c-4.083,1.613-5.824,3.412-5.496,5.624c0.057,0.329-0.028,0.63-0.228,0.857c-0.514,0.614-1.942,0.443-2.113-0.685
	c-0.6-4.026,2.712-5.883,5.867-7.296c0.343-0.156,0.7-0.3,1.042-0.428l0.186-0.072c0.143-0.299,0.385-0.542,0.714-0.671
	c0.042-0.014,0.071-0.027,0.099-0.027c-1.398-2.37-3.554-4.24-5.81-6.196c-2.084-1.798-4.225-3.654-5.724-5.938
	c-3.469-5.268-4.839-10.82-4.054-16.517c0.071-0.557,0.499-0.928,1.042-0.928c0.371,0,0.728,0.171,0.971,0.442
	c0.228,0.271,0.328,0.614,0.285,0.971c-0.914,6.681,1.67,13.533,7.124,18.787c0.813,0.784,1.698,1.556,2.569,2.298
	c2.199,1.913,4.483,3.883,5.939,6.553c1.013-2.598,1.17-5.154,0.499-8.237c-2.298-10.635-2.669-19.086-1.199-27.365
	c0.1-0.558,0.514-0.914,1.071-0.914c0.371,0,0.742,0.171,0.971,0.457c0.228,0.271,0.314,0.613,0.257,0.971
	c-1.671,9.393-0.4,17.787,1.184,26.281c0.414,2.27,0.743,4.938,0.115,7.723c1.399-0.586,2.926-1.314,4.368-2.327
	c7.794-5.539,11.634-14.39,11.435-26.281c0-0.329,0.114-0.613,0.328-0.827C188.665,524.828,190.092,525.042,190.106,526.213"/>
<rect x="145.408" y="493.929" display="none" fill="none" width="53.183" height="75.953"/>
<path display="none" fill="#FFFFFF" d="M151.278,601.963c-0.571-1.167-0.471-3.635-0.376-6.02c0.067-1.674,0.151-3.758-0.134-4.208
	c-1.23-1.935-3.408-2.38-5.715-2.851l-0.562-0.163c-0.09-0.066-0.181-0.131-0.29-0.186c-2.034-1.021-4.317-1.617-6.526-2.191
	c-0.726-0.189-1.45-0.378-2.166-0.58c-4.743-1.348-8.444-4.413-12.024-7.38c-1.223-1.014-2.518-1.98-3.769-2.917
	c-1.911-1.431-3.887-2.909-5.68-4.597c-1.528-1.438-2.501-3.223-3.441-4.947c-0.938-1.72-1.823-3.344-3.215-4.665
	c-0.705-0.668-1.607-0.653-2.313-0.026l-0.197,0.112c-0.452,0.143-0.805,0.444-1.049,0.899c-3.643,6.784-9.684,12.882-18.468,18.642
	c-3.528,2.312-7.506,4.295-12.898,6.427c-0.744,0.294-1.506,0.627-2.284,0.966c-3.037,1.324-6.21,2.699-9.437,2.438
	c-0.806-0.056-1.355,0.312-1.645,0.624c-0.426,0.453-0.666,1.111-0.625,1.715l0.008,0.126l-0.025,0.061
	c0.178,3.167,0.168,10.464-0.386,12.851c-0.275,1.178,0.463,1.84,1.246,2.066l0.191,0.057l0.111,0.166
	c0.044,0.067,0.095,0.13,0.147,0.189l0.12,0.136l0.014,0.183c0.66,8.993,0.679,16.383,0.06,23.255
	c-0.815,9.055,0.44,50.557,1.123,59.617c0.092,1.243,1.065,1.684,1.869,1.684c0.579,0,1.132-0.223,1.478-0.597
	c0.32-0.343,0.461-0.793,0.419-1.335c-0.166-2.228-0.517-13.196-0.857-23.804c-0.318-9.954-0.648-20.25-0.799-22.36
	c-0.3-4.205,0.067-8.182,0.455-12.391l0.126-1.382c0.608-6.767,0.566-14.188-0.134-23.353l-0.029-0.376l0.343-0.158
	c3.865-1.793,8.931-3.85,13.833-3.85c4.097,0,7.575,1.468,10.336,4.364c0.334,0.349,0.773,0.421,1.083,0.421
	c0.403,0,0.847-0.123,1.219-0.337c4.84-2.795,9.58-4.274,15.846-4.948c2.594-0.281,5.314,0.637,7.329,2.409
	c1.338,1.176,2.214,1.867,3.826,1.756c1.522-0.104,2.808-1.038,4.212-2.156c2.827-2.256,6.363-2.79,9.782-3.307l0.189-0.028
	c1.255-0.19,2.483-0.281,3.757-0.281c3.632,0,7.024,0.785,10.148,1.634l0.404,0.109l-0.003,0.419
	c-0.009,1.281-0.059,2.56-0.109,3.842c-0.089,2.292-0.182,4.662-0.021,6.984c0.078,1.135,0.171,2.256,0.265,3.369
	c0.337,4.012,0.654,7.802,0.252,11.88c-0.303,3.056-0.059,6.204,0.176,9.249c0.12,1.545,0.243,3.143,0.295,4.713
	c0.049,1.5-0.102,5.999-0.295,11.694c-0.412,12.253-1.037,30.765-0.089,33.949c0.314,1.059,1.11,1.216,1.557,1.216
	c0.663,0,1.344-0.338,1.735-0.86c0.244-0.328,0.487-0.881,0.257-1.651c-0.996-3.349-0.054-27.521,0.399-39.138
	c0.106-2.736,0.185-4.735,0.201-5.531c0.044-2.178-0.084-4.362-0.208-6.475c-0.177-3.014-0.36-6.13-0.05-9.295
	c0.334-3.391-0.043-6.874-0.409-10.244c-0.113-1.043-0.226-2.083-0.319-3.119c-0.222-2.492-0.112-5.002-0.006-7.43
	c0.032-0.734,0.064-1.469,0.087-2.202l0.013-0.378l0.357-0.12c0.555-0.186,1.06-0.658,1.288-1.203
	C151.402,602.855,151.5,602.416,151.278,601.963"/>
<path display="none" fill="#FFFFFF" d="M264.945,682.944c2.171,4.875,7.978,7.314,13.047,5.731c3.277-1.023,6.257-3.243,7.547-6.218
	c0.999,0.113,1.998,0.235,2.992,0.389c0.202,0.097,0.434,0.158,0.707,0.154c0.129-0.001,0.257-0.003,0.386-0.004
	c0.101-0.002,0.182-0.041,0.275-0.059c0.216,0.112,0.463,0.189,0.77,0.176c0.775-0.033,1.576-0.184,2.379-0.367
	c1.882,3.699,6.439,6.594,10.234,6.336c5.866-0.397,11.411-4.152,11.597-10.486c0.167-5.745-3.102-9.266-8.044-11.062
	c-0.927-0.184-1.873-0.256-2.811-0.096c-0.111,0.018-0.212,0.01-0.308-0.01c-0.027,0.029-0.059,0.053-0.083,0.084
	c-0.355,0.037-0.678,0.117-1.019,0.172c-0.452-1.456-0.946-2.893-1.557-4.275c-1.323-3-3.765-5.004-6.93-5.744
	c-1.98-0.463-2.752,2.593-0.774,3.055c4.016,0.939,4.785,3.92,5.738,7.17c-2.186-0.023-4.336,0.316-6.552,0.544
	c-1.218,0.125-2.501,0.144-3.765,0.229c0.007-0.17,0.036-0.333,0.016-0.512c-0.037-0.319-0.163-0.603-0.33-0.851
	c0.175-0.038,0.349-0.077,0.524-0.11c0.132-0.026,0.192-0.04,0.218-0.049c0.01,0.004,0.045,0.006,0.133,0.004
	c1.366-0.04,1.762-1.466,1.27-2.386c-0.15-0.643-0.635-1.197-1.487-1.19c-1.83,0.016-5.807-0.53-6.388,1.884
	c-0.443,1.84,1.529,2.531,2.968,2.352c-0.032,0.136-0.075,0.269-0.058,0.412c0.014,0.12-0.078,0.732,0.079,0.347
	c-0.091,0.223-0.136,0.452-0.152,0.68c-0.199,0.06-0.395,0.148-0.581,0.301c-0.758,0.626-1.752,0.979-2.628,1.484
	c-2.117-1.984-4.915-3.172-8.001-3.008c-0.456,0.023-0.791,0.216-1.037,0.477c-1.689,0.595-3.3,0.748-4.849,1.812
	c-1.165,0.801-2.033,2.177-2.74,3.368C263.882,676.796,263.446,679.577,264.945,682.944 M296.333,681.823
	c0.365-0.116,0.733-0.233,1.084-0.339c2.294-0.692,4.633-1.122,6.922-1.76c0.978-0.011,1.918-0.773,1.45-1.921
	c-0.943-2.312-1.617-4.74-2.302-7.162c0.477-0.054,0.972-0.09,1.487-0.109c0.208-0.008,0.379-0.066,0.542-0.132
	c3.346,1.129,6.358,3.273,6.241,7.272c-0.132,4.522-3.673,8.574-8.541,8.26C300.218,685.74,297.605,684.119,296.333,681.823
	 M295.524,678.802c-0.021-1.021,0.187-2.093,0.704-3.181c1.004-2.114,2.337-3.376,4.003-4.128c0.601,1.861,1.234,3.72,1.916,5.545
	c-1.578,0.376-3.176,0.685-4.744,1.158C296.812,678.375,296.176,678.586,295.524,678.802 M284.428,673.574
	c0.831-0.506,1.671-0.987,2.456-1.577c0.132,0.002,0.257,0.023,0.401-0.009c1.668-0.372,3.618-0.214,5.32-0.403
	c0.93-0.104,1.867-0.24,2.805-0.357c-1.667,1.779-2.773,4.184-3.193,7.261c-0.057,0.421-0.056,0.842-0.029,1.262
	c-0.543,0.11-1.077,0.192-1.585,0.214c-0.103,0.005-0.178,0.048-0.27,0.067c-0.114-0.051-0.216-0.113-0.355-0.138
	c-1.252-0.214-2.512-0.365-3.773-0.507c0.013-0.772-0.071-1.574-0.295-2.406C285.582,675.767,285.075,674.621,284.428,673.574
	 M282.928,679.009c-1.567-0.185-3.13-0.395-4.672-0.735c1.188-0.994,2.473-1.876,3.665-2.893c0.327,0.572,0.61,1.171,0.785,1.819
	C282.874,677.824,282.927,678.424,282.928,679.009 M269.026,674.363c1.505-2.174,3.311-2.101,5.535-2.966
	c0.132-0.052,0.22-0.137,0.325-0.208c1.82,0.018,3.578,0.686,4.996,1.814c-0.225,0.196-0.442,0.401-0.68,0.58
	c-1.85,1.386-3.762,2.615-5.178,4.475c-1.002,1.316,0.352,3.033,1.549,2.7c0.112,0.063,0.209,0.141,0.349,0.18
	c2.035,0.576,4.108,0.889,6.192,1.138c-0.992,1.74-2.788,3.043-5.023,3.579c-3.714,0.892-8.067-0.439-9.458-4.358
	C266.675,678.599,267.456,676.631,269.026,674.363"/>
<path display="none" fill="#DAE6EB" d="M248.651,699.249c-0.226-2.209-0.231-12.771-0.483-14.979
	c-0.035-0.31,0.012-32.815-0.31-36.554c-0.424-4.928,0.176-18.489,0.299-23.434c0.006-0.235-0.034-0.441-0.097-0.629
	c0.034-0.803,0.058-1.605,0.066-2.405c0.023-2.426-0.358-4.822-0.29-7.249c0.07-2.549-0.089-4.925-0.351-7.459
	c-0.936-9.047-0.511-18.177-0.223-27.258c0.921,0.056,1.684-0.708,1.837-1.562c0.353-1.059-0.137-2.356-1.536-2.235
	c-0.05,0.004-0.1,0.007-0.15,0.011c-0.096-0.057-0.194-0.112-0.291-0.169c-0.297-0.506-0.843-0.782-1.413-0.82
	c-2.488-1.429-5.023-2.8-7.553-4.127c-1.411-0.74-2.833-1.45-4.293-2.089c-0.889-0.389-1.726-1.099-2.618-1.538
	c-0.558-0.854-1.717-1.277-2.586-0.307c-0.883,0.987-2.622,1.336-3.776,1.967c-1.735,0.947-3.389,1.985-5.176,2.839
	c-2.017,0.963-3.992,2.086-6.09,2.865c-1.125,0.418-2.151,0.835-3.136,1.439c-0.622,0.066-1.188,0.208-1.584,0.498
	c-1.218,0.891-0.857,2.585,0.068,3.196c-0.016,0.306,0.065,0.635,0.289,0.975c0.25,0.379,0.364,0.833,0.401,1.318
	c-0.506,0.607-0.629,1.554-0.177,2.225c-0.042,0.267-0.082,0.522-0.111,0.76c-0.243,1.976,0.328,4.017,0.43,5.984
	c0.226,4.349-0.391,8.685-0.319,13.029c0.033,2.091,0.302,4.178,0.41,6.267c0.112,2.16-0.082,4.319,0.023,6.483
	c0.109,2.233,0.297,4.441,0.209,6.678c-0.061,1.536-0.21,3.015-0.227,4.512c-0.146,0.239-0.241,0.528-0.247,0.881
	c-0.077,5.219,0.64,18.777,0.316,23.998c-0.135,2.164-0.071,28.833,0.192,30.982c0.162,1.319,0.503,2.555,0.551,3.893
	c0.043,1.19-0.532,2.259-0.728,3.407c-0.379,2.221,3.003,3.267,3.385,1.025c0.342-2.005,1.043-3.615,0.795-5.717
	c-0.322-2.734-0.82-29.854-0.715-32.63c0.016-0.415,0.021-0.829,0.029-1.243c10.169,0.31,20.318,1.079,30.485,1.418
	c0.053,1.504,0.237,27.559,0.443,29.061c0.02,0.145,0.514,14.629,0.717,16.604C245.345,701.396,248.884,701.513,248.651,699.249
	 M244.05,607.421c0.156,1.503,0.224,2.956,0.244,4.419c-1.973,0.317-4.004,0.211-5.995,0.142c-3.004-0.106-6.009-0.079-9.012-0.2
	c-0.32-0.013-0.64-0.025-0.96-0.039c1.295-0.093,2.574-0.326,3.744-0.622c4.46-1.129,9.401-4.954,11.535-9.594
	C243.705,603.492,243.847,605.457,244.05,607.421 M233.421,584.294c2.279,0.098,4.555,0.284,6.835,0.361
	c0.919,0.03,2.163,0.151,3.31,0.031c-0.069,2.491-0.121,4.984-0.137,7.476c-1.819-3.389-4.859-5.607-8.367-7.161
	C234.531,584.765,233.982,584.525,233.421,584.294 M215.8,579.062c3.613-0.019,7.227-0.072,10.84-0.073
	c5.659-0.002,11.407,0.406,17.089,0.229c-0.018,0.604-0.036,1.208-0.055,1.812c-0.002,0.002-0.003,0.003-0.006,0.005l0.004-0.002
	c0.002,0.004,0.002,0.008,0.002,0.012c-0.071,0.051-0.142,0.103-0.21,0.169c0.088-0.087,0.152-0.14,0.204-0.179
	c-0.053,0.021-0.121,0.041-0.21,0.05c-0.391,0.042-0.787,0.044-1.179,0.054c-1.179,0.029-2.361-0.029-3.538-0.083
	c-2.149-0.097-4.297-0.297-6.449-0.342c-3.591-0.076-7.209,0.389-10.811,0.363c-2.649-0.018-5.621,0.627-8.327,0.321
	c-0.027-0.79-0.16-1.574-0.48-2.284C213.715,579.078,214.757,579.067,215.8,579.062 M213.377,608.999
	c-0.124-2.398-0.405-4.77-0.364-7.176c0.077-4.481,0.747-9.021,0.137-13.491c-0.163-1.202-0.206-2.311-0.175-3.44
	c2.473,0.168,4.998-0.307,7.476-0.299c0.241,0,0.482-0.005,0.723-0.008c-4.896,3.488-7.156,10.081-5.788,16.013
	c0.847,3.674,2.811,7.098,5.795,9.413c1.106,0.858,2.4,1.352,3.766,1.593c-1.864-0.082-3.727-0.178-5.581-0.316
	c-1.995-0.149-3.993-0.418-5.96-0.167C213.414,610.413,213.414,609.707,213.377,608.999 M213.386,614.709
	c2.154-0.42,4.412,0.003,6.587,0.166c3.377,0.252,6.793,0.343,10.177,0.48c2.938,0.118,5.881,0.084,8.821,0.188
	c1.756,0.062,3.547,0.09,5.301-0.127c0.001,1.094,0.082,2.189,0.162,3.286c-6.364-0.24-12.711-0.769-19.073-1.017
	c-2.349-0.093-4.695-0.144-7.044-0.246c-1.447-0.063-3.302-0.173-4.761,0.387c-0.057-0.799-0.117-1.598-0.156-2.392
	C213.388,615.192,213.391,614.95,213.386,614.709 M213.178,638.577c0.208-0.334,0.321-9.106,0.263-9.578
	c-0.28-2.289,0.071-2.312,0.161-4.6c0.005-0.133,0.095-2.556,0.098-2.689c0.207-0.045,0.42-0.136,0.637-0.293
	c1.256-0.913,3.63-0.463,5.082-0.385c2.286,0.123,4.568,0.138,6.856,0.227c6.106,0.238,12.197,0.763,18.305,0.987
	c-0.027,2.306-0.135,4.744-0.654,6.985c-0.44,1.896-1.076,11.968-0.35,13.879c0.107,0.285,0.267,0.511,0.454,0.692
	c-0.138-0.036-0.286-0.062-0.449-0.066c-5.738-0.148-11.476-0.326-17.215-0.403c-2.67-0.036-5.331-0.027-7.963-0.513
	c-1.798-0.331-3.4-0.462-5.117,0.199C213.234,641.54,213.188,640.061,213.178,638.577 M213.463,648.54
	c-0.017-0.823-0.039-1.646-0.067-2.468c0.442,0.223,0.975,0.288,1.537,0.065c1.533-0.605,3.891,0.39,5.49,0.553
	c2.576,0.263,5.221,0.168,7.807,0.205c5.087,0.071,10.175,0.244,15.261,0.376c0.31,0.008,0.577-0.054,0.805-0.16
	c0.04,0.957,0.152,1.915,0.278,2.87C234.197,649.65,223.841,648.854,213.463,648.54"/>
<rect x="208.12" y="565.889" display="none" fill="none" width="41.09" height="135.005"/>
<path display="none" fill="#007990" d="M238.522,597.442c-1.502-1.055-3.973-1.042-5.732-1.271
	c-1.206-0.157-2.419-0.471-3.638-0.741c-0.227-0.492-0.424-0.982-0.609-1.398c-0.662-1.492-1.189-3.039-1.845-4.534
	c-0.392-0.895-1.717-0.157-1.327,0.731c0.704,1.606,1.286,3.263,1.994,4.867c-0.767-0.111-1.534-0.172-2.302-0.119
	c-0.967,0.066-1.014,1.581-0.039,1.516c1.05-0.073,2.096,0.079,3.138,0.293c0.492,0.916,1.113,1.783,1.974,2.259
	c0.854,0.472,1.654-0.816,0.798-1.289c-0.225-0.123-0.423-0.296-0.61-0.486c0.487,0.109,0.973,0.211,1.458,0.286
	c1.796,0.277,4.412,0.102,5.942,1.176C238.527,599.296,239.318,598.002,238.522,597.442"/>
<path display="none" fill="#B3D7DE" d="M492.334,633.494c-0.724,0.528-1.446,1.062-2.17,1.593c0.288-1.422,0.511-2.883,0.937-4.289
	c0.362-1.198-0.767-2.45-1.881-2.639c-1.349-0.227-2.277,0.688-2.638,1.881c-0.416,1.376-0.373,2.81-0.639,4.22
	c-0.201,1.068-2.376,4.642-2.298,5.344c-0.128,0.08-0.252,0.167-0.381,0.245c0.04-0.812,0.094-1.623,0.093-2.437
	c-0.005-4.621-1.883-18.182-0.276-22.59c1.007-2.761-3.164-4.659-4.178-1.879c-2.403,6.59-0.982,21.602-0.872,29.301
	c-3.786-2.773-7.623-5.478-11.235-8.479c-2.272-1.888-5.153,1.676-2.878,3.565c4.377,3.637,9.088,6.828,13.631,10.246
	c0.112,0.084,0.227,0.103,0.341,0.163c-0.03,0.418-0.034,0.855-0.077,1.263c-0.344,3.305-0.341,6.606-0.238,9.901
	c-2.226-1.744-4.473-3.812-6.102-5.789c-1.936-2.351-3.807-5.393-6.722-6.624c-2.72-1.147-4.605,3.027-1.878,4.178
	c2.448,1.034,4.077,4.254,5.787,6.192c0.415,0.472,0.893,0.953,1.365,1.433c-2.632,1.866-5.152,3.951-8.08,5.32
	c-2.66,1.242-1.053,5.534,1.626,4.282c3.604-1.685,6.636-4.217,9.906-6.435c1.219,1.019,2.459,1.985,3.637,2.784
	c0.229,0.155,0.461,0.251,0.693,0.32c0.265,5.462,0.489,22.189-0.341,27.576c-0.451,2.924,4.069,3.676,4.519,0.757
	c0.957-6.209,0.369-23.53,0.037-29.635c0,0,0.558-0.739,1.323-2.24c0.487-0.954,2.214-3.545,3.615-5
	c0.141,0.01,0.26,0.057,0.416,0.04c2.836-0.296,6.681-0.442,9.071,1.382c2.343,1.788,5.233-1.768,2.878-3.565
	c-2.199-1.678-5.015-2.352-7.838-2.508c0.671-0.705,1.328-1.421,1.932-2.179c1.838-2.308-1.721-5.194-3.565-2.877
	c-2.055,2.58-4.587,4.795-6.81,7.229c-0.334,0.367-0.72,0.785-1.114,1.226c0.027-0.565,0.032-1.126,0.077-1.695
	c0.207-2.585,0.543-5.174,0.827-7.766c4.325-2.319,8.246-5.231,12.207-8.12C497.426,635.453,494.726,631.75,492.334,633.494"/>
<path display="none" fill="#E1DD26" d="M469.423,633.376c-1-2.405-3.579-3.706-6.109-3.138c-0.716,0.161-1.339,0.504-1.861,0.948
	c-0.445,0.048-0.887,0.23-1.266,0.538c-1.786,1.453-1.047,3.854,0.506,5.121c1.619,1.319,3.799,2.128,5.893,1.803
	C468.946,638.283,470.317,635.528,469.423,633.376"/>
<path display="none" fill="#E1DD26" d="M465.006,643.341c-0.726-0.677-1.728-1.091-2.923-1.06c-1.426,0.038-2.606,0.788-3.454,1.851
	c-0.735,0.029-1.44,0.396-1.8,1.31c-0.555,1.411-0.44,2.821,0.561,3.949c0.176,0.581,0.475,1.027,0.862,1.351
	c0.352,0.492,0.945,0.885,1.503,0.932c0.171,0.014,0.334-0.013,0.502-0.018c0.457,0.204,0.945,0.346,1.464,0.376
	c1.137,0.066,2.172-0.478,2.522-1.576c0.861-0.486,1.584-1.214,1.993-2.133C467.045,646.504,466.52,644.312,465.006,643.341"/>
<path display="none" fill="#E1DD26" d="M462.701,663.39c-1.898-1.526-5.056-0.589-6.528,1.09c-1.405,1.604-0.854,3.627,0.365,5.066
	c0.404,0.784,1.045,1.46,1.845,1.862c1.316,0.659,2.592,0.221,3.595-0.625c1.531-0.605,2.699-2.109,2.972-3.809
	C465.234,665.194,464.179,663.874,462.701,663.39"/>
<path display="none" fill="#E1DD26" d="M492.362,624.041c-0.685-1.753-2.807-2.459-4.517-1.963
	c-0.086,0.024-0.157,0.081-0.241,0.112c-0.608-0.019-1.234,0.191-1.754,0.756c-0.504,0.546-0.72,1.192-0.793,1.849
	c-0.659,1.63-0.505,3.562,0.986,4.707c0.569,0.438,1.227,0.608,1.891,0.662c0.669,0.249,1.41,0.277,2.13-0.077
	c1.588-0.78,2.499-2.467,2.416-4.056C492.625,625.381,492.616,624.691,492.362,624.041"/>
<path display="none" fill="#E1DD26" d="M494.348,642.481c-0.471-0.279-1-0.476-1.648-0.465c-1.033,0.018-2.04,0.64-2.826,1.411
	c-0.166,0.07-0.341,0.118-0.485,0.239c-1.153,0.977-1.972,2.378-1.419,3.919c0.31,0.862,0.979,1.542,1.779,1.973
	c0.355,0.35,0.82,0.613,1.256,0.662c0.273,0.031,0.538,0.011,0.803-0.006c0.115,0.068,0.209,0.154,0.334,0.217
	c1.111,0.555,2.681,0.562,3.661-0.267c0.876-0.739,1.137-1.72,1.079-2.732c0.1-0.232,0.207-0.46,0.273-0.722
	C497.74,644.404,496.271,642.813,494.348,642.481"/>
<path display="none" fill="#E1DD26" d="M502.409,653.961c-0.073-0.021-0.129-0.066-0.205-0.08c-0.229-0.042-0.427-0.019-0.636-0.02
	c-0.522-0.356-1.189-0.499-1.967-0.17c-2.663,1.127-4.05,4.014-2.358,6.583c1.821,2.767,5.489,1.42,7.187-0.645
	C506.201,657.478,505.043,654.457,502.409,653.961"/>
<path display="none" fill="#E1DD26" d="M498.815,629.064c-0.567-0.078-1.141-0.068-1.713,0.032c-1.776,0.181-3.826,1.12-4.189,2.928
	c-0.832,2.374,1.595,5.393,4.14,5.479c1.069,0.037,2.191-0.296,3.135-0.874c1.16-0.494,2.138-1.388,2.515-2.619
	C503.585,631.13,501.354,629.135,498.815,629.064"/>
<path display="none" fill="#E1DD26" d="M481.916,608.171c-0.567-0.078-1.141-0.068-1.712,0.032c-1.777,0.181-3.827,1.12-4.19,2.928
	c-0.832,2.374,1.595,5.393,4.14,5.479c1.069,0.037,2.191-0.296,3.135-0.874c1.16-0.495,2.138-1.388,2.516-2.619
	C486.686,610.236,484.455,608.241,481.916,608.171"/>
<rect x="455.343" y="608.119" display="none" fill="none" width="53.776" height="86.629"/>
<path display="none" fill="#FFFFFF" d="M342.325,685.747c1.432-0.043,2.862-0.146,4.238-0.255c1.375-0.106,2.549-0.25,3.779-0.531
	c1.335,2.717,4.007,4.468,7.436,4.061c3.671-0.436,8.128-2.838,8.224-7.054c0.097-4.289-2.506-8.841-7.077-9.006
	c-0.076-0.084-0.181-0.141-0.278-0.206c-0.344-3.146-1.375-5.868-4.994-6.433c-1.844-0.288-2.5,2.544-0.649,2.833
	c1.643,0.256,2.34,0.76,2.533,2.572c0.036,0.336,0.057,0.673,0.082,1.009c-1.063,0.257-2.019,0.727-2.857,1.343
	c-1.9,0.12-3.795,0.233-5.711,0.224c-0.014-0.035-0.022-0.07-0.037-0.105c-0.023-0.061-0.068-0.105-0.097-0.162
	c0.348-0.059,0.693-0.136,1.023-0.262c1.741-0.667,0.861-3.438-0.894-2.765c-0.144,0.055-0.484,0.078-0.613,0.082
	c-0.075-0.015-0.346-0.051-0.33-0.049c-0.133-0.02-0.265-0.038-0.398-0.056c-0.334-0.042-0.672-0.085-1.008-0.098
	c-0.682-0.026-1.331,0.08-1.92,0.439c-0.75,0.459-0.937,1.726-0.194,2.292c0.547,0.419,1.109,0.521,1.713,0.543
	c-0.101,0.27-0.146,0.559-0.059,0.841c-0.016,0.031-0.039,0.05-0.053,0.082c-0.196,0.433-1.278,0.886-1.649,1.176
	c-0.756,0.589-1.502,1.189-2.227,1.815c-0.279,0.241-0.575,0.484-0.872,0.729c-0.537-0.226-1.096-0.372-1.657-0.422
	c-0.204-0.093-0.437-0.146-0.728-0.104c-2.92,0.433-5.442,2.163-5.54,5.392c-0.093,3.046,1.884,5.579,5.089,5.48
	C338.887,689.082,341.25,687.787,342.325,685.747 M362.781,683.058c-1.124,1.938-3.454,3.126-5.688,3.091
	c-1.786-0.029-3.185-0.796-3.993-2.055c1.327-0.525,2.767-1.03,4.015-1.24c1.735-0.292,2.189-1.591,2.039-2.407
	c-0.248-1.345-0.276-2.946-0.323-4.579C361.783,676.033,364.335,680.378,362.781,683.058 M356.207,680.063
	c-1.308,0.221-2.578,0.7-3.854,1.188c0.001-0.093-0.014-0.178-0.008-0.271c0.093-1.694,0.647-3.09,1.608-4.062
	c0.641-0.039,1.284-0.072,1.929-0.101C355.953,677.905,356.061,678.981,356.207,680.063 M343.128,679.48
	c0.876-0.702,2.264-1.372,3.102-2.287c1.35,0.039,2.688,0,4.022-0.065c-0.66,1.39-0.968,2.991-0.796,4.693
	c0.013,0.126,0.036,0.247,0.053,0.372c-0.53,0.131-1.065,0.24-1.613,0.283c-1.62,0.126-3.324,0.291-5.029,0.369
	c-0.13-0.848-0.524-1.621-1.073-2.289C342.248,680.187,342.699,679.823,343.128,679.48 M336.473,686.25
	c-1.7-0.104-2.648-1.774-1.868-3.379c0.338-0.694,0.812-1.102,1.408-1.356c0.15-0.19,0.384-0.314,0.718-0.292
	c0.248,0.016,0.486,0.071,0.716,0.146c-0.402,0.594-0.769,1.217-0.996,1.84c-0.002,0.004-0.005,0.006-0.007,0.011
	c-0.823,1.685,0.835,2.045,2.336,2.136c-0.073,0.074-0.11,0.157-0.196,0.227c-0.025,0.021-0.063,0.019-0.09,0.036
	c0.021,0.002,0.042,0.005,0.063,0.007C337.948,686.041,337.236,686.297,336.473,686.25"/>
<polygon display="none" fill="#DAE6EB" points="411.941,616.249 404.46,616.401 404.699,690.338 412.18,690.184 "/>
<rect x="404.46" y="616.249" display="none" fill="none" width="7.721" height="74.088"/>
<path display="none" fill="#4DA1B1" d="M426.12,615.184c0.073,22.59,3.812,40.825-18.336,41.279
	c-23.746,0.487-18.528-17.933-18.601-40.521c-0.074-22.59,5.559-47.339,15.759-47.548
	C415.142,568.185,426.047,592.595,426.12,615.184"/>
<path display="none" fill="#E1DD26" d="M97.807,637.967c0.003-0.3-0.104-0.526-0.253-0.712c-0.098-0.691-0.82-1.334-1.648-0.94
	c-2.682,1.278-5.478,1.827-8.444,1.676c-0.515-0.025-0.854,0.243-1.027,0.598c-0.516,0.03-1.005,0.352-1.035,1.018
	c-0.097,2.124,0.48,3.978,1.189,5.965c0.81,2.269,1.444,4.583,1.952,6.93c-0.132-0.005-0.263-0.019-0.401-0.004
	c-0.627-0.269-1.479-0.007-1.592,0.824c-0.062,0.058-0.124,0.117-0.191,0.171c-0.143,0.122-0.282,0.24-0.414,0.374
	c-0.312,0.317-0.522,0.72-0.617,1.153c-0.218,0.992,0.134,2.069,0.966,2.679c1.752,1.286,4.265,0.218,4.708-1.869
	c0.038-0.178,0.043-0.349,0.049-0.521c0.17-0.225,0.258-0.519,0.194-0.871c-0.432-2.387-0.987-4.724-1.673-7.05
	c-0.261-0.887-0.584-1.754-0.888-2.623c2.457-0.603,4.915-1.205,7.373-1.808c0.55,2.981,1.494,5.956,2.508,8.812
	c-1.142-0.265-2.243,0.079-2.765,1.664c-1.023,3.107,3.208,3.137,4.898,2.465c0.106-0.042,0.178-0.118,0.254-0.189
	c0.608-0.176,1.09-0.957,0.831-1.668C99.977,649.09,97.753,643.3,97.807,637.967 M88.015,642.588
	c-0.189-0.761-0.322-1.532-0.337-2.331c2.739,0.093,5.374-0.383,7.899-1.366c0.023,0.602,0.073,1.205,0.139,1.81
	C93.149,641.329,90.582,641.958,88.015,642.588"/>
<path display="none" fill="#E1DD26" d="M123.066,621.867c-2.967-0.142-5.691-0.979-8.234-2.514c-0.44-0.266-0.866-0.188-1.187,0.041
	c-0.469-0.216-1.051-0.165-1.392,0.408c-1.089,1.826-1.458,3.734-1.771,5.819c-0.358,2.382-0.893,4.721-1.554,7.03
	c-0.114-0.067-0.223-0.142-0.351-0.192c-0.426-0.534-1.301-0.705-1.793-0.027c-0.082,0.022-0.165,0.045-0.249,0.062
	c-0.184,0.04-0.362,0.078-0.541,0.134c-0.425,0.132-0.801,0.388-1.089,0.724c-0.661,0.771-0.86,1.888-0.415,2.818
	c0.937,1.961,3.656,2.207,5.033,0.577c0.117-0.14,0.203-0.287,0.289-0.436c0.256-0.117,0.472-0.335,0.583-0.677
	c0.747-2.307,1.362-4.629,1.856-7.003c0.177-0.853,0.297-1.716,0.43-2.573c-0.036-0.132-0.047-0.278-0.024-0.438
	c0.085-0.584,0.546-1.073,0.589-1.643c0.008-0.105,0.046-0.183,0.077-0.267c-0.058-0.016-0.117-0.03-0.175-0.045
	c0.193-0.76,0.44-1.502,0.804-2.213c2.37,1.376,4.917,2.201,7.608,2.527c-0.265,0.541-0.505,1.098-0.733,1.66l-0.213-0.054
	c-0.061,0.298-0.222,0.506-0.292,0.823c-0.098,0.436-0.197,0.855-0.434,1.237c-0.022,0.036-0.056,0.046-0.081,0.077l0.253,0.065
	c-0.924,2.887-1.498,5.955-1.953,8.951c-0.881-0.773-2.014-0.991-3.223,0.159c-2.37,2.255,1.345,4.281,3.153,4.486
	c0.112,0.013,0.212-0.019,0.313-0.046c0.618,0.132,1.412-0.329,1.52-1.078c0.749-5.214,1.524-11.368,4.091-16.044
	c0.144-0.261,0.157-0.512,0.114-0.746C124.314,622.818,123.983,621.911,123.066,621.867"/>
<path fill="#DAE6EB" d="M1270.397,560.652l-1.038-0.132l0.631-0.746c1.244-1.466,2.662-2.754,4.335-3.938l0.944-0.728
	c0.943-0.729,0.746-1.643,0.545-2.122c-0.602-1.426-2.473-2.233-3.741-1.366c-0.109,0.074-0.209,0.152-0.309,0.23
	c-0.101,0.076-0.2,0.154-0.305,0.229l-0.549,0.41c-0.692,0.507-1.373,1.014-2.002,1.546c-1.241,0.954-2.429,1.923-3.616,2.89
	l-0.609,0.497l-0.377-0.65c-1.191-2.15-2.33-4.017-3.482-5.705c-0.618-0.907-1.55-1.043-2.051-1.043
	c-0.725,0-1.457,0.272-1.962,0.728c-0.331,0.297-0.722,0.813-0.709,1.584c0.022,1.572,0.27,3.087,0.532,4.489l0.038,0.198
	l-0.114,0.173c-0.262,0.391-0.756,0.589-1.472,0.589c-1.331,0-3.507-0.666-6.026-1.438l-1.428-0.434
	c-1.625-0.485-2.741,0.614-2.946,1.743c-0.171,0.948,0.201,2.222,1.812,2.692c2.772,0.812,5.158,2.067,7.126,3.189l0.708,0.404
	l-0.643,0.481c-3.33,2.49-6.453,5.482-6.768,10.46c-0.03,0.504,0.156,0.951,0.559,1.33c0.591,0.555,1.582,0.878,2.499,0.784
	l0.912-0.087l-0.248,0.785c-0.234,0.739-0.069,1.49,0.464,2.116c0.55,0.645,1.422,1.062,2.223,1.062c0.811,0,1.431-0.41,1.793-1.187
	c1.278-2.722,3.266-5.4,5.906-7.961c0.142-0.14,0.288-0.215,0.385-0.264l0.984-0.77l0.128,1.12
	c0.735,19.125,2.346,34.694,5.07,49.003c1.644,8.638,0.71,27.299-0.195,45.346c-0.895,17.856-1.82,19.696-0.201,27.926
	c0.263,1.332,1.325,1.532,1.936,1.532c0.861,0,1.757-0.379,2.332-0.99c0.371-0.391,0.773-1.055,0.589-1.997
	c-1.454-7.395-0.38-8.502,0.659-25.647c1.047-17.24,2.129-35.066,0.69-42.616c-3.057-16.047-4.922-32.877-5.702-51.449l-0.058-1.401
	l1.117,0.991c1.551,1.376,2.962,3.183,3.993,4.5c0.311,0.396,0.592,0.757,0.839,1.059c0.545,0.663,1.316,1.027,2.172,1.027
	c0.808,0,1.578-0.325,2.059-0.874c0.334-0.382,0.677-1.038,0.404-2.007c-0.72-2.561-2.241-4.938-4.647-7.271l-0.937-0.908
	l1.385-0.016c0.705-0.01,1.54-0.031,2.387-0.138c1.137-0.143,2.087-0.801,2.423-1.675c0.302-0.79,0.061-1.593-0.678-2.264
	C1276.182,562.143,1273.643,561.067,1270.397,560.652"/>
<path fill="#DAE6EB" d="M1315.908,544.04c-2.496-3.05-4.594-5.076-7.016-6.778l-0.765-0.538l0.872-0.388
	c1.617-0.491,2.795-0.793,3.927-1.021c0.271-0.058,0.548-0.131,0.823-0.204c0.488-0.129,0.978-0.256,1.488-0.326
	c1.64-0.337,1.599-1.715,1.545-2.13c-0.141-1.096-1.065-2.259-2.507-2.259l-0.187,0.007c-4.878,0.323-8.769,1.905-12.247,3.567
	l-0.822,0.394l-0.291-2.685c-0.191-1.708-0.379-3.416-0.506-5.137c-0.107-1.489-1.252-2.02-2.288-2.02
	c-1.312,0-2.742,0.845-2.808,2.407c-0.106,1.735-0.12,3.498-0.133,5.203l-0.013,1.541l-0.612,0.003
	c-3.658,0.02-6.683,0.314-9.808,0.956c-1.65,0.34-1.688,1.474-1.627,1.946c0.166,1.285,1.633,2.652,3.48,2.302l4.661-0.343
	l0.184,0.008c0.231,0.009,0.466,0.019,0.698,0.042l1.957,0.188l-1.726,0.843c-2.499,1.22-4.712,2.773-7.265,4.733
	c-1.027,0.788-1.092,2.107-0.719,3c0.489,1.174,1.623,1.627,2.898,1.076c2.801-1.208,5.133-2.257,7.4-3.451l0.774-0.408l0.153,0.79
	c0.118,0.616,0.094,1.352-0.074,2.312c-0.595,3.371-1.81,6.73-2.986,9.979c-0.787,2.182-1.604,4.438-2.212,6.647
	c-1.969,7.175-1.088,15.155-0.235,22.872c0.183,1.651,0.361,3.277,0.509,4.863c0.562,6.075,1.615,12.193,2.634,18.11
	c1.042,6.062,2.12,12.327,2.676,18.568c0.641,7.181-0.737,25.597-2.07,43.406c-1.147,15.342-2.231,13.21-1.947,19.376
	c0.068,1.479,1.338,2.006,2.405,2.006c0.786,0,1.55-0.274,2.046-0.732c0.458-0.425,0.674-0.974,0.644-1.633
	c-0.52-11.31,2.857-45.212,3.974-56.726c0.789-8.139-0.93-16.532-2.593-24.648c-0.542-2.648-1.104-5.39-1.56-8.05
	c-2.488-14.498-2.967-26.441-1.467-36.509c0.564-3.794,1.735-7.405,2.869-10.896c0.461-1.422,0.922-2.844,1.343-4.274l0.291-0.992
	l0.771,0.762c2.883,2.854,5.297,5.629,7.385,8.483c0.454,0.581,1.164,0.908,1.987,0.908c0.941,0,1.901-0.438,2.388-1.091
	c0.285-0.38,0.543-1.009,0.147-1.843c-1.199-2.533-2.696-4.991-4.143-7.368c-0.623-1.022-1.246-2.045-1.849-3.076l-0.74-1.267
	l1.507,0.496c1.987,0.653,3.86,1.436,5.568,2.325c0.31,0.137,0.668,0.214,1.034,0.214c0.948,0,1.897-0.543,2.359-1.351
	C1316.515,545.498,1316.447,544.699,1315.908,544.04"/>
<path fill="#4DA1B1" d="M1437.986,685.325c-0.028-0.355-0.129-0.688-0.29-0.952c-0.868-6.207,0.37-13.243,0.512-19.476
	c0.08-3.552-0.785-7.073-0.92-10.605c-0.062-1.635,0.561-3.234,0.528-4.855c-0.02-0.944-0.095-1.776-0.079-2.613
	c0.128-0.588,0.251-1.181,0.351-1.781c0.374-2.258-0.083-4.933-0.114-7.224c-0.076-5.496,0.312-10.722-0.067-16.207
	c-0.159-2.301,0.484-4.719,0.531-7.04c0.055-2.665-0.642-5.318-0.668-7.999c-0.029-2.901-0.021-5.772-0.1-8.676
	c-0.069-2.573-0.473-5.657-0.187-8.196c0.153-1.357-1.05-2.126-1.753-1.661c-0.091-0.125-0.229-0.188-0.402-0.105
	c-0.006,0.003-0.014,0.005-0.02,0.007c-0.323-0.069-0.603,0.017-0.826,0.197c-0.489,0.055-1.002,0.045-1.436,0.097
	c-0.576,0.066-1.155,0.108-1.733,0.156c-5.446,0.255-11.025-0.063-16.405,0.021c-3.75,0.059-7.49,0.343-11.229,0.659
	c-4.435,0.079-8.869,0.191-13.289,0.502c-3.72,0.261-7.432,0.584-11.156,0.574c-3.792-0.01-7.578-0.22-11.37,0.046
	c-7.788,0.544-15.498-0.042-23.304,0.038c-0.178,0.002-0.295,0.112-0.359,0.262c-0.754,0.297-1.182,1.681-0.496,2.465
	c0.629,2.745,0.003,7.601,0.126,10.43c0.183,4.194,0.852,8.221,0.696,12.447c-0.136,3.719-0.014,7.359-0.025,11.074
	c-0.011,4.061-1.306,8.125-1.41,12.231c-0.025,1.022,0.482,4.74,0.516,5.264c0.134,2.167-0.501,4.81-0.69,7.028
	c-0.372,4.373-0.65,8.808-0.771,13.197c-0.205,7.535-1.226,15.588-0.521,23.007c0.034,0.357,0.151,0.641,0.315,0.857
	c0.027,0.232,0.16,0.438,0.407,0.428c0.047-0.002,0.094-0.003,0.141-0.005c0.295,0.115,0.614,0.103,0.878-0.03
	c3.105-0.118,6.21-0.182,9.315-0.226c0.417,0.37,1.036,0.364,1.446-0.018c7.025-0.088,19.671,0.646,21.153,0.705
	c0.315,0.014,6.007-0.016,8.333-0.089c3.203-0.1,6.408,0.029,9.612-0.051c2.2-0.055,4.401-0.166,6.604-0.297
	c1.252,0.121,2.508,0.186,3.699-0.193c1.532,0.033,0.521,0.035,2.054-0.014c1.083,0.03,2.17-0.024,3.252-0.056
	c3.894-0.116,7.784,0.161,11.678,0.11c5.632-0.072,10.133-1.278,14.986-1.444c0.483,0.194,0.993,0.281,1.51,0.212
	c0.627-0.085,1.156-0.603,1.159-1.447C1438.168,685.822,1438.101,685.557,1437.986,685.325"/>
<path fill="#077088" d="M1373.71,610.819c0.451-0.125,0.903-0.443,1.132-0.861c1.087-1.982,0.104-4.163,0.214-6.249
	c0.541-0.025,1.083-0.091,1.51-0.426c0.431-0.338,0.574-0.872,0.628-1.413c3.372-0.146,6.746-0.304,10.121-0.275
	c0.125,0.369,1.062,1.037,1.19,1.161c0.23,0.22,0.52,0.356,0.825,0.433c0.364,0.089,0.854-0.048,1.021-0.418
	c0.19-0.421,0.524-0.737,0.821-1.082c1.847,0.035,3.694,0.004,5.54,0.068c1.655,0.058,3.258,0.479,4.883,0.217
	c0.024,0.184,0.054,0.366,0.092,0.55c0.084,0.385,0.49,0.671,0.875,0.664c0.371-0.009,0.742-0.055,1.114-0.072
	c-0.184,1.417,0.085,2.862,0.233,4.284c0.071,0.683,0.135,1.349,0.429,1.976c0.265,0.564,0.886,0.728,1.478,0.829
	c0.004,0.303,0.008,0.606,0.013,0.91c0.002,0.079,0.012,0.152,0.029,0.222c-2.178,0.106-4.349,0.276-6.539,0.281
	c-3.188,0.007-6.371-0.051-9.556,0.118c-5.468,0.29-10.953,0.487-16.432,0.596c0.204-0.44,0.205-0.973-0.02-1.468
	C1373.449,610.865,1373.587,610.853,1373.71,610.819"/>
<path fill="#FFFFFF" d="M1352.069,623.973c-0.192-1.355-0.347-2.686-0.335-4.058c0.02-2.263,0.26-4.486,0.052-6.734
	c4.09,0.308,8.227,0.165,12.321,0.209c1.914,0.021,3.838-0.112,5.747-0.06c1.007,0.028,2.136,0.2,3.143-0.045
	c2.657-0.064,5.31-0.249,7.97-0.265c3.068-0.017,6.103-0.094,9.164-0.318c3.178-0.234,6.373-0.164,9.556-0.156
	c2.934,0.007,5.832-0.266,8.756-0.344c0.222-0.006,3.667-0.028,5.212,0.082c1.852,0.131,3.673,0.144,5.522-0.024
	c3.781-0.343,7.597-0.156,11.39-0.127c-0.011,2.14-0.165,4.273-0.059,6.415c0.101,2.062,0.158,4.124,0.182,6.188
	c-0.27,0.091-0.5,0.274-0.63,0.546c-2.235,0.024-4.483,0.287-6.715,0.317c-3.438,0.047-6.875,0.125-10.314,0.107
	c-7.017-0.036-13.968,0.82-20.985,0.855c-7.175,0.036-14.345,0.186-21.518,0.262c-3.497,0.037-6.993,0.072-10.489,0.128
	c-2.322,0.037-5.249,0.649-7.555-0.017c-0.07-0.236-0.207-0.419-0.385-0.547C1352.055,625.589,1352.184,624.777,1352.069,623.973"/>
<rect x="1351.73" y="612.056" fill="none" width="78.959" height="15.189"/>
<path fill="#077088" d="M1426.644,614.885c-23.535,1.336-47.096,1.807-70.666,1.411c-1.665-0.028-1.596,2.551,0.062,2.579
	c23.568,0.396,47.131-0.076,70.665-1.411C1428.362,617.37,1428.307,614.79,1426.644,614.885"/>
<path fill="#077088" d="M1427.001,619.996c-23.844,1.455-47.765,1.317-71.643,1.553c-1.664,0.017-1.599,2.596,0.062,2.578
	c23.878-0.234,47.799-0.097,71.642-1.552C1428.719,622.475,1428.662,619.896,1427.001,619.996"/>
<path fill="#077088" d="M1384.502,687.157c-3.776-0.415-7.579-0.709-11.379-0.593c0.197-6.479-0.184-12.877-0.541-19.336
	c-0.41-7.425-0.146-18.028-0.341-25.462c-0.045-1.674,11.772-0.544,16.168-0.316c-1.647,14.609,1.733,30.801,0.396,46.221
	C1387.37,687.495,1385.937,687.315,1384.502,687.157"/>
<path fill="#077088" d="M1393.605,685.966c0.116-14.706-3.209-29.834-0.625-44.511c5.555,0.036,11.129,0.188,16.666-0.175
	c-0.75,14.946,1.371,29.74,0.894,44.623c0,0.025,0.005,0.046,0.004,0.072C1404.9,685.906,1399.247,686.203,1393.605,685.966"/>
<path fill="#077088" d="M1428.875,608.688c-6.435-0.863-20.062-0.444-20.155-0.396c-2.365-0.698-1.657-8.399-4.33-9.489
	c-1.425-0.579-2.832-0.404-4.348-0.354c-2.849,0.093-5.873,0.186-8.708-0.124c-1.601-1.854-3.005-2.231-4.567-0.386
	c-1.255,1.482-7.021,0.613-8.839,0.749c-1.879,0.14-3.913,0.25-5.569,1.189c-0.574,0.326-0.672,0.9-0.568,1.473
	c0.222,1.224,0.503,2.111,0.487,3.312c-0.016,1.084-0.137,2.159-0.361,3.223c-1.221,0.864-2.552,1.302-3.994,1.31
	c-2.854,0.279-5.729,0.002-8.589-0.025c-2.807-0.027-5.603,0.341-8.407,0.191c-0.885-0.047-0.914,1.325-0.031,1.373
	c5.117,0.273,10.581,0.093,15.714-0.074c3.144-0.101,6.456,0.086,6.86-3.662c0.186-1.722,0.598-4.062-0.202-5.714
	c-0.435-0.896,8.483-1.404,9.521-1.408c1.146-0.005,3.344,0.528,4.332-0.39c0.475-0.44,0.893-0.86,1.288-1.377
	c0.069-0.089,2.19,1.455,2.24,1.517c0.256,0.321,0.602,0.281,0.849,0.085c2.411,0.234,4.822,0.025,7.243,0.089
	c2.866,0.076,5.365-0.789,6.278,2.765c0.621,2.416,0.602,7.112,3.995,7.173c0.177,0.003,13.53-0.52,19.829,0.325
	C1429.72,610.177,1429.743,608.804,1428.875,608.688"/>
<path fill="#E1DD26" d="M1380.333,607.301c-0.565,0.143-0.323,1.016,0.242,0.873c0.482-0.122,0.969-0.172,1.464-0.197
	c0.331-0.017,0.658,0.004,0.983,0.067c0.86,0.166-0.206,1.453-0.353,1.602c-0.972,0.984-2.701,0.743-3.832,0.06
	c0.032-0.06,0.055-0.13,0.057-0.214c0.04-1.606,0.661-3.245,0.243-4.841c1.402-0.271,3.077,0.978,4.069,1.701
	c0.474,0.344,0.924-0.443,0.456-0.784c-1.264-0.92-2.214-1.641-3.835-1.755c-0.983-0.07-2.089,0.303-2.683,1.122
	c-1.375,1.896-0.489,4.499,1.378,5.677c1.622,1.024,4.79,0.713,5.513-1.336C1384.926,606.751,1381.94,606.894,1380.333,607.301"/>
<path fill="#E1DD26" d="M1391.094,606.383c-0.944,0.094-1.89,0.082-2.837,0.057c-0.059-0.627-0.176-1.246-0.339-1.852
	c0.764-0.051,1.525-0.111,2.287-0.199c0.573-0.067,0.578-0.975-0.002-0.906c-1.576,0.182-3.158,0.255-4.742,0.341
	c-0.197,0.01-0.388,0.13-0.436,0.333c-0.191,0.813-0.1,1.512,0.085,2.32c0.298,1.309,0.122,2.659,0.141,3.988
	c0.004,0.253,0.205,0.445,0.454,0.453c0.244,0.007,0.489,0.012,0.734,0.019c0.135,0.04,0.259,0.042,0.369,0.009
	c1.135,0.029,2.27,0.052,3.405,0.053c0.584,0.001,0.582-0.905-0.001-0.906c-0.731-0.001-1.463-0.011-2.193-0.024
	c0.203-0.886,0.299-1.804,0.283-2.721c0.933,0.025,1.863,0.034,2.793-0.058C1391.671,607.232,1391.675,606.325,1391.094,606.383"/>
<path fill="#E1DD26" d="M1401.385,607.097c-0.734-1.217-1.153-2.609-2.062-3.716c-0.189-0.229-0.539-0.139-0.699,0.071
	c-0.156-0.214-0.503-0.304-0.702-0.075c-0.581,0.668-0.687,1.54-0.95,2.359c-0.335-0.706-0.729-1.39-0.94-2.159
	c-0.056-0.199-0.235-0.325-0.438-0.332c-0.102-0.002-0.203-0.016-0.303-0.024c-0.103-0.046-0.218-0.071-0.351-0.07
	c-0.033,0.001-0.064,0.009-0.097,0.018c-0.136-0.022-0.272-0.045-0.407-0.079c-0.408-0.085-0.646,0.338-0.539,0.629
	c-0.745,1.114-1.067,2.5-1.348,3.864c-0.354,0.607-0.591,1.32-0.689,2.013c-0.092,0.22-0.172,0.441-0.229,0.667
	c-0.117,0.465,0.45,0.709,0.736,0.47c0,0,0.008-0.001,0.012-0.002c0.513-0.08,1.021-0.062,1.536-0.068
	c0.264-0.004,0.429-0.206,0.452-0.454c0.136-1.458,1.116-2.497,1.497-3.812c0.199,0.338,0.41,0.66,0.615,0.975
	c-0.132,0.454-0.26,0.909-0.389,1.363c-0.275,0.474-0.563,1.001-0.525,1.401c0.01,0.101,0.046,0.182,0.096,0.247
	c0.048,0.196,0.234,0.352,0.445,0.355c0.53,0.008,1.047-0.063,1.575-0.1c0.249-0.017,0.447-0.193,0.452-0.454
	c0.02-1.133,0.902-2.368,1.453-3.397c0.053,0.187,0.096,0.334,0.122,0.401c0.474,1.213,0.984,2.521,1.961,3.419
	c0.313,0.286,0.729,0.064,0.773-0.321C1402.575,609.131,1401.962,608.052,1401.385,607.097"/>
<path fill="#DAE6EB" d="M1236.578,671.959c0.044-0.64-0.551-2.622-0.596-2.953c-0.088-0.55-1.211-1.521-2.138-1.872
	c-0.198-0.067-0.55-0.243-0.858-0.375c0.176,1.63,0.221,3.327,0.264,4.847c2.402,0.287,3.041,0.573,3.548,0.639L1236.578,671.959z
	 M1233.515,671.363c-0.021-1.233-0.088-2.731-0.22-4.164c0.176,0.089,0.33,0.154,0.462,0.198c0.882,0.354,1.873,1.256,1.939,1.653
	c0.021,0.088,0.088,0.33,0.154,0.638c0.177,0.639,0.462,1.697,0.462,2.16C1235.828,671.738,1235.057,671.54,1233.515,671.363
	 M1236.578,671.959c0.044-0.64-0.551-2.622-0.596-2.953c-0.088-0.55-1.211-1.521-2.138-1.872c-0.198-0.067-0.55-0.243-0.858-0.375
	c0.176,1.63,0.221,3.327,0.264,4.847c2.402,0.287,3.041,0.573,3.548,0.639L1236.578,671.959z M1233.515,671.363
	c-0.021-1.233-0.088-2.731-0.22-4.164c0.176,0.089,0.33,0.154,0.462,0.198c0.882,0.354,1.873,1.256,1.939,1.653
	c0.021,0.088,0.088,0.33,0.154,0.638c0.177,0.639,0.462,1.697,0.462,2.16C1235.828,671.738,1235.057,671.54,1233.515,671.363
	 M1236.578,671.959c0.044-0.64-0.551-2.622-0.596-2.953c-0.088-0.55-1.211-1.521-2.138-1.872c-0.198-0.067-0.55-0.243-0.858-0.375
	c0.176,1.63,0.221,3.327,0.264,4.847c2.402,0.287,3.041,0.573,3.548,0.639L1236.578,671.959z M1233.515,671.363
	c-0.021-1.233-0.088-2.731-0.22-4.164c0.176,0.089,0.33,0.154,0.462,0.198c0.882,0.354,1.873,1.256,1.939,1.653
	c0.021,0.088,0.088,0.33,0.154,0.638c0.177,0.639,0.462,1.697,0.462,2.16C1235.828,671.738,1235.057,671.54,1233.515,671.363"/>
<path fill="#B4CCD6" d="M1239.816,680.728c-0.021-0.221-0.044-0.463-0.066-0.727c-0.088-1.168-0.22-2.644-0.771-3.768
	c0.176-0.64-0.022-2.291-0.177-2.843c0.022-0.088,0.045-0.154,0.066-0.242c0.176-1.167,0.33-2.843-0.309-3.967
	c-0.154-0.241-0.22-0.506-0.286-0.793c-0.088-0.33-0.177-0.661-0.375-0.969c-0.286-0.485-1.718-1.961-3.062-2.468
	c-0.199-0.088-0.42-0.176-0.618-0.287c-0.353-0.154-0.704-0.308-1.058-0.418c0-0.463-0.021-0.881-0.044-1.256
	c0.022-0.198,0-0.507-0.021-0.661v-1.124l0.021-0.242c0.044-2.181,0.088-4.648-1.08-6.609c-0.065-0.11-0.132-0.198-0.241-0.309
	c-0.242-0.243-1.257-0.64-1.829-0.64c-0.089,0-0.177,0-0.265,0.022c0,0-0.065,0.022-0.287,0.022c-0.858,0-2.996-0.221-4.405-0.354
	c-0.397-0.044-0.728-0.088-0.992-0.109c-2.071-0.198-4.252-0.331-6.479-0.419c-4.78-0.198-8.988-0.309-12.866-0.353
	c-1.896-0.021-2.908,0-3.79,0.022c-0.529,0.021-1.035,0.044-1.652,0.044c-0.794,0-1.719-0.022-2.887-0.088
	c-2.05-0.11-4.055-0.222-6.06-0.287l-2.622-0.154c-0.858-0.044-1.695-0.088-2.556-0.132c-0.308,0-0.661,0-1.057,0.021h-0.11
	c-0.485-0.021-0.882-0.065-1.212-0.132c-0.133-0.11-0.287-0.198-0.463-0.243c-0.022-0.109-0.11-0.22-0.242-0.22l-1.763-0.088
	c-0.154,0-1.609,0.088-2.071,0.353c-0.066,0.044-0.11,0.11-0.11,0.198c-0.286,1.719-0.243,3.503-0.198,5.244
	c0,0.749,0.021,1.477,0.021,2.181c-0.021,0.771-0.066,1.564-0.154,2.578c-0.044,0.154-0.044,0.309-0.021,0.485
	c-0.044,0.264-0.066,0.55-0.11,0.815c-0.991,0.308-1.873,0.99-2.754,1.695c-0.243,0.199-0.463,0.354-0.661,0.485
	c-0.528,0.331-0.926,0.595-1.3,1.498c-0.353,0.793-0.265,1.256-0.154,1.807c0.044,0.221,0.089,0.463,0.11,0.771l0.021,0.353
	c0.066,0.684,0.133,1.454,0.485,2.093c0.044,0.066,0.066,0.11,0.11,0.133c-0.089,0.132-0.177,0.241-0.221,0.375
	c-0.463,0.902-1.74,6.983-1.851,8.327c-0.044,0.397-0.155,1.036-0.309,1.852c-0.596,3.437-1.608,9.144,0.573,10.157
	c0.197,0.088,0.375,0.133,0.551,0.133c0.551,0,1.013-0.419,1.167-1.036c0.089-0.397,0-0.903-0.309-1.256
	c0.11-0.198,0.088-0.485,0.066-0.793c-0.022-0.198-0.044-0.375-0.022-0.529c0.066-0.749,0.154-1.476,0.265-2.181
	c0.154-0.948,0.572-5.112,0.662-6.037c0.088-0.926,0.285-1.917,0.615-3.151v-0.065c0.111-0.397,0.222-0.793,0.331-1.168h1.41
	c0.022,0.661,0.132,1.365,0.242,2.026l0.111,0.573c0.241,1.608,0.197,6.479-0.09,8.307c-0.439,0.154-0.814,0.572-0.925,1.058
	c-0.109,0.528,0.088,1.036,0.552,1.366c0.484,0.331,0.814,0.396,1.321,0.44c0.573,0.066,1.168-0.353,1.345-0.925
	c0.595-1.851,0.704-6.897,0.595-8.968c-0.022-0.463-0.132-0.992-0.243-1.564c-0.154-0.771-0.309-1.564-0.286-2.27
	c0.925,0.044,1.873,0.088,2.798,0.132c1.19,0.065,2.38,0.133,3.592,0.177c2.094,0.066,4.274,0.088,6.698,0.088
	c2.996,0,5.883-0.044,8.329-0.088c1.586-0.044,3.172-0.066,4.737-0.111c3.371-0.065,6.852-0.153,10.289-0.176
	c1.542-0.021,3.106-0.065,4.648-0.088c1.873-0.065,3.812-0.11,5.729-0.11c1.607,0,3.04,0.045,4.363,0.11
	c0.021,0.066,0.043,0.11,0.088,0.154c0.021,0.021,0.065,0.044,0.109,0.065c-0.109,0.64-0.331,1.521-0.572,2.49
	c-0.771,3.239-1.873,7.668-0.508,9.629c0.397,0.572,0.971,0.903,1.697,0.991c0.793,0.11,1.344-0.419,1.388-1.212
	c0.044-0.551-0.243-1.167-0.882-1.388c0.045-0.177,0.067-0.396,0.133-0.728c0.066-0.418,0.133-0.902,0.198-1.146
	c0.132-0.484,0.176-1.586,0.198-2.754c0.044-1.102,0.066-2.379,0.221-2.82c0.066-0.22,0.132-0.441,0.198-0.661
	c0.264-0.749,0.551-1.608,0.661-2.446c0.793,0,1.124-0.044,1.277-0.044c0.089-0.021,0.022-0.044,0.242,0.022
	c0.178,0.021,0.508,0.109,1.322,0.287c0.066,0.109,0.154,0.197,0.265,0.308c0.771,0.683,0.859,2.468,0.926,3.769
	c0.021,0.352,0.021,0.66,0.065,0.925c0.22,2.27,0.397,4.318,0.529,6.235c-0.485,0.154-0.771,0.617-0.728,1.167
	c0.044,0.729,0.661,1.478,1.564,1.39c0.507-0.045,0.749-0.155,1.168-0.331c0.397-0.154,0.793-0.661,0.749-1.146
	C1240.323,686.258,1240.104,683.548,1239.816,680.728 M1177.572,665.921c-0.198,0.485-0.353,1.455-0.44,2.314
	c-0.11,0.858-0.154,1.607-0.154,1.607c-0.066,0.354-0.132,0.596-0.11,0.749c-0.021,0.045-0.044,0.067-0.065,0.111h-0.816
	c-0.022-0.044-0.022-0.066-0.043-0.111c0-0.021-0.022-0.088-0.045-0.176l-0.044-0.088c-0.022-0.132-0.066-0.264-0.088-0.374
	c-0.022-0.177-0.11-0.354-0.221-0.485c0-0.176-0.021-0.331-0.021-0.484c0-0.133-0.021-0.286-0.021-0.397
	c-0.022-0.242-0.089-0.439-0.133-0.617c-0.089-0.352-0.11-0.418,0.396-0.683c0.572-0.286,0.881-0.594,1.146-0.903
	c0.198-0.198,0.375-0.374,0.617-0.551v0.088H1177.572z M1181.692,655.191c0-0.265,0-0.552,0.022-0.837
	c0.551,0.065,1.212,0.088,1.917,0.088h0.528c0.926,0.065,1.852,0.088,2.666,0.088l0.705-0.022c0.397,0,0.771,0.022,1.124,0.022
	c0.793,0.021,1.608,0.065,2.423,0.109l1.764,0.09c1.233,0.065,1.763,0.109,2.114,0.132c0.596,0.044,0.793,0.044,2.755,0.109
	l2.159,0.044c5.223,0.133,10.62,0.265,15.931,0.793c0.814,0.089,2.137,0.11,3.679,0.133c1.256,0.021,2.688,0.044,4.032,0.109
	c1.036,0.045,2.026,0.133,2.908,0.222c1.079,0.088,1.962,0.176,2.401,0.109c0.155,0.022,0.331,0.022,0.485,0.044
	c0,0.242,0,0.485,0.021,0.771c-2.335-0.198-4.891-0.286-7.998-0.286c-1.828,0-3.701,0.021-5.508,0.044
	c-1.807,0.044-3.68,0.065-5.509,0.065c-2.357,0-4.318-0.044-6.169-0.153l-1.63-0.11c-2.932-0.177-5.972-0.375-8.968-0.375
	c-1.19,0-2.291,0.022-3.35,0.088c-0.595,0.044-1.189,0.088-1.785,0.132c-1.146,0.089-2.335,0.178-3.503,0.178
	c-1.256,0-2.336-0.111-3.305-0.331C1181.67,656.006,1181.67,655.588,1181.692,655.191 M1181.031,659.069
	c1.08,0.241,2.247,0.353,3.658,0.353c1.167,0,2.357-0.089,3.48-0.155c0.464-0.021,0.926-0.065,1.366-0.088
	c1.19-0.065,2.401-0.088,3.725-0.088c3.261,0,6.588,0.198,9.804,0.397h0.111c5.066,0.308,9.584,0.396,13.902,0.286
	c2.203-0.066,4.055-0.11,5.972-0.11c2.488,0,4.583,0.066,6.544,0.242c0.021,0.331,0.044,0.639,0.065,0.948v1.101
	c-0.771,0-1.564,0.067-2.313,0.111c-0.947,0.065-1.917,0.153-2.842,0.109c-1.146-0.044-2.271-0.109-3.416-0.176
	c-0.947-0.067-1.916-0.133-2.864-0.177c-4.164-0.198-7.623-0.286-10.884-0.286h-2.138l-1.277,0.021
	c-2.115,0.044-4.209,0.066-6.303,0.066c-2.247,0-4.208-0.044-6.015-0.11c-1.278-0.044-2.556-0.088-3.834-0.132
	c-0.815-0.022-1.652-0.044-2.467-0.089c-0.596-0.021-1.234-0.066-1.852-0.11c-0.926-0.088-1.895-0.153-2.842-0.132
	C1180.745,660.413,1180.877,659.752,1181.031,659.069 M1180.238,663.982c0.022-0.066,0.022-0.133,0.022-0.198
	c0.088-0.022,0.176-0.022,0.264-0.066c1.036-0.021,2.094,0.066,3.129,0.154c0.749,0.044,1.498,0.11,2.248,0.132
	c1.586,0.045,3.194,0.089,4.781,0.155l1.586,0.065c1.454,0.044,3.019,0.089,4.825,0.089c1.675,0,3.372-0.022,5.046-0.045
	c0.991-0.021,1.982-0.044,2.975-0.044c4.671-0.044,9.342,0.066,13.792,0.309c0.639,0.044,1.3,0.088,1.961,0.132
	c1.41,0.111,2.865,0.199,4.341,0.221c0.749,0,1.521-0.065,2.247-0.132c0.728-0.067,1.478-0.11,2.204-0.11v1.345
	c-3.129-0.133-6.588-0.178-10.841-0.178c-2.203,0-4.384,0-6.588,0.022c-2.181,0.022-4.362,0.022-6.566,0.022h-3.018
	c-3.57,0-7.359,0.044-11.634,0.109c-1.079,0.023-2.182,0.067-3.306,0.111c-1.476,0.065-2.996,0.132-4.494,0.132
	c-1.102,0-2.094-0.044-2.996-0.11C1180.173,665.371,1180.173,664.665,1180.238,663.982 M1220.516,670.747
	c-2.732,0-5.729,0.066-9.387,0.198c-1.233,0.044-2.512,0.132-3.724,0.22c-2.137,0.132-4.319,0.287-6.478,0.221
	c-1.564-0.044-2.115-0.177-2.622-0.287c-0.462-0.132-0.903-0.241-2.027-0.241c-0.264,0-0.529,0.021-0.793,0.021
	c-0.837-0.154-1.961-0.088-2.997-0.021l-0.572,0.044h-0.748c-0.662-0.044-1.323-0.066-1.984-0.11
	c-1.432-0.088-2.908-0.177-4.34-0.177c-1.234,0-2.291,0.066-3.283,0.199c-0.286,0.021-0.551,0.088-0.815,0.176l-1.102-0.088v-0.088
	c0.088-0.485,0.11-1.015,0.154-1.454c0-0.199,0.021-0.375,0.021-0.529c0.022-0.022,0.022-0.044,0.022-0.066
	c0.991,0.066,2.07,0.11,3.261,0.11c1.499,0,3.019-0.066,4.495-0.11c1.124-0.044,2.225-0.088,3.327-0.11
	c3.855-0.066,8.549-0.132,13.241-0.11c2.799,0,5.598-0.021,8.373-0.021c2.138-0.022,4.274-0.045,6.411-0.045
	c4.275,0,7.603,0.066,10.731,0.199c0.044,0.947,0.176,1.718,0.374,2.379C1227.125,670.857,1223.996,670.747,1220.516,670.747
	 M1233.25,671.606c-0.044-1.521-0.088-3.218-0.264-4.848c0.309,0.132,0.661,0.309,0.859,0.374c0.925,0.354,2.049,1.322,2.137,1.873
	c0.044,0.33,0.639,2.314,0.595,2.952l0.221,0.287C1236.291,672.179,1235.652,671.892,1233.25,671.606"/>
<path fill="#DAE6EB" d="M1074.099,640.333c0.005-2.821,0.04-5.657,0.076-8.502c0.106-8.598,0.216-17.487-0.55-26.088
	c-0.035-0.394-0.187-0.728-0.488-1.078l-0.477-0.557l0.427-0.596c0.457-0.639,1.124-1.858,0.44-2.846
	c-0.644-0.935-1.646-1.409-2.694-1.271c-1.599,0.218-2.522,0.852-2.995,2.051c-0.635,1.611,1.384,2.964,1.616,3.113l0.382,0.286
	l0.07,0.527l-0.039,0.312l0.203,1.029l-1.062-0.105c-3.834,0.297-7.914,0.442-12.471,0.442c-6.966,0-14.103-0.344-21.003-0.678
	c-5.531-0.268-11.249-0.542-16.788-0.636l-0.476-0.008l-0.272-0.388c-0.139-0.198-0.278-0.396-0.449-0.597
	c-0.976-1.155-2.367-1.791-3.916-1.791h-0.248l-0.286-0.122c-0.571-0.328-1.151-0.339-1.74-0.02c-0.924,0.5-1.803,1.37-2.543,2.517
	l-0.271,0.422l-0.503,0.006c-7.98,0.081-16.098,0.29-23.948,0.49c-8.936,0.229-18.176,0.465-27.268,0.518l-1.196,0.007l0.283-1.161
	c0.097-0.399,0.037-0.807-0.182-1.21l-0.478-0.882l1.112-0.494c0.62-0.298,0.915-0.646,1.002-1.084l0.083-0.237
	c0.199-0.397,0.314-0.773,0.351-1.15c0.104-1.093-1.002-2.67-1.979-3.194c-2.186-1.171-4.026,1.023-4.321,3.269
	c-0.098,0.756,0.263,1.627,0.943,2.271l0.559,0.53l-0.604,0.879c-1.089,2.041-1.265,3.19-0.789,5.71
	c0.626,3.322,0.573,6.589,0.524,9.75c-0.046,2.84-0.087,5.522,0.319,8.256c0.57,3.826,0.052,8.147-0.449,12.327
	c-0.366,3.045-0.71,5.923-0.664,8.593c0.031,1.738,0.102,4.208,0.182,7.088c0.29,10.268,0.729,25.783,0.066,31.974
	c-0.053,0.492,0.048,0.883,0.298,1.162c0.773,0.86,3.252,0.615,3.464-1.373c0.579-5.415,0.317-13.582,0.04-22.229
	c-0.375-11.683-0.763-23.764,0.816-31.164c0.514-2.409,0.33-4.373,0.116-6.647c-0.108-1.144-0.221-2.337-0.25-3.661l-0.02-0.807
	l0.794-0.135c18.424-3.157,35.292-4.991,51.569-5.607l0.352-0.014l0.273,0.223c0.724,0.591,1.554,0.954,2.537,1.107
	c2.027,0.319,3.587-0.109,4.87-1.281l0.263-0.241l0.357-0.004c1.044-0.012,2.089-0.017,3.132-0.017
	c17.175,0,33.761,1.508,49.296,4.481l0.772,0.147l-0.016,0.788c-0.099,4.987-0.357,11.266-0.629,17.911
	c-0.667,16.271-1.497,36.52-0.401,48.7c0.131,1.453,1.396,1.84,2.124,1.84c0.541,0,1.018-0.182,1.309-0.498
	c0.261-0.287,0.37-0.686,0.325-1.187c-0.654-7.281-0.035-20.514,0.511-32.187C1073.801,650.718,1074.093,644.487,1074.099,640.333
	 M995.889,614.572c-12.546,0.929-25.722,2.553-39.163,4.826l-0.999,0.168l-0.086-1.009c-0.177-2.086-0.389-4.774-0.449-7.072
	l-0.026-0.954l0.955-0.005c9.662-0.043,19.487-0.29,28.991-0.528c3.527-0.089,7.056-0.178,10.584-0.257l1.149-0.025l-0.224,1.195
	c-0.059,0.306-0.118,0.609-0.139,0.923c-0.074,0.521-0.009,0.968,0.194,1.438l0.519,1.204L995.889,614.572z M1069.185,617.958
	c-12.413-2.3-25.488-3.699-38.86-4.161l-0.86-0.029l-0.041-0.86c-0.037-0.799-0.1-1.358-0.216-1.933l-0.238-1.171l1.195,0.053
	c1.908,0.086,3.818,0.179,5.731,0.272c6.837,0.332,13.905,0.676,20.783,0.676c4.573,0,8.659-0.149,12.491-0.456l0.964-0.077
	l0.044,0.966c0.08,1.796,0.094,3.598,0.108,5.398l0.012,1.528L1069.185,617.958z"/>
<path fill="#E6EEF1" d="M1010.604,663.653c0-0.006,0.002-0.01,0.001-0.017c-0.326-2.6-1.152-5.077-1.803-7.599
	c-0.045-1.527,0.072-2.96-1.002-4.223c-0.693-0.815-2.058-0.472-2.017,0.696c0.003,0.111,0.021,0.219,0.025,0.329
	c-0.225,0.398-0.577,0.704-1.066,0.91c-0.052,0.023-0.08,0.062-0.125,0.089c-0.025,0.014-0.05,0.013-0.073,0.027
	c-5.213,3.263-10.689,5.103-16.817,5.657c-0.298,0.04-0.513,0.18-0.675,0.356c-5.477,1.153-10.988,2.07-16.543,2.761
	c-0.131-0.156-0.279-0.293-0.454-0.387c-0.659-0.683-2.079-0.396-1.891,0.751c0.246,1.503,0.577,2.986,1.005,4.448
	c0.309,1.053,1.947,0.914,2.128-0.145c0.051-0.302,0.059-0.595,0.073-0.889c2.593-0.598,5.194-1.137,7.806-1.629
	c0.098,1.178,1.073,2.42,2.287,2.67c2.307,0.477,10.578-0.741,10.895-3.915c0.065-0.646,0-1.169-0.132-1.622
	c0.127-0.021,0.254-0.043,0.382-0.063c5.005-0.314,9.957-0.032,14.352,1.337c0.442,0.138,0.781-0.011,0.999-0.278
	c0.181,0.464,0.338,0.935,0.543,1.393C1009.066,665.578,1011.074,664.909,1010.604,663.653 M985.784,664.99
	c-1.365-0.12-2.73-0.241-4.096-0.361c0.578-0.214,1.167-0.395,1.751-0.593c1.703-0.283,3.41-0.551,5.123-0.789
	c0.139-0.02,0.262-0.059,0.369-0.112c0.218,0.052,0.437,0.104,0.654,0.154C988.354,663.94,987.088,664.507,985.784,664.99"/>
<path fill="#E6EEF1" d="M1019.513,648.622c-1.974,1.173-4.05,2.048-6.27,2.634c-1.745,0.46-1.037,3.17,0.713,2.708
	c2.437-0.642,4.767-1.616,6.933-2.903C1022.44,650.138,1021.067,647.698,1019.513,648.622"/>
<path fill="#E6EEF1" d="M1023.059,657.016c-1.575-0.143-3.107-0.458-4.621-0.912c-1.73-0.52-2.478,2.18-0.751,2.698
	c1.754,0.524,3.542,0.85,5.365,1.015C1024.849,659.979,1024.846,657.177,1023.059,657.016"/>
<path fill="#E6EEF1" d="M1020.397,665.458l-4.408-2.951c-1.505-1.007-2.935,1.402-1.44,2.402c1.469,0.982,2.938,1.967,4.406,2.951
	C1020.461,668.867,1021.891,666.458,1020.397,665.458"/>
<path fill="#E6EEF1" d="M1035.827,645.432c-0.589-0.036-1.19-0.461-1.811-0.535c-0.751-0.09-1.453,0.011-2.178,0.219
	c-1.067,0.306-2.364,0.774-2.645,1.961c-0.556,2.353,1.258,3.712,3.451,3.705c1.979-0.008,4.112,0.026,4.773-2.267
	c0.345-1.189-1.058-1.739-1.909-2.059c-1.209-0.456-2.427,0.456-3.614,0.524c-1.555,0.091-1.563,2.516,0,2.425
	c0.94-0.055,2.85-1.104,3.498-0.355c-0.104-0.393-0.208-0.786-0.312-1.179c-0.214,0.744-2.684,0.651-3.278,0.398
	c-0.369-0.156-0.291-0.104-0.284-0.375c0.002-0.125,0.021-0.248,0.06-0.367l-0.208,0.387c0.249-0.12,0.501-0.231,0.756-0.335
	c0.647-0.264,1.258-0.373,1.943-0.213c0.638,0.149,1.087,0.449,1.758,0.49C1037.389,647.951,1037.38,645.525,1035.827,645.432"/>
<path fill="#E6EEF1" d="M1037.463,648.192c0.712-5.728,0.043-11.819-0.052-17.587c-0.026-1.561-2.45-1.563-2.425,0
	c0.096,5.768,0.764,11.859,0.053,17.587C1034.846,649.742,1037.272,649.723,1037.463,648.192"/>
<path fill="#E6EEF1" d="M1036.792,634.947c1.556,0.817,3.197,1.406,4.598,2.494c0.561,0.434,1.072,0.82,1.396,1.453
	c0.444,0.866,0.051,2.282-0.051,3.202c0.794-0.108,1.587-0.215,2.381-0.322c-0.255-1.741-1.322-3.28-2.421-4.614
	c-0.486-0.589-1.045-1.133-1.769-1.414c-0.278-0.107-2.229-0.689-2.235-0.273c-0.117,0.285-0.236,0.57-0.354,0.856l0.184-0.237
	c0.438-0.562,0.533-1.534-0.245-1.904c-0.153-0.073-0.308-0.146-0.461-0.219c-1.404-0.667-2.636,1.423-1.224,2.094
	c0.154,0.073,0.308,0.146,0.461,0.219l-0.245-1.904c-1.317,1.698,0.096,3.021,1.858,3.334c1.26,0.224,1.884,0.572,2.671,1.606
	c0.695,0.912,1.276,1.966,1.442,3.101c0.215,1.464,2.243,0.917,2.381-0.321c0.254-2.288,0.389-4.27-1.472-5.895
	c-1.717-1.499-3.681-2.303-5.672-3.349C1036.633,632.128,1035.407,634.221,1036.792,634.947"/>
<path fill="#66AFBC" d="M1133.98,598.138c-1.835,1.021-2.297,1.718-4.287,0.878c-1.199-0.506-2.519-0.358-3.754-0.171
	c-2.564,0.388-3.271,2.8-3.451,4.978c-4.112-1.028-7.008,0.763-7.668,5.181c-4.256-0.38-5.946,3.773-3.298,6.822
	c-2.884,1.812-2.906,4.581-0.933,7.296c-1.561,1.088-3.499,2.874-2.042,4.734c0.357,0.455,0.728,0.873,1.099,1.283
	c-0.851,1.348-1.04,3.147-0.364,4.63c0.889,1.946,2.534,2.378,4.431,2.539c0.502,2.617,2.226,6.424,5.301,5.892
	c2.291-0.396,1.649,1.277,3.315,2.337c0.652,0.415,1.282,0.66,1.925,0.793c1.039,0.814,2.268,0.905,3.729,1.157
	c0.096,0.121,0.223,0.223,0.419,0.27c0.194,0.048,0.39,0.087,0.586,0.129c-0.529,1.848,2.058,4.062,4.199,4.78
	c-0.242,1.2-0.279,2.422-0.038,3.618c0,3.717-0.046,7.483-0.454,11.16c-0.384,3.477-1.033,6.811-1.013,10.303
	c-2.322,0.168-4.55,0.704-6.301,1.888c-0.26,0.176-0.438,0.465-0.414,0.78c-0.556,1.321,0.498,4.138,0.78,5.016
	c0.532,1.655,0.753,3.062,1.908,4.452c1.188,1.43,2.578,2.371,4.378,2.85c0.088,0.023,0.165,0.016,0.244,0.015
	c1.294,0.313,2.822,0.268,4.631-0.286c0.062-0.019,0.085-0.067,0.137-0.095c5.28-0.865,6.303-8.748,6.085-13.009
	c-0.038-0.739-0.837-0.97-1.314-0.696c-0.48-0.033-0.961-0.065-1.442-0.098c-1.115-0.271-2.335-0.505-3.616-0.667
	c-0.135-0.981-0.22-1.969-0.321-2.954c0.267-2.947,0.878-5.836,1.042-8.819c0.163-2.957,0.245-5.924,0.281-8.889
	c0.151-0.422,0.206-0.896,0.019-1.444c0.003-0.477,0.019-0.954,0.018-1.431c0-0.244-0.041-0.457-0.105-0.651
	c0.025-0.164,0.06-0.319,0.099-0.478c1.575,0.382,3.019,0.23,4.755-0.892c0.576-0.37,1.213-1.182,1.417-1.841
	c0.443-1.423,0.663-1.254,2.078-1.803c1.418-0.552,3.569-2.272,3.506-3.941c0.054,1.394,5.109-0.935,5.619-1.98
	c0.282-0.579,1.002-3.497,1.435-3.551c0.731-0.091,1.413-0.498,1.855-1.097c0.785-1.063,1.045-1.71,1.135-2.973
	c0.167-2.33,1.608-2.159,2.594-3.694c0.486-0.755,0.236-1.878,0.119-2.679c-0.256-1.744,0.58-2.174,1.019-3.622
	c0.591-1.957-0.474-3.947-1.984-5.12c0.891-1.688,1.41-3.155-0.082-4.81c-1.599-1.774,0.11-3.831-1.782-5.449
	c-1.08-0.924-2.282-0.975-2.687-2.623c-0.254-1.042-0.765-2.1-1.478-2.905c-1.873-2.114-4.166-5.26-7.286-5.41
	c-0.78-0.037-2.865,0.39-3.368-0.044c-0.815-0.701-1.497-1.053-2.541-1.318C1139.531,595.821,1136.197,596.903,1133.98,598.138"/>
<path fill="#0C7790" d="M1155.098,623.78c-0.715,1.097-1.287,2.22-1.879,3.309c-0.019-1.929-0.156-3.951-1.377-5.44
	c-0.734-0.896-2.289,0.059-1.545,0.967c1.397,1.704,1.065,4.291,1.114,6.354c0.006,0.275,0.117,0.477,0.272,0.617
	c-0.68,0.939-1.478,1.809-2.545,2.543c-3.146,2.163-6.871,3.071-10.192,4.838c-1.046,0.557-1.767,1.107-2.291,1.857
	c-0.759-2.907-0.037-7.177-0.058-9.878c-0.018-2.006,0.115-4.003,0.228-6c2.088-0.437,4.013-1.821,5.709-3.014
	c2.034-1.432,3.872-3.164,3.689-5.84c-0.079-1.169-1.901-1.116-1.821,0.058c0.158,2.319-1.869,3.58-3.56,4.74
	c-1.144,0.784-2.52,1.751-3.928,2.151c0.048-1.176,0.076-2.354,0.035-3.535c-0.004-0.118-0.038-0.216-0.075-0.309
	c0.044-0.33-0.063-0.682-0.414-0.91c-1.506-0.977-3.054-1.863-4.645-2.665c0.221-0.148,0.383-0.386,0.375-0.732
	c-0.034-1.688,0.035-3.375-0.007-5.062c-0.029-1.175-1.851-1.118-1.821,0.057c0.042,1.684-0.027,3.367,0.007,5.053
	c-1.051-0.488-2.114-0.952-3.206-1.366c-1.098-0.417-1.512,1.36-0.43,1.771c2.947,1.118,5.737,2.576,8.394,4.264
	c0.149,4.354-0.375,8.682-0.339,13.036c0.019,2.278-0.342,4.997-0.042,7.443c-2.468-1.264-5.172-2.11-7.678-3.297
	c-2.652-1.256-6.159-5.125-8.104-7.508c-0.732-0.897-2.287,0.057-1.545,0.968c3.29,4.03,6.708,7.327,11.527,9.374
	c3.018,1.282,6.242,1.6,6.292,5.632c0.004,0.328-0.005,0.651-0.021,0.973c-0.13,0.989-0.227,1.985-0.29,2.988
	c-0.081,0.801-0.127,1.602-0.093,2.416c-0.005,0.533-0.02,1.076-0.005,1.587c0.03,1.117,1.659,1.108,1.794,0.098
	c0.121-0.189,0.183-0.424,0.126-0.696c-0.033-0.167-0.055-0.353-0.067-0.55c0.077-2.715,0.632-5.365,0.836-8.079
	c0.271-3.613,7.28-5.473,10.028-6.843c5.102-2.543,6.211-5.977,9.151-10.496C1157.34,623.663,1155.733,622.804,1155.098,623.78"/>
<rect y="691.155" fill="#268DA0" width="1453" height="61.307"/>
<rect y="689.156" fill="#B3D7DE" width="1453" height="12.842"/>
<line fill="none" stroke="#015477" stroke-width="1.997" stroke-linecap="square" stroke-miterlimit="10" x1="34.496" y1="725.61" x2="37.496" y2="725.61"/>
<line fill="none" stroke="#015477" stroke-width="1.997" stroke-linecap="square" stroke-miterlimit="10" stroke-dasharray="6.029,8.039" x1="45.535" y1="725.61" x2="1420.23" y2="725.61"/>
<line fill="none" stroke="#015477" stroke-width="1.997" stroke-linecap="square" stroke-miterlimit="10" x1="1424.25" y1="725.61" x2="1427.25" y2="725.61"/>
</svg>
